<?xml version="1.0" encoding="utf-8"?>
<!-- Generator: Adobe Illustrator 16.0.0, SVG Export Plug-In . SVG Version: 6.00 Build 0)  -->
<!DOCTYPE svg PUBLIC "-//W3C//DTD SVG 1.1//EN" "http://www.w3.org/Graphics/SVG/1.1/DTD/svg11.dtd">
<svg version="1.1" id="Calque_1" xmlns="http://www.w3.org/2000/svg" xmlns:xlink="http://www.w3.org/1999/xlink" x="0px" y="0px"
	 width="328.836px" height="474.286px" viewBox="0 0 328.836 474.286" enable-background="new 0 0 328.836 474.286"
	 xml:space="preserve">
<g>
	<defs>
		<rect id="SVGID_1_" width="330" height="474.286"/>
	</defs>
	<clipPath id="SVGID_2_">
		<use xlink:href="#SVGID_1_"  overflow="visible"/>
	</clipPath>
	
		<rect x="-2.736" clip-path="url(#SVGID_2_)" fill="#FFFFFF" stroke="#000000" stroke-miterlimit="10" width="335.33" height="474.286"/>
	<polygon clip-path="url(#SVGID_2_)" fill="#E0DBD5" points="-259.073,411.259 -47.619,45.009 163.835,411.259 	"/>
	<polygon clip-path="url(#SVGID_2_)" fill="#EE726A" points="-47.619,45.009 163.835,411.259 375.291,45.009 	"/>
	<polygon clip-path="url(#SVGID_2_)" fill="#8AB3D2" points="163.835,411.259 375.291,45.009 586.744,411.259 	"/>
	<g clip-path="url(#SVGID_2_)">
		<rect x="86.8" y="10.286" fill="none" width="154.071" height="36"/>
		<text transform="matrix(1 0 0 1 86.8003 35.4453)" font-family="'ITCAvantGardeStd-XLtCn'" font-size="34">NOVEMBRE</text>
	</g>
	<rect x="281.494" y="7.083" clip-path="url(#SVGID_2_)" fill="#EE726A" width="36.111" height="6.019"/>
	<rect x="281.494" y="18.451" clip-path="url(#SVGID_2_)" fill="#EE726A" width="36.111" height="6.019"/>
	<rect x="-47.619" y="45.009" clip-path="url(#SVGID_2_)" fill="#FFFFFF" width="377.619" height="43.375"/>
	<rect x="281.494" y="30.108" clip-path="url(#SVGID_2_)" fill="#EE726A" width="36.111" height="6.019"/>
	<rect x="-1.165" y="417.368" clip-path="url(#SVGID_2_)" fill="#EE726A" width="330" height="56.918"/>
	<polygon clip-path="url(#SVGID_2_)" fill="#E26260" points="-2.593,88.384 -2.593,126.286 42.543,201.175 281.494,201.175 
		330,123.453 330,88.384 	"/>
	<g clip-path="url(#SVGID_2_)">
		<rect x="48.505" y="104.883" fill="none" width="232.989" height="91.496"/>
		<text transform="matrix(1 0 0 1 122.7261 123.3828)"><tspan x="0" y="0" fill="#FFFFFF" font-family="'ITCAvantGardeStd-MdCn'" font-size="25">9h - 12h</tspan><tspan x="-7.351" y="30" fill="#FFFFFF" font-family="'ITCAvantGardeStd-XLtCn'" font-size="25">Algorithme</tspan><tspan x="-8.9" y="60" fill="#FFFFFF" font-family="'ITCAvantGardeStd-XLtCn'" font-size="25">Salle G200</tspan></text>
	</g>
	<g clip-path="url(#SVGID_2_)">
		<rect x="83.8" y="52.386" fill="none" width="173.194" height="32.998"/>
		<text transform="matrix(1 0 0 1 83.8003 77.5454)" font-family="'ITCAvantGardeStd-BkCn'" font-size="34">Vendredi 1er</text>
	</g>
	<line clip-path="url(#SVGID_2_)" x1="-1.165" y1="43.009" x2="328.836" y2="43.009"/>
	<g clip-path="url(#SVGID_2_)">
		<rect x="47.341" y="228.133" fill="none" width="232.989" height="91.496"/>
		<text transform="matrix(1 0 0 1 114.9116 246.6333)"><tspan x="0" y="0" fill="#FFFFFF" font-family="'ITCAvantGardeStd-MdCn'" font-size="25">13h - 16h</tspan><tspan x="-6.45" y="30" fill="#FFFFFF" font-family="'ITCAvantGardeStd-XLtCn'" font-size="25">Hypermédia</tspan><tspan x="-1.662" y="60" fill="#FFFFFF" font-family="'ITCAvantGardeStd-XLtCn'" font-size="25">Salle D300</tspan></text>
	</g>
	<g clip-path="url(#SVGID_2_)">
		<rect x="240.871" y="372.614" fill="none" width="173.193" height="32.998"/>
		<text transform="matrix(1 0 0 1 240.8711 397.7739)" font-family="'ITCAvantGardeStd-XLtCn'" font-size="34">Vendredi 1er</text>
	</g>
</g>
<path fill="none" stroke="#FFFFFF" stroke-width="4" stroke-miterlimit="10" d="M290.033,437.479
	c3.627,4.672,2.779,11.4-1.895,15.027c-4.672,3.627-11.398,2.779-15.025-1.895c-3.629-4.672-2.781-11.4,1.893-15.025
	C279.678,431.958,286.406,432.806,290.033,437.479z"/>
<path fill="#FFFFFF" d="M302.195,457.046c0.396,0.262,0.508,0.795,0.246,1.193l0,0c-0.262,0.396-0.795,0.508-1.193,0.246
	l-10.857-7.141c-0.398-0.262-0.508-0.797-0.246-1.193l0,0c0.262-0.398,0.797-0.508,1.193-0.246L302.195,457.046z"/>
<line fill="#FFFFFF" x1="139.407" y1="417.368" x2="139.407" y2="474.286"/>
<line fill="#FFFFFF" x1="240.994" y1="417.368" x2="240.994" y2="474.286"/>
<line fill="#FFFFFF" x1="61.505" y1="417.368" x2="61.505" y2="474.286"/>
<polygon fill="#FFFFFF" points="8.138,445.378 18.922,426.698 29.707,445.378 "/>
<polygon fill="#FFFFFF" points="189.407,366.968 163.835,411.259 330,411.259 330,366.968 "/>
<polygon fill="#FFFFFF" points="138.444,366.968 163.835,411.259 0,411.259 0,366.968 "/>
<rect x="26.724" y="450.29" fill="#FFFFFF" width="7.382" height="7.383"/>
<rect x="36.162" y="450.29" fill="#FFFFFF" width="7.382" height="7.383"/>
<rect x="26.707" y="459.407" fill="#FFFFFF" width="7.382" height="7.383"/>
<rect x="36.145" y="459.407" fill="#FFFFFF" width="7.382" height="7.383"/>
<path fill="none" stroke="#FFFFFF" stroke-width="2" stroke-miterlimit="10" d="M29.551,432.501c0,0,8.996,0.342,11.339,9.287"/>
<polygon fill="#FFFFFF" points="44.513,440.161 41.568,447.708 36.505,441.384 "/>
<path display="none" fill="none" stroke="#FFFFFF" stroke-width="2" stroke-miterlimit="10" d="M69.718,645.726
	c0,0-8.996-0.342-11.339-9.288"/>
<circle fill="#FFFFFF" cx="98.8" cy="444.249" r="15.713"/>
<polygon fill="#FFFFFF" points="101.294,453.167 108.513,459.962 95.773,456.565 "/>
<rect x="80.963" y="435.331" fill="none" width="35.674" height="33.549"/>
<text transform="matrix(1 0 0 1 95.5137 454.1855)" fill="#EE726A" font-family="'ITCAvantGardeStd-MdCn'" font-size="25.481">!</text>
<path fill="none" stroke="#FFFFFF" stroke-width="2" stroke-miterlimit="10" d="M19.549,466.132c0,0-8.899-1.365-10.208-10.521"/>
<polygon fill="#FFFFFF" points="5.558,456.815 9.343,449.653 13.652,456.515 "/>
<polygon fill="#FFFFFF" points="192.584,434.675 205.692,428.718 205.692,459.427 192.584,465.356 "/>
<polygon fill="#FFFFFF" points="188.797,434.63 175.691,428.671 175.691,459.38 188.797,465.31 "/>
</svg>
