<?xml version="1.0" encoding="utf-8"?>
<!-- Generator: Adobe Illustrator 16.0.0, SVG Export Plug-In . SVG Version: 6.00 Build 0)  -->
<!DOCTYPE svg PUBLIC "-//W3C//DTD SVG 1.1//EN" "http://www.w3.org/Graphics/SVG/1.1/DTD/svg11.dtd">
<svg version="1.1" id="Calque_1" xmlns="http://www.w3.org/2000/svg" xmlns:xlink="http://www.w3.org/1999/xlink" x="0px" y="0px"
	 width="411.107px" height="841.89px" viewBox="0 0 411.107 841.89" enable-background="new 0 0 411.107 841.89"
	 xml:space="preserve">
	<polygon clip-path="url(#SVGID_2_)" fill="#EE726A" points="-1,225.723 210.454,591.973 421.909,225.723 	"/>
	<polygon clip-path="url(#SVGID_2_)" fill="#8AB3D2" points="210.454,591.973 421.909,225.724 633.363,591.973 	"/>
	<g clip-path="url(#SVGID_2_)">
		<rect x="133.419" y="191" fill="none" width="154.07" height="36"/>
		<text id="mois" transform="matrix(1 0 0 1 133.4189 216.1597)" font-family="'ITCAvantGardeStd-XLtCn'" font-size="34">NOVEMBRE</text>
	</g>
	<rect x="328.113" y="187.797" clip-path="url(#SVGID_2_)" fill="#EE726A" width="36.111" height="6.019"/>
	<rect x="328.113" y="199.166" clip-path="url(#SVGID_2_)" fill="#EE726A" width="36.111" height="6.019"/>
	<rect x="-1" y="225.723" clip-path="url(#SVGID_2_)" fill="#FFFFFF" width="377.619" height="43.375"/>
	<rect x="328.113" y="210.822" clip-path="url(#SVGID_2_)" fill="#EE726A" width="36.111" height="6.019"/>
	<rect x="45.454" y="598.082" clip-path="url(#SVGID_2_)" fill="#EE726A" width="330" height="56.918"/>
	<polygon clip-path="url(#SVGID_2_)" fill="#E26260" points="44.025,269.098 44.025,307 89.162,381.889 328.113,381.889 
		376.619,304.167 376.619,269.098 	"/>
	<g clip-path="url(#SVGID_2_)">
		<rect x="95.124" y="285.597" fill="none" width="232.99" height="91.496"/>
		<text transform="matrix(1 0 0 1 169.3447 304.0972)"><tspan id="heure" x="0" y="0" fill="#FFFFFF" font-family="'ITCAvantGardeStd-MdCn'" font-size="25">9h - 12h</tspan><tspan id="cours" x="-7.351" y="30" fill="#FFFFFF" font-family="'ITCAvantGardeStd-XLtCn'" font-size="25">Algorithme</tspan><tspan id="salle" x="-8.9" y="60" fill="#FFFFFF" font-family="'ITCAvantGardeStd-XLtCn'" font-size="25">Salle G200</tspan></text>
	</g>
	<g clip-path="url(#SVGID_2_)">
		<rect x="130.419" y="233.1" fill="none" width="173.194" height="32.998"/>
		<text id="jour" transform="matrix(1 0 0 1 130.4189 258.2598)" font-family="'ITCAvantGardeStd-BkCn'" font-size="34">Vendredi 1er</text>
	</g>
	<line clip-path="url(#SVGID_2_)" x1="45.454" y1="223.723" x2="375.454" y2="223.723"/>
	<g clip-path="url(#SVGID_2_)">
		<rect x="93.959" y="408.848" fill="none" width="232.99" height="91.496"/>
		<text transform="matrix(1 0 0 1 161.5303 427.3477)"><tspan x="0" y="0" fill="#FFFFFF" font-family="'ITCAvantGardeStd-MdCn'" font-size="25">13h - 16h</tspan><tspan x="-6.45" y="30" fill="#FFFFFF" font-family="'ITCAvantGardeStd-XLtCn'" font-size="25">Hypermédia</tspan><tspan x="-1.662" y="60" fill="#FFFFFF" font-family="'ITCAvantGardeStd-XLtCn'" font-size="25">Salle D300</tspan></text>
	</g>
	<g clip-path="url(#SVGID_2_)">
		<rect x="287.489" y="553.328" fill="none" width="173.194" height="32.998"/>
		<text id="jour" transform="matrix(1 0 0 1 287.4893 578.4883)" font-family="'ITCAvantGardeStd-XLtCn'" font-size="34">Vendredi 1er</text>
	</g>
</g>
<circle fill="none" stroke="#FFFFFF" stroke-width="4" stroke-miterlimit="10" cx="328.191" cy="624.76" r="10.71"/>
<path fill="#FFFFFF" d="M348.814,637.76c0.396,0.262,0.508,0.796,0.245,1.193l0,0c-0.261,0.397-0.795,0.509-1.193,0.246
	l-10.856-7.141c-0.398-0.262-0.508-0.796-0.246-1.193l0,0c0.262-0.398,0.796-0.507,1.193-0.246L348.814,637.76z"/>
<line fill="#FFFFFF" x1="186.025" y1="598.082" x2="186.025" y2="655"/>
<line fill="#FFFFFF" x1="287.613" y1="598.082" x2="287.613" y2="655"/>
<line fill="#FFFFFF" x1="96.124" y1="598.082" x2="96.124" y2="655"/>
<polygon fill="#FFFFFF" points="54.756,626.092 65.541,607.413 76.325,626.092 "/>
<polygon fill="#FFFFFF" points="236.025,547.682 210.454,591.973 376.619,591.973 376.619,547.682 "/>
<polygon fill="#FFFFFF" points="185.063,547.682 210.454,591.973 46.619,591.973 46.619,547.682 "/>
<rect x="73.342" y="631.004" fill="#FFFFFF" width="7.382" height="7.383"/>
<rect x="82.78" y="631.004" fill="#FFFFFF" width="7.382" height="7.383"/>
<rect x="73.325" y="640.121" fill="#FFFFFF" width="7.382" height="7.383"/>
<rect x="82.763" y="640.121" fill="#FFFFFF" width="7.382" height="7.383"/>
<path fill="none" stroke="#FFFFFF" stroke-width="2" stroke-miterlimit="10" d="M76.17,613.215c0,0,8.996,0.342,11.339,9.288"/>
<polygon fill="#FFFFFF" points="91.132,620.875 88.187,628.423 83.124,622.098 "/>
<path display="none" fill="none" stroke="#FFFFFF" stroke-width="2" stroke-miterlimit="10" d="M69.718,645.726
	c0,0-8.996-0.342-11.339-9.288"/>
<circle fill="#FFFFFF" cx="139.419" cy="624.963" r="15.713"/>
<polygon fill="#FFFFFF" points="147.913,633.882 155.132,640.677 142.392,637.279 "/>
<rect x="121.582" y="616.045" fill="none" width="35.674" height="33.55"/>
<text transform="matrix(1 0 0 1 136.1323 634.9004)" fill="#EE726A" font-family="'ITCAvantGardeStd-MdCn'" font-size="25.481">!</text>
<path fill="none" stroke="#FFFFFF" stroke-width="2" stroke-miterlimit="10" d="M66.168,646.846c0,0-8.899-1.365-10.208-10.521"/>
<polygon fill="#FFFFFF" points="52.176,637.53 55.962,630.367 60.271,637.229 "/>
<polygon fill="#FFFFFF" points="239.203,615.39 252.311,609.432 252.311,640.141 239.203,646.07 "/>
<polygon fill="#FFFFFF" points="235.416,615.344 222.31,609.386 222.31,640.094 235.416,646.023 "/>
</svg>
