<?xml version="1.0" encoding="utf-8"?>
<!-- Generator: Adobe Illustrator 15.0.0, SVG Export Plug-In . SVG Version: 6.00 Build 0)  -->
<!DOCTYPE svg PUBLIC "-//W3C//DTD SVG 1.1//EN" "http://www.w3.org/Graphics/SVG/1.1/DTD/svg11.dtd">
<svg version="1.1" xmlns="http://www.w3.org/2000/svg" xmlns:xlink="http://www.w3.org/1999/xlink" x="0px" y="0px" width="1280px"
	 height="851px" viewBox="0 0 1280 851" enable-background="new 0 0 1280 851" xml:space="preserve">
<g id="cases">
	<rect x="911.5" y="276.002" fill="#EFEFEF" width="363.5" height="532.998"/>
	<line fill="none" stroke="#000000" stroke-miterlimit="10" x1="7" y1="382" x2="184" y2="382"/>
	<line fill="none" stroke="#000000" stroke-miterlimit="10" x1="7" y1="276.002" x2="184" y2="276.002"/>
	<line fill="none" stroke="#000000" stroke-miterlimit="10" x1="7" y1="488.5" x2="184" y2="488.5"/>
	<line fill="none" stroke="#000000" stroke-miterlimit="10" x1="7" y1="597" x2="184" y2="597"/>
	<line fill="none" stroke="#000000" stroke-miterlimit="10" x1="7" y1="703.5" x2="184" y2="703.5"/>
	<line fill="none" stroke="#000000" stroke-miterlimit="10" x1="187.5" y1="382" x2="364.5" y2="382"/>
	<line fill="none" stroke="#000000" stroke-miterlimit="10" x1="187.5" y1="276.002" x2="364.5" y2="276.002"/>
	<line fill="none" stroke="#000000" stroke-miterlimit="10" x1="187.5" y1="488.5" x2="364.5" y2="488.5"/>
	<line fill="none" stroke="#000000" stroke-miterlimit="10" x1="187.5" y1="597" x2="364.5" y2="597"/>
	<line fill="none" stroke="#000000" stroke-miterlimit="10" x1="187.5" y1="703.5" x2="364.5" y2="703.5"/>
	<line fill="none" stroke="#000000" stroke-miterlimit="10" x1="368.5" y1="382" x2="545.5" y2="382"/>
	<line fill="none" stroke="#000000" stroke-miterlimit="10" x1="368.5" y1="276.002" x2="545.5" y2="276.002"/>
	<line fill="none" stroke="#000000" stroke-miterlimit="10" x1="368.5" y1="488.5" x2="545.5" y2="488.5"/>
	<line fill="none" stroke="#000000" stroke-miterlimit="10" x1="368.5" y1="597" x2="545.5" y2="597"/>
	<line fill="none" stroke="#000000" stroke-miterlimit="10" x1="368.5" y1="703.5" x2="545.5" y2="703.5"/>
	<line fill="none" stroke="#000000" stroke-miterlimit="10" x1="549.5" y1="382" x2="726.5" y2="382"/>
	<line fill="none" stroke="#000000" stroke-miterlimit="10" x1="549.5" y1="276.002" x2="726.5" y2="276.002"/>
	<line fill="none" stroke="#000000" stroke-miterlimit="10" x1="549.5" y1="488.5" x2="726.5" y2="488.5"/>
	<line fill="none" stroke="#000000" stroke-miterlimit="10" x1="549.5" y1="597" x2="726.5" y2="597"/>
	<line fill="none" stroke="#000000" stroke-miterlimit="10" x1="549.5" y1="703.5" x2="726.5" y2="703.5"/>
	<line fill="none" stroke="#000000" stroke-miterlimit="10" x1="730" y1="382" x2="907" y2="382"/>
	<line fill="none" stroke="#000000" stroke-miterlimit="10" x1="730" y1="276.002" x2="907" y2="276.002"/>
	<line fill="none" stroke="#000000" stroke-miterlimit="10" x1="730" y1="488.5" x2="907" y2="488.5"/>
	<line fill="none" stroke="#000000" stroke-miterlimit="10" x1="730" y1="597" x2="907" y2="597"/>
	<line fill="none" stroke="#000000" stroke-miterlimit="10" x1="730" y1="703.5" x2="907" y2="703.5"/>
	<line fill="none" stroke="#000000" stroke-miterlimit="10" x1="911.5" y1="382" x2="1088.5" y2="382"/>
	<line fill="none" stroke="#000000" stroke-miterlimit="10" x1="911.5" y1="276.002" x2="1088.5" y2="276.002"/>
	<line fill="none" stroke="#000000" stroke-miterlimit="10" x1="911.5" y1="488.5" x2="1088.5" y2="488.5"/>
	<line fill="none" stroke="#000000" stroke-miterlimit="10" x1="911.5" y1="597" x2="1088.5" y2="597"/>
	<line fill="none" stroke="#000000" stroke-miterlimit="10" x1="911.5" y1="703.5" x2="1088.5" y2="703.5"/>
	<line fill="none" stroke="#000000" stroke-miterlimit="10" x1="1096" y1="382" x2="1273" y2="382"/>
	<line fill="none" stroke="#000000" stroke-miterlimit="10" x1="1096" y1="276.002" x2="1273" y2="276.002"/>
	<line fill="none" stroke="#000000" stroke-miterlimit="10" x1="1096" y1="488.5" x2="1273" y2="488.5"/>
	<line fill="none" stroke="#000000" stroke-miterlimit="10" x1="1096" y1="597" x2="1273" y2="597"/>
	<line fill="none" stroke="#000000" stroke-miterlimit="10" x1="1096" y1="703.5" x2="1273" y2="703.5"/>
</g>
<g id="texte">
	<text transform="matrix(1 0 0 1 167.9741 271.8545)" font-family="'Verdana'" font-size="9">lun.</text>
	<text transform="matrix(1 0 0 1 345.4585 271.8232)" font-family="'Verdana'" font-size="9">mar.</text>
	<text transform="matrix(1 0 0 1 526.4585 271.8232)" font-family="'Verdana'" font-size="9">mer.</text>
	<text transform="matrix(1 0 0 1 709.709 271.8232)" font-family="'Verdana'" font-size="9">jeu.</text>
	<text transform="matrix(1 0 0 1 887.709 271.8232)" font-family="'Verdana'" font-size="9">ven.</text>
	<text transform="matrix(1 0 0 1 1067.209 271.8232)" font-family="'Verdana'" font-size="9">sam.</text>
	<text transform="matrix(1 0 0 1 1253.875 271.8232)" font-family="'Verdana'" font-size="9">dim.</text>
	<rect x="173.5" y="281" fill="none" width="15" height="11.5"/>
	<text transform="matrix(1 0 0 1 173.5 287.8398)" fill="#7A7979" font-family="'Verdana'" font-size="9">31</text>
	<rect x="337" y="281" fill="none" width="29.25" height="11.5"/>
	<text transform="matrix(1 0 0 1 337 287.8398)" font-family="'Verdana'" font-size="9">1 avril</text>
	<rect x="540" y="281" fill="none" width="10" height="11.5"/>
	<text transform="matrix(1 0 0 1 540 287.8398)" font-family="'Verdana'" font-size="9">2</text>
	<rect x="721.25" y="281" fill="none" width="10" height="11.5"/>
	<text transform="matrix(1 0 0 1 721.25 287.8398)" font-family="'Verdana'" font-size="9">3</text>
	<rect x="901.5" y="281" fill="none" width="10" height="11.5"/>
	<text transform="matrix(1 0 0 1 901.5 287.8398)" font-family="'Verdana'" font-size="9">4</text>
	<rect x="1083.75" y="281" fill="none" width="10" height="11.5"/>
	<text transform="matrix(1 0 0 1 1083.75 287.8398)" font-family="'Verdana'" font-size="9">5</text>
	<rect x="1267.25" y="281" fill="none" width="10" height="11.5"/>
	<text transform="matrix(1 0 0 1 1267.25 287.8398)" font-family="'Verdana'" font-size="9">6</text>
	<rect x="177.5" y="388.5" fill="none" width="15" height="11.5"/>
	<text transform="matrix(1 0 0 1 177.5 395.3398)" font-family="'Verdana'" font-size="9">7</text>
	<rect x="359" y="388.5" fill="none" width="29.25" height="11.5"/>
	<text transform="matrix(1 0 0 1 359 395.3398)" font-family="'Verdana'" font-size="9">8</text>
	<rect x="540" y="388.5" fill="none" width="10" height="11.5"/>
	<text transform="matrix(1 0 0 1 540 395.3398)" font-family="'Verdana'" font-size="9">9</text>
	<rect x="716.25" y="388.5" fill="none" width="12.75" height="11.5"/>
	<text transform="matrix(1 0 0 1 716.25 395.3398)" font-family="'Verdana'" font-size="9">10</text>
	<rect x="896.5" y="388.5" fill="none" width="13.5" height="11.5"/>
	<text transform="matrix(1 0 0 1 896.5 395.3398)" font-family="'Verdana'" font-size="9">11</text>
	<rect x="1077.75" y="388.5" fill="none" width="13.25" height="11.5"/>
	<text transform="matrix(1 0 0 1 1077.75 395.3398)" font-family="'Verdana'" font-size="9">12</text>
	<rect x="1262.25" y="388.5" fill="none" width="12.75" height="11.5"/>
	<text transform="matrix(1 0 0 1 1262.25 395.3398)" font-family="'Verdana'" font-size="9">13</text>
	<rect x="173.5" y="494.25" fill="none" width="15" height="11.5"/>
	<text transform="matrix(1 0 0 1 173.5 501.0898)" font-family="'Verdana'" font-size="9">14</text>
	<rect x="354" y="494.25" fill="none" width="29.25" height="11.5"/>
	<text transform="matrix(1 0 0 1 354 501.0898)" font-family="'Verdana'" font-size="9">15</text>
	<rect x="534" y="494.25" fill="none" width="19.333" height="11.5"/>
	<text transform="matrix(1 0 0 1 534 501.0898)" font-family="'Verdana'" font-size="9">16</text>
	<rect x="715.25" y="494.25" fill="none" width="12.75" height="11.5"/>
	<text transform="matrix(1 0 0 1 715.25 501.0898)" font-family="'Verdana'" font-size="9">17</text>
	<rect x="895.5" y="494.25" fill="none" width="13.5" height="11.5"/>
	<text transform="matrix(1 0 0 1 895.5 501.0898)" font-family="'Verdana'" font-size="9">18</text>
	<rect x="1077.75" y="494.25" fill="none" width="13.25" height="11.5"/>
	<text transform="matrix(1 0 0 1 1077.75 501.0898)" font-family="'Verdana'" font-size="9">19</text>
	<rect x="1262.25" y="494.25" fill="none" width="12.75" height="11.5"/>
	<text transform="matrix(1 0 0 1 1262.25 501.0898)" font-family="'Verdana'" font-size="9">20</text>
	<rect x="173.5" y="601.25" fill="none" width="15" height="11.5"/>
	<text transform="matrix(1 0 0 1 173.5 608.0898)" font-family="'Verdana'" font-size="9">21</text>
	<rect x="353" y="601.25" fill="none" width="29.25" height="11.5"/>
	<text transform="matrix(1 0 0 1 353 608.0898)" font-family="'Verdana'" font-size="9">22</text>
	<rect x="534" y="601.25" fill="none" width="21" height="11.5"/>
	<text transform="matrix(1 0 0 1 534 608.0898)" font-family="'Verdana'" font-size="9">23</text>
	<rect x="714.25" y="601.25" fill="none" width="12.75" height="11.5"/>
	<text transform="matrix(1 0 0 1 714.25 608.0898)" font-family="'Verdana'" font-size="9">24</text>
	<rect x="895.5" y="601.25" fill="none" width="13.5" height="11.5"/>
	<text transform="matrix(1 0 0 1 895.5 608.0898)" font-family="'Verdana'" font-size="9">25</text>
	<rect x="1077.75" y="601.25" fill="none" width="13.25" height="11.5"/>
	<text transform="matrix(1 0 0 1 1077.75 608.0898)" font-family="'Verdana'" font-size="9">26</text>
	<rect x="1262.25" y="601.25" fill="none" width="12.75" height="11.5"/>
	<text transform="matrix(1 0 0 1 1262.25 608.0898)" font-family="'Verdana'" font-size="9">27</text>
	<rect x="173.5" y="708.25" fill="none" width="15" height="11.5"/>
	<text transform="matrix(1 0 0 1 173.5 715.0898)" font-family="'Verdana'" font-size="9">28</text>
	<rect x="354" y="708.25" fill="none" width="29.25" height="11.5"/>
	<text transform="matrix(1 0 0 1 354 715.0898)" font-family="'Verdana'" font-size="9">29</text>
	<rect x="535" y="708.25" fill="none" width="22.25" height="11.5"/>
	<text transform="matrix(1 0 0 1 535 715.0898)" font-family="'Verdana'" font-size="9">30</text>
	<rect x="716.25" y="708.25" fill="none" width="12.75" height="11.5"/>
	<text transform="matrix(1 0 0 1 716.25 715.0898)" font-family="'Verdana'" font-size="9">31</text>
	<rect x="881.5" y="708.25" fill="none" width="43" height="11.5"/>
	<text transform="matrix(1 0 0 1 881.5 715.0898)" fill="#7A7979" font-family="'Verdana'" font-size="9">1 mai</text>
	<rect x="1081.75" y="708.25" fill="none" width="13.25" height="11.5"/>
	<text transform="matrix(1 0 0 1 1081.75 715.0898)" fill="#7A7979" font-family="'Verdana'" font-size="9">2</text>
	<rect x="1265.25" y="708.25" fill="none" width="12.75" height="11.5"/>
	<text transform="matrix(1 0 0 1 1265.25 715.0898)" fill="#7A7979" font-family="'Verdana'" font-size="9">3</text>
</g>
<g id="Calque_4">
	<rect x="69.833" fill="#FCC744" width="133.78" height="70"/>
	<rect x="524.555" y="118.998" fill="#1D1D1D" width="230.89" height="70"/>
	<rect x="457" y="118.998" fill="#1D1D1D" width="67.458" height="70"/>
	<rect x="755.68" y="118.998" fill="#1D1D1D" width="67.459" height="70"/>
	<rect x="198.25" fill="#F5F4F4" width="318.416" height="70"/>
	<rect x="516.666" fill="#F5F4F4" width="136.833" height="70"/>
	<path fill="#FCC744" stroke="#FED97D" stroke-width="0.5" stroke-miterlimit="10" d="M139.833,70"/>
	<path fill="#FCC744" stroke="#FED97D" stroke-width="0.5" stroke-miterlimit="10" d="M139.833,0"/>
	<path fill="#FCC744" stroke="#E4A317" stroke-width="0.5" stroke-miterlimit="10" d="M140.302,70.062"/>
	<path fill="#FCC744" stroke="#E4A317" stroke-width="0.5" stroke-miterlimit="10" d="M140.302,0.062"/>
	<rect fill="#FCC744" width="70" height="70"/>
	<line fill="#FCC744" stroke="#FED97D" stroke-width="0.5" stroke-miterlimit="10" x1="70" y1="0" x2="70" y2="70"/>
	
		<line fill="#FCC744" stroke="#E4A317" stroke-width="0.5" stroke-miterlimit="10" x1="70.469" y1="0.062" x2="70.469" y2="70.062"/>
	
		<line fill="#FCC744" stroke="#FED97D" stroke-width="0.5" stroke-miterlimit="10" x1="523.891" y1="118.935" x2="523.891" y2="188.935"/>
	
		<line fill="#FCC744" stroke="#E4A317" stroke-width="0.5" stroke-miterlimit="10" x1="524.359" y1="118.998" x2="524.359" y2="188.998"/>
	
		<line fill="#FCC744" stroke="#FED97D" stroke-width="0.5" stroke-miterlimit="10" x1="755.68" y1="188.998" x2="755.68" y2="118.998"/>
	
		<line fill="#FCC744" stroke="#E4A317" stroke-width="0.5" stroke-miterlimit="10" x1="755.211" y1="188.935" x2="755.211" y2="118.935"/>
	<line fill="none" stroke="#1D1D1D" stroke-width="4" stroke-miterlimit="10" x1="14.75" y1="19" x2="54.75" y2="19"/>
	<line fill="none" stroke="#1D1D1D" stroke-width="4" stroke-miterlimit="10" x1="14.75" y1="35" x2="54.75" y2="35"/>
	<line fill="none" stroke="#1D1D1D" stroke-width="4" stroke-miterlimit="10" x1="14.75" y1="51" x2="54.75" y2="51"/>
	<text transform="matrix(1 0 0 1 215 39)" fill="#7A7979" font-family="'Verdana'" font-size="16">Rechercher dans le calendrier...</text>
	<text transform="matrix(1 0 0 1 535.4014 165.4922)" fill="#FCC744" font-family="'Verdana-Bold'" font-size="36">Avril 2013</text>
	<text transform="matrix(1 0 0 1 474.0566 165.4922)" fill="#FCC744" font-family="'Verdana-Bold'" font-size="36">&lt;</text>
	<text transform="matrix(-1 0 0 -1 799.7754 142.3208)" fill="#FCC744" font-family="'Verdana-Bold'" font-size="36">&lt;</text>
	<rect x="841.652" y="0.031" fill="#FCC744" width="97.264" height="70"/>
	<rect x="939.15" y="0.031" fill="#FCC744" width="143.516" height="70"/>
	<rect x="1082.9" y="0.031" fill="#FCC744" width="101.6" height="70"/>
	<rect x="1184.266" y="0.031" fill="#1D1D1D" width="95.734" height="70"/>
	<rect x="653.499" y="0.031" fill="#FCC744" width="188.055" height="70"/>
	
		<line fill="#FCC744" stroke="#FED97D" stroke-width="0.5" stroke-miterlimit="10" x1="840.987" y1="-0.031" x2="840.987" y2="69.969"/>
	
		<line fill="#FCC744" stroke="#E4A317" stroke-width="0.5" stroke-miterlimit="10" x1="841.456" y1="0.031" x2="841.456" y2="70.031"/>
	<g>
		
			<line fill="#FCC744" stroke="#FED97D" stroke-width="0.5" stroke-miterlimit="10" x1="939.15" y1="70.031" x2="939.15" y2="0.031"/>
		
			<line fill="#FCC744" stroke="#E4A317" stroke-width="0.5" stroke-miterlimit="10" x1="938.682" y1="69.969" x2="938.682" y2="-0.031"/>
	</g>
	<g>
		
			<line fill="#FCC744" stroke="#FED97D" stroke-width="0.5" stroke-miterlimit="10" x1="1082.9" y1="70.031" x2="1082.9" y2="0.031"/>
		
			<line fill="#FCC744" stroke="#E4A317" stroke-width="0.5" stroke-miterlimit="10" x1="1082.432" y1="69.969" x2="1082.432" y2="-0.031"/>
	</g>
	<g>
		
			<line fill="#FCC744" stroke="#FED97D" stroke-width="0.5" stroke-miterlimit="10" x1="1184.734" y1="70.031" x2="1184.734" y2="0.031"/>
		
			<line fill="#FCC744" stroke="#E4A317" stroke-width="0.5" stroke-miterlimit="10" x1="1184.266" y1="69.969" x2="1184.266" y2="-0.031"/>
	</g>
	<text transform="matrix(1 0 0 1 695.2666 45.5259)" fill="#1D1D1D" font-family="'Verdana'" font-size="18">Aujourd’hui</text>
	<text transform="matrix(1 0 0 1 869.2852 45.5259)" fill="#1D1D1D" font-family="'Verdana'" font-size="18">Jour</text>
	<text transform="matrix(1 0 0 1 975.6758 45.5259)" fill="#1D1D1D" font-family="'Verdana'" font-size="18">Semaine</text>
	<text transform="matrix(1 0 0 1 1113.4521 45.5259)" fill="#1D1D1D" font-family="'Verdana'" font-size="18">Mois</text>
	<path fill-rule="evenodd" clip-rule="evenodd" fill="#7A7979" d="M597.419,15.5c0.822,0,1.645,0,2.467,0
		c5.326,0.661,9.057,3.566,11.063,7.8c2.112,4.458,1.494,11.305-1.751,14.406c1.055,1.121,2.143,2.209,3.264,3.263
		c1.475-1.248,3.044,0.975,3.979,1.911c2.509,2.508,5.289,5.405,7.641,7.641c0,0.159,0,0.318,0,0.478
		c-1.2,1.134-2.368,2.302-3.502,3.502c-0.266,0-0.53,0-0.796,0c-2.231-2.259-4.935-5.014-7.481-7.561
		c-0.92-0.919-3.164-2.264-1.91-3.9c-1.055-1.121-2.143-2.209-3.264-3.264c-3.173,3.09-9.993,3.722-14.406,1.592
		c-4.123-1.99-6.962-5.866-7.641-11.063c0-0.796,0-1.592,0-2.388C586.178,20.761,590.325,16.656,597.419,15.5z M590.972,21.549
		c-1.542,1.562-2.78,3.439-3.024,6.606c-0.531,6.9,4.956,12.03,11.223,11.7c3.329-0.175,6.859-2.108,8.675-5.173
		c1.865-3.148,2.108-7.448,0.159-10.825c-1.71-2.964-5.159-5.945-10.426-5.412C594.744,18.732,592.51,19.991,590.972,21.549z"/>
	<rect x="110.118" y="27.614" fill="none" width="220.489" height="71.997"/>
	<text transform="matrix(1 0 0 1 110.1177 39.7739)" font-family="'Verdana'" font-size="16">Créer</text>
	<g>
		<path fill-rule="evenodd" clip-rule="evenodd" fill="#FCC744" d="M1232.435,16.149c1.923,0,3.847,0,5.77,0
			c0.41,2.444,0.668,5.04,1.116,7.444c0.272,0.596,1.271,0.467,1.675,0.931c2.266-1.395,4.372-2.948,6.328-4.652
			c1.412,1.379,2.992,2.591,4.094,4.28c-1.683,1.853-3.062,4.01-4.652,5.955c0.216,0.653,0.732,1.005,0.744,1.861
			c2.493,0.361,5.065,0.642,7.444,1.117c0,1.861,0,3.722,0,5.583c-2.329,0.339-4.619,0.716-7.072,0.931
			c-0.695,0.296-0.51,1.475-1.116,1.861c1.48,2.242,3.1,4.344,4.839,6.328c-1.269,1.461-2.679,2.781-4.095,4.094
			c-2.101-1.559-4.195-3.125-6.327-4.652c-0.693,0.238-1.267,0.594-2.047,0.744c-0.264,2.714-0.812,5.144-1.117,7.816
			c-1.861,0-3.722,0-5.583,0c-0.528-2.388-0.812-5.019-1.116-7.63c-0.216-0.59-1.223-0.391-1.489-0.93
			c-2.438,1.283-4.376,3.068-6.513,4.652c-1.598-1.132-2.963-2.497-4.095-4.094c1.565-2.033,3.163-4.033,4.652-6.142
			c-0.1-0.707-0.581-1.032-0.558-1.861c-2.664-0.377-5.378-0.702-8.003-1.117c0-1.861,0-3.722,0-5.583
			c2.477-0.439,5.075-0.756,7.63-1.117c0.617-0.251,0.528-1.208,0.931-1.675c-1.318-2.341-3.108-4.211-4.652-6.328
			c1.193-1.474,2.714-2.62,3.908-4.094c2.151,1.509,4.237,3.082,6.327,4.652c0.77-0.162,1.278-0.583,2.047-0.744
			C1231.628,21.049,1232.272,18.84,1232.435,16.149z M1230.016,38.295c2.186,5.189,10.854,3.938,11.166-2.047
			c0.199-3.82-2.895-6.098-5.955-5.955C1231.141,30.483,1228.315,34.26,1230.016,38.295z"/>
	</g>
</g>
</svg>
