<?xml version="1.0" encoding="utf-8"?>
<!-- Generator: Adobe Illustrator 16.0.0, SVG Export Plug-In . SVG Version: 6.00 Build 0)  -->
<!DOCTYPE svg PUBLIC "-//W3C//DTD SVG 1.1//EN" "http://www.w3.org/Graphics/SVG/1.1/DTD/svg11.dtd">
<svg version="1.1" id="Calque_1" xmlns="http://www.w3.org/2000/svg" xmlns:xlink="http://www.w3.org/1999/xlink" x="0px" y="0px"
	 width="960px" height="560px" viewBox="0 0 960 560" enable-background="new 0 0 960 560" xml:space="preserve">
<polygon id="planningsvg" fill="#445565" points="-5,-141 -5,470 -5,655 1083,655 1083,-141 "/>
<path fill="#EE3332" d="M931.5,117h-533c-6.627,0-12.5,4.873-12.5,11.5V167h557v-38.5C943,121.873,938.127,117,931.5,117z"/>
<path fill="#EEEEEE" stroke="#C9C9C9" stroke-miterlimit="10" d="M690,167.5h-50h-51h-51h-51h-51h-49.235
	c-0.171,0-0.265,1.142-0.265,2v363c0,6.627,5.373,12,12,12h531c6.627,0,12-5.373,12-12v-363c0-0.858-0.094-2-0.265-2H690z"/>



<path fill="#FFFFFF" stroke="#000000" stroke-miterlimit="10" d="M-158.5,144.5c0,6.627-5.373,12-12,12h-333
	c-6.627,0-12-5.373-12-12v-236c0-6.627,5.373-12,12-12h333c6.627,0,12,5.373,12,12V144.5z"/>
<g>
	<path fill="#EE3332" d="M361.5,168h-333c-6.627,0-12.5,4.873-12.5,11.5V238h51v-1v1h51v-1v1h51v-1v1h51v-1v1h51v-1v1h50v-1v1h52
		v-58.5C373,172.873,368.127,168,361.5,168z"/>
	<rect x="219.5" y="238.5" fill="#EEEEEE" stroke="#C9C9C9" stroke-miterlimit="10" width="51" height="39"/>
	<rect x="15.5" y="238.5" fill="#FFFFFF" stroke="#C9C9C9" stroke-miterlimit="10" width="51" height="39"/>
	<rect x="66.5" y="238.5" fill="#EEEEEE" stroke="#C9C9C9" stroke-miterlimit="10" width="51" height="39"/>
	<rect x="117.5" y="238.5" fill="#EEEEEE" stroke="#C9C9C9" stroke-miterlimit="10" width="51" height="39"/>
	<rect x="168.5" y="238.5" fill="#EEEEEE" stroke="#C9C9C9" stroke-miterlimit="10" width="51" height="39"/>
	<rect x="270.5" y="238.5" fill="#EEEEEE" stroke="#C9C9C9" stroke-miterlimit="10" width="50" height="39"/>
	<rect x="320.5" y="238.5" fill="#EEEEEE" stroke="#C9C9C9" stroke-miterlimit="10" width="52" height="39"/>
	<rect x="320.5" y="277.5" fill="#EEEEEE" stroke="#C9C9C9" stroke-miterlimit="10" width="52" height="38"/>
	<rect x="15.5" y="277.5" fill="#EEEEEE" stroke="#C9C9C9" stroke-miterlimit="10" width="51" height="38"/>
	<rect x="66.5" y="277.5" fill="#EE3332" stroke="#C9C9C9" stroke-miterlimit="10" width="51" height="38"/>
	<rect x="117.5" y="277.5" fill="#EEEEEE" stroke="#C9C9C9" stroke-miterlimit="10" width="51" height="38"/>
	<rect x="168.5" y="277.5" fill="#EEEEEE" stroke="#C9C9C9" stroke-miterlimit="10" width="51" height="38"/>
	<rect x="219.5" y="277.5" fill="#EEEEEE" stroke="#C9C9C9" stroke-miterlimit="10" width="51" height="38"/>
	<rect x="270.5" y="277.5" fill="#EEEEEE" stroke="#C9C9C9" stroke-miterlimit="10" width="50" height="38"/>
	<rect x="320.5" y="315.5" fill="#EEEEEE" stroke="#C9C9C9" stroke-miterlimit="10" width="52" height="37"/>
	<rect x="15.5" y="315.5" fill="#EEEEEE" stroke="#C9C9C9" stroke-miterlimit="10" width="51" height="37"/>
	<rect x="66.5" y="315.5" fill="#EEEEEE" stroke="#C9C9C9" stroke-miterlimit="10" width="51" height="37"/>
	<rect x="117.5" y="315.5" fill="#EEEEEE" stroke="#C9C9C9" stroke-miterlimit="10" width="51" height="37"/>
	<rect x="168.5" y="315.5" fill="#EEEEEE" stroke="#C9C9C9" stroke-miterlimit="10" width="51" height="37"/>
	<rect x="219.5" y="315.5" fill="#EEEEEE" stroke="#C9C9C9" stroke-miterlimit="10" width="51" height="37"/>
	<rect x="270.5" y="315.5" fill="#EEEEEE" stroke="#C9C9C9" stroke-miterlimit="10" width="50" height="37"/>
	<rect x="117.5" y="352.5" fill="#EEEEEE" stroke="#C9C9C9" stroke-miterlimit="10" width="51" height="38"/>
	<rect x="15.5" y="352.5" fill="#EEEEEE" stroke="#C9C9C9" stroke-miterlimit="10" width="51" height="38"/>
	<rect x="66.5" y="352.5" fill="#EEEEEE" stroke="#C9C9C9" stroke-miterlimit="10" width="51" height="38"/>
	<rect x="168.5" y="352.5" fill="#EEEEEE" stroke="#C9C9C9" stroke-miterlimit="10" width="51" height="38"/>
	<rect x="219.5" y="352.5" fill="#EEEEEE" stroke="#C9C9C9" stroke-miterlimit="10" width="51" height="38"/>
	<rect x="270.5" y="352.5" fill="#EEEEEE" stroke="#C9C9C9" stroke-miterlimit="10" width="50" height="38"/>
	<rect x="320.5" y="352.5" fill="#EEEEEE" stroke="#C9C9C9" stroke-miterlimit="10" width="52" height="38"/>
	<path fill="#EEEEEE" stroke="#C9C9C9" stroke-miterlimit="10" d="M15.5,390.5v25c0,6.627,6.373,13,13,13h38v-38H15.5z"/>
	<rect x="66.5" y="390.5" fill="#EEEEEE" stroke="#C9C9C9" stroke-miterlimit="10" width="51" height="38"/>
	<rect x="117.5" y="390.5" fill="#EEEEEE" stroke="#C9C9C9" stroke-miterlimit="10" width="51" height="38"/>
	<rect x="168.5" y="390.5" fill="#EEEEEE" stroke="#C9C9C9" stroke-miterlimit="10" width="51" height="38"/>
	<rect x="219.5" y="390.5" fill="#FFFFFF" stroke="#C9C9C9" stroke-miterlimit="10" width="51" height="38"/>
	<rect x="270.5" y="390.5" fill="#FFFFFF" stroke="#C9C9C9" stroke-miterlimit="10" width="50" height="38"/>
	<path fill="#FFFFFF" stroke="#C9C9C9" stroke-miterlimit="10" d="M320.5,390.5v38h41c6.627,0,11-6.373,11-13v-25H320.5z"/>
	<rect x="129.482" y="192.289" fill="none" width="139.455" height="31.574"/>
	<text id="dateMois" transform="matrix(1 0 0 1 129.4814 214.7056)" fill="#FFFFFF" font-family="'MyriadPro-Regular'" font-size="31.5746">OCTOBRE</text>
	<polygon onclick="suivMois()" fill="#EEEEEE" stroke="#C9C9C9" stroke-miterlimit="10" points="329.5,192.699 352.5,205.978 329.5,219.257 	"/>
	<polygon onclick="precMois()" fill="#EEEEEE" stroke="#C9C9C9" stroke-miterlimit="10" points="58.5,219.257 35.5,205.979 58.5,192.699 	"/>
	<rect x="80.333" y="282.53" fill="none" width="23.627" height="28.255"/>
	<text transform="matrix(1 0 0 1 85.71 308.8311)" font-family="'Mission-Script'" font-size="33.7043" letter-spacing="2">8</text>
	<rect x="131.167" y="283.53" fill="none" width="23.627" height="28.255"/>
	<text transform="matrix(1 0 0 1 138.3125 309.8311)" font-family="'Mission-Script'" font-size="33.7043" letter-spacing="3">1</text>
	<rect x="182" y="283.53" fill="none" width="23.627" height="28.255"/>
	<text transform="matrix(1 0 0 1 189.146 309.8311)" font-family="'Mission-Script'" font-size="33.7043" letter-spacing="3">1</text>
	<rect x="232.833" y="283.53" fill="none" width="23.627" height="28.255"/>
	<text transform="matrix(1 0 0 1 239.9795 309.8311)" font-family="'Mission-Script'" font-size="33.7043" letter-spacing="3">1</text>
	<rect x="283.667" y="283.53" fill="none" width="23.627" height="28.255"/>
	<text transform="matrix(1 0 0 1 290.8125 309.8311)" font-family="'Mission-Script'" font-size="33.7043" letter-spacing="3">1</text>
	<rect x="334.5" y="283.53" fill="none" width="23.627" height="28.255"/>
	<text transform="matrix(1 0 0 1 341.644 309.8311)" font-family="'Mission-Script'" font-size="33.7043" letter-spacing="3">1</text>
	<rect x="29.5" y="283.53" fill="none" width="23.627" height="28.255"/>
	<text transform="matrix(1 0 0 1 36.644 309.8311)" font-family="'Mission-Script'" font-size="33.7043" letter-spacing="3">1</text>
	<rect x="82.02" y="243.872" fill="none" width="23.627" height="28.255"/>
	<text transform="matrix(1 0 0 1 89.166 270.1729)" font-family="'Mission-Script'" font-size="33.7043" letter-spacing="2">1</text>
	<rect x="132.853" y="243.872" fill="none" width="23.627" height="28.255"/>
	<text transform="matrix(1 0 0 1 139.999 270.1729)" font-family="'Mission-Script'" font-size="33.7043" letter-spacing="3">1</text>
	<rect x="183.687" y="243.872" fill="none" width="23.627" height="28.255"/>
	<text transform="matrix(1 0 0 1 190.8325 270.1729)" font-family="'Mission-Script'" font-size="33.7043" letter-spacing="3">1</text>
	<rect x="234.52" y="243.872" fill="none" width="23.627" height="28.255"/>
	<text transform="matrix(1 0 0 1 241.666 270.1729)" font-family="'Mission-Script'" font-size="33.7043" letter-spacing="3">1</text>
	<rect x="285.353" y="243.872" fill="none" width="23.627" height="28.255"/>
	<text transform="matrix(1 0 0 1 292.499 270.1729)" font-family="'Mission-Script'" font-size="33.7043" letter-spacing="3">1</text>
	<rect x="336.187" y="243.872" fill="none" width="23.627" height="28.255"/>
	<text transform="matrix(1 0 0 1 343.3306 270.1729)" font-family="'Mission-Script'" font-size="33.7043" letter-spacing="3">1</text>
	<rect x="31.187" y="243.872" fill="none" width="23.627" height="28.255"/>
	<text transform="matrix(1 0 0 1 38.3306 270.1729)" font-family="'Mission-Script'" font-size="33.7043" letter-spacing="3">1</text>
	<rect x="78.52" y="320.373" fill="none" width="23.627" height="28.254"/>
	<text transform="matrix(1 0 0 1 85.666 346.6738)" font-family="'Mission-Script'" font-size="33.7043" letter-spacing="2">1</text>
	<rect x="129.353" y="320.373" fill="none" width="23.627" height="28.254"/>
	<text transform="matrix(1 0 0 1 136.499 346.6738)" font-family="'Mission-Script'" font-size="33.7043" letter-spacing="3">1</text>
	<rect x="180.187" y="320.373" fill="none" width="23.627" height="28.254"/>
	<text transform="matrix(1 0 0 1 187.3325 346.6738)" font-family="'Mission-Script'" font-size="33.7043" letter-spacing="3">1</text>
	<rect x="231.02" y="320.373" fill="none" width="23.627" height="28.254"/>
	<text transform="matrix(1 0 0 1 238.166 346.6738)" font-family="'Mission-Script'" font-size="33.7043" letter-spacing="3">1</text>
	<rect x="281.853" y="320.373" fill="none" width="23.627" height="28.254"/>
	<text transform="matrix(1 0 0 1 288.999 346.6738)" font-family="'Mission-Script'" font-size="33.7043" letter-spacing="3">1</text>
	<rect x="332.687" y="320.373" fill="none" width="23.627" height="28.254"/>
	<text transform="matrix(1 0 0 1 339.8306 346.6738)" font-family="'Mission-Script'" font-size="33.7043" letter-spacing="3">1</text>
	<rect x="27.687" y="320.373" fill="none" width="23.627" height="28.254"/>
	<text transform="matrix(1 0 0 1 34.8306 346.6738)" font-family="'Mission-Script'" font-size="33.7043" letter-spacing="3">1</text>
	<rect x="78.52" y="358.873" fill="none" width="23.627" height="28.254"/>
	<text transform="matrix(1 0 0 1 85.666 385.1738)" font-family="'Mission-Script'" font-size="33.7043" letter-spacing="2">1</text>
	<rect x="129.353" y="358.873" fill="none" width="23.627" height="28.254"/>
	<text transform="matrix(1 0 0 1 136.499 385.1738)" font-family="'Mission-Script'" font-size="33.7043" letter-spacing="3">1</text>
	<rect x="180.187" y="358.873" fill="none" width="23.627" height="28.254"/>
	<text transform="matrix(1 0 0 1 187.3325 385.1738)" font-family="'Mission-Script'" font-size="33.7043" letter-spacing="3">1</text>
	<rect x="231.02" y="358.873" fill="none" width="23.627" height="28.254"/>
	<text transform="matrix(1 0 0 1 238.166 385.1738)" font-family="'Mission-Script'" font-size="33.7043" letter-spacing="3">1</text>
	<rect x="281.853" y="358.873" fill="none" width="23.627" height="28.254"/>
	<text transform="matrix(1 0 0 1 288.999 385.1738)" font-family="'Mission-Script'" font-size="33.7043" letter-spacing="3">1</text>
	<rect x="332.687" y="358.873" fill="none" width="23.627" height="28.254"/>
	<text transform="matrix(1 0 0 1 339.8306 385.1738)" font-family="'Mission-Script'" font-size="33.7043" letter-spacing="3">1</text>
	<rect x="27.687" y="358.873" fill="none" width="23.627" height="28.254"/>
	<text transform="matrix(1 0 0 1 34.8306 385.1738)" font-family="'Mission-Script'" font-size="33.7043" letter-spacing="3">1</text>
	<rect x="79.02" y="394.373" fill="none" width="23.627" height="28.254"/>
	<text transform="matrix(1 0 0 1 86.166 420.6738)" font-family="'Mission-Script'" font-size="33.7043" letter-spacing="2">1</text>
	<rect x="129.853" y="394.373" fill="none" width="23.627" height="28.254"/>
	<text transform="matrix(1 0 0 1 136.999 420.6738)" font-family="'Mission-Script'" font-size="33.7043" letter-spacing="3">1</text>
	<rect x="180.687" y="394.373" fill="none" width="23.627" height="28.254"/>
	<text transform="matrix(1 0 0 1 187.8325 420.6738)" font-family="'Mission-Script'" font-size="33.7043" letter-spacing="3">1</text>
	<rect x="231.52" y="394.373" fill="none" width="23.627" height="28.254"/>
	<text transform="matrix(1 0 0 1 238.666 420.6738)" font-family="'Mission-Script'" font-size="33.7043" letter-spacing="3">1</text>
	<rect x="282.353" y="394.373" fill="none" width="23.627" height="28.254"/>
	<text transform="matrix(1 0 0 1 289.499 420.6738)" font-family="'Mission-Script'" font-size="33.7043" letter-spacing="3">1</text>
	<rect x="333.187" y="394.373" fill="none" width="23.627" height="28.254"/>
	<text transform="matrix(1 0 0 1 340.3306 420.6738)" font-family="'Mission-Script'" font-size="33.7043" letter-spacing="3">1</text>
	<rect x="28.187" y="394.373" fill="none" width="23.627" height="28.254"/>
	<text transform="matrix(1 0 0 1 35.3306 420.6738)" font-family="'Mission-Script'" font-size="33.7043" letter-spacing="3">1</text>
</g>
<line fill="none" stroke="#C9C9C9" stroke-width="2" stroke-miterlimit="10" x1="438" y1="169" x2="438" y2="527"/>
<line fill="none" stroke="#C9C9C9" stroke-width="2" stroke-miterlimit="10" x1="480" y1="169" x2="480" y2="527"/>
<line fill="none" stroke="#C9C9C9" stroke-width="2" stroke-miterlimit="10" x1="522" y1="168" x2="522" y2="526"/>
<line fill="none" stroke="#C9C9C9" stroke-width="2" stroke-miterlimit="10" x1="564" y1="168" x2="564" y2="526"/>
<line fill="none" stroke="#C9C9C9" stroke-width="2" stroke-miterlimit="10" x1="606" y1="168" x2="606" y2="526"/>
<line fill="none" stroke="#C9C9C9" stroke-width="2" stroke-miterlimit="10" x1="648" y1="168" x2="648" y2="526"/>
<line fill="none" stroke="#C9C9C9" stroke-width="2" stroke-miterlimit="10" x1="690" y1="168" x2="690" y2="526"/>
<line fill="none" stroke="#C9C9C9" stroke-width="2" stroke-miterlimit="10" x1="732" y1="168" x2="732" y2="526"/>
<line fill="none" stroke="#C9C9C9" stroke-width="2" stroke-miterlimit="10" x1="774" y1="168" x2="774" y2="526"/>
<line fill="none" stroke="#C9C9C9" stroke-width="2" stroke-miterlimit="10" x1="816" y1="168" x2="816" y2="526"/>
<line fill="none" stroke="#C9C9C9" stroke-width="2" stroke-miterlimit="10" x1="858" y1="168" x2="858" y2="526"/>
<line fill="none" stroke="#C9C9C9" stroke-width="2" stroke-miterlimit="10" x1="900" y1="168" x2="900" y2="526"/>
<rect x="439" y="270" fill="#EE3332" width="208" height="62"/>
<rect x="691" y="344" fill="#EE3332" width="125" height="51"/>
<g id="logo">
	<path fill="#EE3332" d="M167,59.019c0,4.408-3.573,7.981-7.981,7.981H24.981C20.573,67,17,63.427,17,59.019V27.981
		C17,23.573,20.573,20,24.981,20h134.037c4.408,0,7.981,3.573,7.981,7.981V59.019z"/>
	<g>
		<path d="M38.817,27.388c0.735,0,1.432,0.426,1.432,1.316c0,2.671-0.89,10.374-0.774,19.741c3.406-8.399,5.613-15.793,6.387-18.541
			c0.155-1.858,0.62-2.864,2.052-2.864c0.735,0,1.432,0.426,1.432,1.316c0,1.509-1.471,15.173-1.471,20.476
			c0,2.207,0.193,3.639,0.696,3.639c0.968,0,2.013-2.477,3.484-5.535c0.232-0.464,0.503-0.697,0.697-0.697
			c0.155,0,0.232,0.116,0.232,0.387c0,0.155-0.039,0.426-0.155,0.697c-1.161,2.864-2.632,7.819-5.767,7.819
			c-1.974,0-2.632-3.716-2.632-8.593c0-3.212,0.31-6.967,0.658-10.451c-1.355,4.8-3.445,11.264-5.574,16.799
			c-0.271,0.735-1.123,1.123-1.936,1.123c-0.697,0-1.316-0.271-1.354-0.968c-0.116-1.703-0.232-4.529-0.232-7.858
			c0-2.98,0.077-6.348,0.31-9.676c-2.903,10.103-5.226,17.302-5.922,18.773c-0.193,0.387-0.464,0.542-0.813,0.542
			c-0.658,0-1.432-0.697-1.432-1.51c0-1.277,4.722-8.709,8.67-23.457c0,0,0.077-0.387,0.154-0.967
			C37.114,27.891,37.966,27.388,38.817,27.388z"/>
		<path d="M62.081,50.496c-1.51,2.671-3.561,4.567-5.768,4.567c-3.096,0-4.374-2.903-4.374-6.464c0-2.865,0.736-5.651,1.742-7.78
			c0.31-0.697,0.968-1.626,1.935-1.471c0.736-2.438,2.323-4.296,4.761-4.296c3.097,0,4.374,2.632,4.374,5.961
			c0,2.671-0.774,5.768-2.051,8.361c1.393-0.039,2.864-0.697,3.793-2.438c0.232-0.387,0.426-0.658,0.697-0.658
			c0.116,0,0.232,0.077,0.232,0.271c0,0.155-0.039,0.387-0.154,0.697C66.765,48.677,64.713,50.496,62.081,50.496z M59.488,50.109
			c-2.052-0.696-3.213-2.284-3.833-4.142c-0.271,1.239-0.426,2.516-0.426,3.639c0,2.051,0.503,3.6,1.781,3.6
			c0.116,0,0.232,0,0.349-0.039C58.094,53.051,58.83,51.851,59.488,50.109z M57.436,43.103c0,2.284,0.697,4.567,2.516,5.651
			c0.852-2.749,1.471-6.232,1.471-8.748c0-2.013-0.348-3.484-1.277-3.484C58.83,36.522,57.436,39.735,57.436,43.103z"/>
		<path d="M67.152,55.141c-0.813,0-1.703-0.581-1.703-1.742c0-0.116,0.039-0.232,0.039-0.348c0.697-5.806,1.587-9.715,3.406-15.909
			c0.194-0.697,0.813-1.006,1.432-1.006c0.929,0,1.897,0.658,1.897,1.78c0,1.006-0.658,2.594-0.891,3.6
			c1.587-3.639,3.562-6.464,5.574-6.464c2.284,0,2.865,2.09,2.865,3.522c0,4.374-3.755,11.07-3.755,13.432
			c0,0.503,0.194,0.812,0.62,0.812c1.703,0,4.374-5.109,4.838-5.883c0.232-0.387,0.542-0.658,0.735-0.658
			c0.116,0,0.193,0.077,0.193,0.271c0,0.155-0.039,0.387-0.155,0.697c-0.464,1.394-3.29,7.896-6.658,7.896
			c-1.548,0-3.019-1.084-3.019-3.406c0-3.484,3.716-10.49,3.716-13.083c0-0.503-0.194-0.929-0.62-0.929
			c-1.432,0-4.838,6-6.348,13.006L69.203,51c-0.193,1.083-0.349,2.013-0.464,2.864C68.584,54.715,67.887,55.141,67.152,55.141z"/>
		<path d="M86.312,51c0-1.2,0.774-2.787,2.167-2.478c1.936-2.942,4.026-7.316,5.148-9.715c-0.387-1.045-0.581-2.09-0.581-3.097
			c0-2.593,1.2-4.684,2.671-4.684c0.929,0,1.432,0.658,1.432,1.742c0,1.432-0.813,3.677-2.438,6.271
			c0.852,2.787,2.98,6.619,2.98,9.715c0,1.354-0.271,2.671-0.929,3.793c1.548-1.162,2.09-2.632,3.793-5.613
			c0.232-0.426,0.464-0.619,0.658-0.619c0.155,0,0.232,0.155,0.232,0.426c0,0.155-0.039,0.348-0.116,0.581
			c-2.012,4.955-4.18,7.741-9.173,7.741C87.821,55.063,86.312,52.857,86.312,51z M89.447,49.064c0.426,0.465,0.387,1.2,0.387,3.135
			c0,1.277,0.426,1.974,1.354,1.974c1.277,0,2.826-1.316,2.826-6.193c0-1.316-0.155-3.948-0.271-6.309
			C92.505,44.535,90.608,47.361,89.447,49.064z"/>
		<path d="M103.576,50.767c0,1.045,0.271,1.625,0.852,1.625c2.245,0,3.716-7.47,5.458-15.483c0.271-1.277,1.2-1.858,2.129-1.858
			c0.852,0,1.665,0.581,1.665,1.587c0,1.549-3.251,12.387-3.251,15.058c0,0.696,0.155,1.045,0.503,1.045
			c1.394,0,3.755-4.955,4.181-5.806c0.232-0.464,0.464-0.658,0.658-0.658c0.154,0,0.271,0.116,0.271,0.387
			c0,0.155-0.039,0.387-0.155,0.658c-0.542,1.354-3.058,7.703-6.309,7.703c-1.161,0-2.555-0.619-2.632-3.251
			c-1.045,2.013-2.322,3.251-3.909,3.251c-2.168,0-2.903-1.665-2.903-4.142c0-3.755,1.626-9.367,2.4-14.012
			c0.193-1.2,1.199-1.742,2.09-1.742c0.852,0,1.665,0.503,1.665,1.432c0,0.116,0,0.271-0.039,0.387
			C105.008,43.103,103.576,48.251,103.576,50.767z"/>
		<path d="M116.852,54.328c-1.006,4.606-1.819,8.671-1.935,10.064c-0.077,0.929-0.735,1.161-1.432,1.161
			c-0.813,0-1.665-0.426-1.665-1.664c0-1.277,3.91-20.825,5.419-26.283c0.271-0.968,1.045-1.394,1.781-1.394
			c0.852,0,1.665,0.542,1.665,1.471c0,0.155,0,0.271-0.31,1.548c1.122-2.438,2.516-4.142,4.18-4.142c2.361,0,3.329,2.284,3.329,5.07
			c0,4.567-2.439,10.916-5.652,13.586c3.523-0.774,5.613-2.98,7.471-6.812c0.194-0.426,0.426-0.619,0.62-0.619
			c0.154,0,0.271,0.155,0.271,0.426c0,0.193-0.039,0.348-0.117,0.581c-1.974,4.877-4.567,7.857-10.218,7.857
			C118.478,55.18,117.433,54.792,116.852,54.328z M117.355,52.238c0.426,0,0.929,0.232,1.471,0.89
			c2.632-0.464,5.303-8.903,5.303-13.044c0-1.394-0.31-2.207-1.006-2.207c-1.509,0-3.213,3.793-4.49,8.748L117.355,52.238z"/>
		<path d="M141.587,39.348c0,3.716-2.787,8.942-6.89,8.942c-0.464,0-0.968-0.078-1.471-0.232c0,1.703,0.155,4.645,2.555,4.645
			c3.677,0,5.651-4.181,6.658-5.768c0.232-0.387,0.426-0.542,0.62-0.542c0.154,0,0.271,0.155,0.271,0.387
			c0,0.155-0.039,0.348-0.116,0.542c-1.742,4.335-4.451,7.741-8.903,7.741c-3.329,0-4.683-3.019-4.683-6.696
			c0-5.768,3.329-13.238,7.393-13.238c0.852,0,1.742,0.271,2.207,0.658C140.852,35.981,141.587,37.452,141.587,39.348z
			 M133.613,47.051c2.284,0,5.574-6.116,5.574-9.135c0-0.619-0.077-1.277-0.658-1.277c-2.207,0-4.761,5.729-5.226,10.374
			C133.419,47.051,133.497,47.051,133.613,47.051z"/>
		<path d="M144.452,53.864c-0.155,0.852-0.774,1.277-1.433,1.277c-0.735,0-1.471-0.542-1.471-1.703
			c0-2.129,1.316-10.335,3.058-16.296c0.194-0.658,0.813-0.968,1.471-0.968c0.89,0,1.896,0.62,1.896,1.703
			c0,0.658-0.464,1.626-0.658,2.322c1.393-2.98,3.097-5.148,4.993-5.148c1.432,0,1.974,0.852,1.974,2.516
			c0,2.167-1.433,4.606-1.665,6.851c-0.078,0.852-0.658,1.239-1.354,1.239c-0.891,0-1.897-0.735-1.897-1.974
			c0-2.322,1.587-4.335,1.587-5.535c0-0.271-0.116-0.464-0.387-0.464c-1.316,0-4.49,5.535-5.496,12.077L144.452,53.864z"/>
	</g>
	<g>
		<path fill="#FFFFFF" d="M54.208,110.479h-6.159c-1.291,0-1.76-0.352-2.229-1.76l-1.643-4.634H29.805l-1.643,4.634
			c-0.469,1.408-0.938,1.76-2.229,1.76h-6.16c-1.29,0-1.29-0.938-0.997-1.642L31.8,73.7c0.469-1.232,1.114-1.818,2.405-1.818h5.631
			c1.291,0,1.877,0.586,2.405,1.818l12.964,35.138C55.498,109.541,55.498,110.479,54.208,110.479z M41.42,95.873l-4.399-12.964
			l-4.4,12.964H41.42z"/>
		<path fill="#FFFFFF" d="M90.812,90.652v8.506c-0.528,8.447-9.092,12.201-15.779,12.201c-6.922,0-15.78-3.52-15.78-12.729V84.2
			c0-9.268,8.858-13.198,15.78-13.198c7.333,0,15.779,4.223,15.779,12.084c0,1.408-0.352,1.643-1.701,1.643h-5.69
			c-1.642,0-1.408-1.173-1.701-1.995c-0.645-1.818-2.757-3.578-6.687-3.578c-3.872,0-6.453,2.581-6.453,6.335v11.79
			c0,3.754,2.581,5.925,6.453,5.925c3.813,0,6.511-1.76,6.511-6.277h-5.279c-1.349,0-1.701-0.645-1.701-1.701v-4.576
			c0-1.056,0.352-1.701,1.701-1.701h12.846C90.46,88.952,90.812,89.597,90.812,90.652z"/>
		<path fill="#FFFFFF" d="M128.003,103.968v4.81c0,1.056-0.352,1.701-1.701,1.701h-26.28c-1.349,0-1.701-0.645-1.701-1.701V73.583
			c0-1.056,0.352-1.701,1.701-1.701h25.283c1.349,0,1.701,0.646,1.701,1.701v4.869c0,1.056-0.352,1.701-1.701,1.701h-17.715v6.394
			h15.721c1.35,0,1.702,0.645,1.702,1.701v4.575c0,1.056-0.352,1.701-1.702,1.701h-15.721v7.744h18.712
			C127.651,102.268,128.003,102.912,128.003,103.968z"/>
		<path fill="#FFFFFF" d="M166.426,73.583v35.196c0,1.056-0.352,1.701-1.701,1.701h-5.338c-1.466,0-1.877-0.821-2.64-1.994
			l-12.436-20.121v20.414c0,1.349-0.645,1.701-1.701,1.701h-5.807c-1.056,0-1.701-0.352-1.701-1.701V73.583
			c0-1.056,0.352-1.701,1.701-1.701h5.514c1.466,0,1.877,0.821,2.64,1.994l12.436,20.062V73.583c0-1.349,0.646-1.701,1.701-1.701
			h5.631C165.781,71.881,166.426,72.233,166.426,73.583z"/>
		<path fill="#FFFFFF" d="M205.729,85.08v12.201c0,9.21-8.799,13.199-15.78,13.199h-13.14c-1.349,0-1.701-0.645-1.701-1.701V73.583
			c0-1.056,0.352-1.701,1.701-1.701h13.14C196.93,71.881,205.729,75.929,205.729,85.08z M196.519,85.901
			c0-3.695-2.698-5.866-6.57-5.866h-5.631v22.291h5.631c3.872,0,6.57-2.111,6.57-5.866V85.901z"/>
		<path fill="#FFFFFF" d="M245.441,110.479h-6.159c-1.291,0-1.76-0.352-2.229-1.76l-1.643-4.634h-14.372l-1.643,4.634
			c-0.469,1.408-0.938,1.76-2.229,1.76h-6.159c-1.291,0-1.291-0.938-0.997-1.642L223.034,73.7c0.469-1.232,1.114-1.818,2.405-1.818
			h5.631c1.291,0,1.877,0.586,2.405,1.818l12.964,35.138C246.732,109.541,246.732,110.479,245.441,110.479z M232.654,95.873
			l-4.399-12.964l-4.4,12.964H232.654z"/>
	</g>
</g>
<g>
	<path fill="#EE3332" d="M-194,372c0,6.627-5.373,12-12,12h-202c-6.627,0-12-5.373-12-12v-46c0-6.627,5.373-12,12-12h202
		c6.627,0,12,5.373,12,12V372z"/>
	<rect x="-400.001" y="324.35" fill="none" width="242.497" height="77.6"/>
	<text transform="matrix(1 0 0 1 -400.001 366.3105)" font-family="'Mission-Script'" font-size="58.1987">Mon super</text>
	<rect x="-419" y="392" fill="none" width="367.492" height="117.598"/>
	<text transform="matrix(1 0 0 1 -419.0039 450.0371)" fill="#FFFFFF" font-family="'Archive'" font-size="88.1974">agenda</text>
</g>
<rect x="548.76" y="130.807" fill="none" width="228.748" height="30.37"/>
<text transform="matrix(1 0 0 1 548.7598 152.3711)" fill="#FFFFFF" font-family="'MyriadPro-Regular'" font-size="30.3711">Mardi 8 OCTOBRE</text>
<polygon fill="#EEEEEE" stroke="#C9C9C9" stroke-miterlimit="10" points="898.5,129.699 921.5,142.978 898.5,156.257 "/>
<polygon fill="#EEEEEE" stroke="#C9C9C9" stroke-miterlimit="10" points="427.5,156.257 404.5,142.979 427.5,129.699 "/>
<path fill="#EE3332" d="M370,453.5c0-6.627-4.873-11.5-11.5-11.5h-333c-6.627,0-12.5,4.873-12.5,11.5V470h357V453.5z"/>
<path fill="#EEEEEE" stroke="#C9C9C9" stroke-miterlimit="10" d="M13.5,469.5v64c0,6.627,5.373,12,12,12h333c6.627,0,12-5.373,12-12
	v-64H13.5z"/>
<rect x="402.5" y="177.5" fill="none" width="189" height="101"/>
<rect x="403.5" y="174.846" fill="none" width="19.5" height="14.5"/>
<text transform="matrix(1 0 0 1 408.375 184.2192)" font-family="'Mission-Script'" font-size="13">8h</text>
<rect x="445.688" y="174.846" fill="none" width="19.5" height="14.5"/>
<text transform="matrix(1 0 0 1 450.7188 184.2192)" font-family="'Mission-Script'" font-size="13">9h</text>
<rect x="487.875" y="174.846" fill="none" width="19.5" height="14.5"/>
<text transform="matrix(1 0 0 1 490.6641 184.2192)" font-family="'Mission-Script'" font-size="13">10h</text>
<rect x="530.062" y="174.846" fill="none" width="19.5" height="14.5"/>
<text transform="matrix(1 0 0 1 533.8193 184.2192)" font-family="'Mission-Script'" font-size="13">11h</text>
<rect x="572.25" y="174.846" fill="none" width="19.5" height="14.5"/>
<text transform="matrix(1 0 0 1 575.4023 184.2192)" font-family="'Mission-Script'" font-size="13">12h</text>
<rect x="614.438" y="174.846" fill="none" width="19.5" height="14.5"/>
<text transform="matrix(1 0 0 1 617.5381 184.2192)" font-family="'Mission-Script'" font-size="13">13h</text>
<rect x="656.625" y="174.846" fill="none" width="19.5" height="14.5"/>
<text transform="matrix(1 0 0 1 659.8428 184.2192)" font-family="'Mission-Script'" font-size="13">14h</text>
<rect x="698.812" y="174.846" fill="none" width="19.5" height="14.5"/>
<text transform="matrix(1 0 0 1 701.9717 184.2192)" font-family="'Mission-Script'" font-size="13">15h</text>
<rect x="741" y="174.846" fill="none" width="19.5" height="14.5"/>
<text transform="matrix(1 0 0 1 744.2822 184.2192)" font-family="'Mission-Script'" font-size="13">17h</text>
<rect x="783.188" y="174.846" fill="none" width="19.5" height="14.5"/>
<text transform="matrix(1 0 0 1 786.2617 184.2192)" font-family="'Mission-Script'" font-size="13">18h</text>
<rect x="825.375" y="174.846" fill="none" width="19.5" height="14.5"/>
<text transform="matrix(1 0 0 1 828.6055 184.2192)" font-family="'Mission-Script'" font-size="13">19h</text>
<rect x="867.562" y="174.846" fill="none" width="19.5" height="14.5"/>
<text transform="matrix(1 0 0 1 869.7471 184.2192)" font-family="'Mission-Script'" font-size="13">20h</text>
<rect x="909.75" y="174.846" fill="none" width="19.5" height="14.5"/>
<text transform="matrix(1 0 0 1 912.9023 184.2192)" font-family="'Mission-Script'" font-size="13">21h</text>
<path fill="#EE3332" d="M939,32.362c0,4.218-3.42,7.638-7.638,7.638h-65.725C861.42,40,858,36.581,858,32.362v-8.725
	c0-4.218,3.42-7.638,7.638-7.638h65.725c4.218,0,7.638,3.419,7.638,7.638V32.362z"/>
<g>
	<rect x="867.256" y="23.319" fill="none" width="86.238" height="17.192"/>
	<text transform="matrix(1 0 0 1 867.2559 31.5879)" fill="#FFFFFF" font-family="'MyriadPro-Regular'" font-size="11.6462">Se connecter</text>
</g>
<g>
	<rect x="446.256" y="280.319" fill="none" width="75.238" height="17.192"/>
	<text transform="matrix(1 0 0 1 446.2559 288.5879)" fill="#FFFFFF" font-family="'MyriadPro-Regular'" font-size="11.6462">Algorithmique</text>
</g>
<g>
	<rect x="697.756" y="352.819" fill="none" width="75.238" height="17.192"/>
	<text transform="matrix(1 0 0 1 697.7559 361.0879)" fill="#FFFFFF" font-family="'MyriadPro-Regular'" font-size="11.6462">Ergonomie</text>
</g>
<rect x="133.427" y="447.141" fill="none" width="228.748" height="30.37"/>
<text transform="matrix(1 0 0 1 133.4268 463.4707)" fill="#FFFFFF" font-family="'MyriadPro-Regular'" font-size="23">ACTUALITÉS</text>
<rect x="24.998" y="479.667" fill="none" width="333.333" height="50.667"/>
<text transform="matrix(1 0 0 1 24.998 488.1865)" font-family="'MyriadPro-Regular'" font-size="12">Aucun changement n’a été effectué sur votre emploi du temps.</text>
</svg>
