<?xml version="1.0" encoding="utf-8"?>
<!-- Generator: Adobe Illustrator 16.0.0, SVG Export Plug-In . SVG Version: 6.00 Build 0)  -->
<!DOCTYPE svg PUBLIC "-//W3C//DTD SVG 1.1//EN" "http://www.w3.org/Graphics/SVG/1.1/DTD/svg11.dtd">
<svg version="1.1" xmlns="http://www.w3.org/2000/svg" xmlns:xlink="http://www.w3.org/1999/xlink" x="0px" y="0px" width="200px"
	 height="400px" viewBox="0 0 200 400" enable-background="new 0 0 200 400" xml:space="preserve">
<g id="Calque_1">
	<rect fill="#A5A5A5" width="200" height="43.79"/>
	<text transform="matrix(1 0 0 1 53.8423 28.7363)" font-family="'ComicSansMS'" font-size="24">Lundi 11</text>
	<text transform="matrix(1 0 0 1 182.5264 29.9473)" font-family="'BordersDivide,ButHeartsShallConquer'" font-size="24">&gt;</text>
</g>
<g id="Calque_2">
	<rect y="43.79" fill="#DFBAB9" width="200" height="130.526"/>
	<text transform="matrix(1 0 0 1 22.3999 75.4297)"><tspan x="0" y="0" font-family="'ComicSansMS'" font-size="16">Ergonomie visuelle</tspan><tspan x="64.922" y="19.2" font-family="'ComicSansMS'" font-size="16">-</tspan><tspan x="37.531" y="38.4" font-family="'ComicSansMS'" font-size="16">9h - 12h</tspan><tspan x="64.922" y="57.6" font-family="'ComicSansMS'" font-size="16">-</tspan><tspan x="14.465" y="76.8" font-family="'ComicSansMS'" font-size="16">Joelle COHEN</tspan></text>
	<line fill="none" x1="168.947" y1="20.579" x2="191.053" y2="20.579"/>
	<circle fill="none" cx="27.474" cy="229.578" r="13.684"/>
	<rect x="0" y="174.316" fill="#C19A9A" width="200" height="112.631"/>
	<rect x="0" y="286.947" fill="#A58484" width="200" height="113.053"/>
	<text transform="matrix(1 0 0 1 23.2632 201.7891)"><tspan x="0" y="0" fill="#FFFFFF" font-family="'ComicSansMS'" font-size="20">Cours</tspan><tspan x="0" y="30" font-family="'ComicSansMS'" font-size="15">Chapitre I</tspan><tspan x="0" y="48" font-family="'ComicSansMS'" font-size="15">Chapitre II</tspan><tspan x="0" y="66" font-family="'ComicSansMS'" font-size="15">Chapitre III</tspan></text>
	<text transform="matrix(1 0 0 1 16.4736 313.1055)" fill="#FFFFFF" font-family="'ComicSansMS'" font-size="20">Actualités</text>
	<text transform="matrix(1 0 0 1 16.8423 330.7891)"><tspan x="0" y="0" font-family="'ComicSansMS'" font-size="10">Changement de cours</tspan><tspan x="0" y="12" font-family="'ComicSansMS'" font-size="10">Le cours d’ergonomie visuelle du</tspan><tspan x="0" y="24" font-family="'ComicSansMS'" font-size="10">07 novembre 2013 sera remplaçé</tspan><tspan x="0" y="36" font-family="'ComicSansMS'" font-size="10">par le cours d’Algorithmique de </tspan><tspan x="0" y="48" font-family="'ComicSansMS'" font-size="10">9h à 13h.</tspan></text>
	<rect x="182.526" y="43.79" fill="#D3D3D3" width="17.474" height="356.21"/>
	<text transform="matrix(1 0 0 1 185.8955 221.8945)" font-family="'ComicSansMS'" font-size="25">&gt;</text>
</g>
</svg>
