<?xml version="1.0" encoding="utf-8"?>
<!-- Generator: Adobe Illustrator 16.0.0, SVG Export Plug-In . SVG Version: 6.00 Build 0)  -->
<!DOCTYPE svg PUBLIC "-//W3C//DTD SVG 1.1//EN" "http://www.w3.org/Graphics/SVG/1.1/DTD/svg11.dtd">
<svg version="1.1" id="Calque_1" xmlns="http://www.w3.org/2000/svg" xmlns:xlink="http://www.w3.org/1999/xlink" x="0px" y="0px"
	 width="800px" height="600px" viewBox="0 0 800 600" enable-background="new 0 0 800 600" xml:space="preserve">
<rect x="-19" y="-9" fill="#464654" width="840" height="616"/>
<circle opacity="0.1" fill="#FFB3F1" cx="88.869" cy="327.592" r="47.248"/>
<circle opacity="0.5" fill="#F975D7" cx="166.869" cy="308.592" r="69.248"/>
<g opacity="0.5">
	<rect x="131.496" y="285.737" fill="none" width="91.78" height="29.803"/>
	<text transform="matrix(1 0 0 1 131.4961 294.4082)"><tspan x="0" y="0" fill="#FFFFFF" font-family="'FranklinGothic-Book'" font-size="13">Méth. et Outils</tspan><tspan x="31.153" y="15.6" fill="#FFFFFF" font-family="'FranklinGothic-Book'" font-size="13">F</tspan><tspan x="37.755" y="15.6" fill="#FFFFFF" font-family="'FranklinGothic-Book'" font-size="13">206</tspan></text>
	<rect x="126.463" y="261.205" fill="none" width="137.873" height="75.129"/>
	<text transform="matrix(1 0 0 1 126.4634 275.2114)"><tspan x="0" y="0" fill="#FFFFFF" font-family="'FranklinGothic-Book'" font-size="21">10</tspan><tspan x="24.63" y="0" fill="#FFFFFF" font-family="'FranklinGothic-Book'" font-size="21">h - </tspan><tspan x="51.721" y="0" fill="#FFFFFF" font-family="'FranklinGothic-Book'" font-size="21">13</tspan><tspan x="76.351" y="0" fill="#FFFFFF" font-family="'FranklinGothic-Book'" font-size="21">h</tspan></text>
	<rect x="130.719" y="325.578" fill="none" width="129.361" height="32.637"/>
	<text transform="matrix(1 0 0 1 130.7197 339.5859)"><tspan x="0" y="0" fill="#FFFFFF" font-family="'FranklinGothic-Book'" font-size="21">14</tspan><tspan x="24.63" y="0" fill="#FFFFFF" font-family="'FranklinGothic-Book'" font-size="21">h - </tspan><tspan x="51.721" y="0" fill="#FFFFFF" font-family="'FranklinGothic-Book'" font-size="21">16</tspan><tspan x="76.351" y="0" fill="#FFFFFF" font-family="'FranklinGothic-Book'" font-size="21">h</tspan></text>
	<rect x="118.356" y="344.865" fill="none" width="104.767" height="58.047"/>
	<text transform="matrix(1 0 0 1 126.4111 353.5381)"><tspan x="0" y="0" fill="#FFFFFF" font-family="'FranklinGothic-Book'" font-size="13">Th. de la Comm.</tspan><tspan x="29.129" y="15.6" fill="#FFFFFF" font-family="'FranklinGothic-Book'" font-size="13">C</tspan><tspan x="36.657" y="15.6" fill="#FFFFFF" font-family="'FranklinGothic-Book'" font-size="13">100</tspan></text>
</g>
<circle opacity="0.8" fill="#FC49C6" cx="259.869" cy="303.592" r="93.248"/>
<circle opacity="0.1" fill="#FFB3F1" cx="711.869" cy="327.592" r="47.248"/>
<circle opacity="0.5" fill="#F975D7" cx="629.869" cy="314.592" r="69.248"/>
<g opacity="0.5">
	<rect x="596.119" y="290.414" fill="none" width="91.627" height="26.065"/>
	<text transform="matrix(1 0 0 1 596.1191 299.085)"><tspan x="0" y="0" fill="#FFFFFF" font-family="'FranklinGothic-Book'" font-size="13">Méth. et Outils</tspan><tspan x="31.077" y="15.6" fill="#FFFFFF" font-family="'FranklinGothic-Book'" font-size="13">F</tspan><tspan x="37.679" y="15.6" fill="#FFFFFF" font-family="'FranklinGothic-Book'" font-size="13">206</tspan></text>
	<rect x="591.086" y="265.883" fill="none" width="137.873" height="75.129"/>
	<text transform="matrix(1 0 0 1 591.0869 279.8892)"><tspan x="0" y="0" fill="#FFFFFF" font-family="'FranklinGothic-Book'" font-size="21">10</tspan><tspan x="24.63" y="0" fill="#FFFFFF" font-family="'FranklinGothic-Book'" font-size="21">h - </tspan><tspan x="51.721" y="0" fill="#FFFFFF" font-family="'FranklinGothic-Book'" font-size="21">13</tspan><tspan x="76.351" y="0" fill="#FFFFFF" font-family="'FranklinGothic-Book'" font-size="21">h</tspan></text>
	<rect x="595.342" y="330.256" fill="none" width="129.361" height="32.637"/>
	<text transform="matrix(1 0 0 1 595.3428 344.2637)"><tspan x="0" y="0" fill="#FFFFFF" font-family="'FranklinGothic-Book'" font-size="21">14</tspan><tspan x="24.63" y="0" fill="#FFFFFF" font-family="'FranklinGothic-Book'" font-size="21">h - </tspan><tspan x="51.721" y="0" fill="#FFFFFF" font-family="'FranklinGothic-Book'" font-size="21">16</tspan><tspan x="76.351" y="0" fill="#FFFFFF" font-family="'FranklinGothic-Book'" font-size="21">h</tspan></text>
	<rect x="582.979" y="349.543" fill="none" width="104.768" height="58.047"/>
	<text transform="matrix(1 0 0 1 591.0342 358.2158)"><tspan x="0" y="0" fill="#FFFFFF" font-family="'FranklinGothic-Book'" font-size="13">Th. de la Comm.</tspan><tspan x="29.129" y="15.6" fill="#FFFFFF" font-family="'FranklinGothic-Book'" font-size="13">C</tspan><tspan x="36.657" y="15.6" fill="#FFFFFF" font-family="'FranklinGothic-Book'" font-size="13">100</tspan></text>
</g>
<circle opacity="0.8" fill="#FC49C6" cx="531.869" cy="303.592" r="93.248"/>
<g opacity="0.8">
	<rect x="470.604" y="265.935" fill="none" width="121.008" height="52.129"/>
	<text transform="matrix(1 0 0 1 470.6055 277.2729)"><tspan x="0" y="0" fill="#FFFFFF" font-family="'FranklinGothic-Book'" font-size="17">Méth. et Outils</tspan><tspan x="41.232" y="20.4" fill="#FFFFFF" font-family="'FranklinGothic-Book'" font-size="17">F</tspan><tspan x="49.865" y="20.4" fill="#FFFFFF" font-family="'FranklinGothic-Book'" font-size="17">206</tspan></text>
	<rect x="485.319" y="235.856" fill="none" width="137.873" height="75.129"/>
	<text transform="matrix(1 0 0 1 485.3193 253.8638)"><tspan x="0" y="0" fill="#FFFFFF" font-family="'FranklinGothic-Book'" font-size="27">10</tspan><tspan x="31.667" y="0" fill="#FFFFFF" font-family="'FranklinGothic-Book'" font-size="27">h - </tspan><tspan x="66.498" y="0" fill="#FFFFFF" font-family="'FranklinGothic-Book'" font-size="27">13</tspan><tspan x="98.165" y="0" fill="#FFFFFF" font-family="'FranklinGothic-Book'" font-size="27">h</tspan></text>
	<rect x="480" y="316.548" fill="none" width="129.361" height="32.636"/>
	<text transform="matrix(1 0 0 1 480 334.5566)"><tspan x="0" y="0" fill="#FFFFFF" font-family="'FranklinGothic-Book'" font-size="27">14</tspan><tspan x="31.668" y="0" fill="#FFFFFF" font-family="'FranklinGothic-Book'" font-size="27">h - </tspan><tspan x="66.498" y="0" fill="#FFFFFF" font-family="'FranklinGothic-Book'" font-size="27">16</tspan><tspan x="98.166" y="0" fill="#FFFFFF" font-family="'FranklinGothic-Book'" font-size="27">h</tspan></text>
	<rect x="477.212" y="336.583" fill="none" width="104.767" height="58.046"/>
	<text transform="matrix(1 0 0 1 499.0527 347.9229)"><tspan x="0" y="0" fill="#FFFFFF" font-family="'FranklinGothic-Book'" font-size="17">Th. de la </tspan><tspan x="5.242" y="20.4" fill="#FFFFFF" font-family="'FranklinGothic-Book'" font-size="17">Comm.</tspan><tspan x="10.666" y="40.8" fill="#FFFFFF" font-family="'FranklinGothic-Book'" font-size="17">C</tspan><tspan x="20.512" y="40.8" fill="#FFFFFF" font-family="'FranklinGothic-Book'" font-size="17">100</tspan></text>
</g>
<g opacity="0.8">
	<rect x="195.706" y="266.241" fill="none" width="121.008" height="52.129"/>
	<text transform="matrix(1 0 0 1 195.7065 277.5786)"><tspan x="0" y="0" fill="#FFFFFF" font-family="'FranklinGothic-Book'" font-size="17">Méth. et Outils</tspan><tspan x="41.233" y="20.4" fill="#FFFFFF" font-family="'FranklinGothic-Book'" font-size="17">F</tspan><tspan x="49.866" y="20.4" fill="#FFFFFF" font-family="'FranklinGothic-Book'" font-size="17">206</tspan></text>
	<rect x="210.421" y="236.162" fill="none" width="137.873" height="75.129"/>
	<text transform="matrix(1 0 0 1 210.4214 254.1689)"><tspan x="0" y="0" fill="#FFFFFF" font-family="'FranklinGothic-Book'" font-size="27">10</tspan><tspan x="31.667" y="0" fill="#FFFFFF" font-family="'FranklinGothic-Book'" font-size="27">h - </tspan><tspan x="66.498" y="0" fill="#FFFFFF" font-family="'FranklinGothic-Book'" font-size="27">13</tspan><tspan x="98.165" y="0" fill="#FFFFFF" font-family="'FranklinGothic-Book'" font-size="27">h</tspan></text>
	<rect x="205.102" y="316.854" fill="none" width="129.361" height="32.636"/>
	<text transform="matrix(1 0 0 1 205.1021 334.8623)"><tspan x="0" y="0" fill="#FFFFFF" font-family="'FranklinGothic-Book'" font-size="27">14</tspan><tspan x="31.667" y="0" fill="#FFFFFF" font-family="'FranklinGothic-Book'" font-size="27">h - </tspan><tspan x="66.498" y="0" fill="#FFFFFF" font-family="'FranklinGothic-Book'" font-size="27">16</tspan><tspan x="98.165" y="0" fill="#FFFFFF" font-family="'FranklinGothic-Book'" font-size="27">h</tspan></text>
	<rect x="202.313" y="336.889" fill="none" width="104.767" height="58.046"/>
	<text transform="matrix(1 0 0 1 224.1548 348.2285)"><tspan x="0" y="0" fill="#FFFFFF" font-family="'FranklinGothic-Book'" font-size="17">Th. de la </tspan><tspan x="5.242" y="20.4" fill="#FFFFFF" font-family="'FranklinGothic-Book'" font-size="17">Comm.</tspan><tspan x="10.666" y="40.8" fill="#FFFFFF" font-family="'FranklinGothic-Book'" font-size="17">C</tspan><tspan x="20.511" y="40.8" fill="#FFFFFF" font-family="'FranklinGothic-Book'" font-size="17">100</tspan></text>
</g>
<circle fill="#FF15AB" cx="387.369" cy="303.092" r="119.748"/>
<g opacity="0.6">
	<path fill="#FF15AB" d="M492,134.199c-1.566,0.907-0.907,5.673,0,7.24c0.93,1.605,25.438,9.145,25.436,14.624
		c-0.002,5.486-24.511,13.014-25.436,14.612c-0.908,1.569-1.569,6.344,0,7.252c4.749,2.749,38.058-16.377,38.06-21.864
		C530.062,150.584,496.753,131.445,492,134.199z"/>
	<g opacity="0.6">
		<path fill="#FF15AB" d="M532.32,143.417c-0.911,0.529-0.528,3.303,0,4.215c0.542,0.935,14.81,5.324,14.808,8.513
			c0,3.194-14.269,7.576-14.808,8.507c-0.528,0.913-0.913,3.693,0,4.222c2.766,1.6,22.156-9.534,22.157-12.729
			C554.479,152.956,535.088,141.813,532.32,143.417z"/>
	</g>
</g>
<rect x="311.5" y="152.344" fill="none" width="281" height="62"/>
<text transform="matrix(1 0 0 1 311.5 167.6851)"><tspan x="0" y="0" fill="#FFFFFF" font-family="'FranklinGothic-Book'" font-size="23">4</tspan><tspan x="13.488" y="0" fill="#FFFFFF" font-family="'FranklinGothic-Book'" font-size="23"> Novembre </tspan><tspan x="125.006" y="0" fill="#FFFFFF" font-family="'FranklinGothic-Book'" font-size="23">2013</tspan></text>
<rect x="314.346" y="255.024" fill="none" width="151.647" height="53.403"/>
<text transform="matrix(1 0 0 1 314.3457 270.3652)"><tspan x="0" y="0" fill="#FFFFFF" font-family="'FranklinGothic-Book'" font-size="23">Méth. et Outils</tspan><tspan x="49.752" y="27.6" fill="#FFFFFF" font-family="'FranklinGothic-Book'" font-size="23">F</tspan><tspan x="61.432" y="27.6" fill="#FFFFFF" font-family="'FranklinGothic-Book'" font-size="23">206</tspan></text>
<rect x="325.108" y="222.435" fill="none" width="143.783" height="101"/>
<text transform="matrix(1 0 0 1 325.1084 243.7788)"><tspan x="0" y="0" fill="#FFFFFF" font-family="'FranklinGothic-Book'" font-size="32">10</tspan><tspan x="37.531" y="0" fill="#FFFFFF" font-family="'FranklinGothic-Book'" font-size="32">h - </tspan><tspan x="78.813" y="0" fill="#FFFFFF" font-family="'FranklinGothic-Book'" font-size="32">13</tspan><tspan x="116.344" y="0" fill="#FFFFFF" font-family="'FranklinGothic-Book'" font-size="32">h</tspan></text>
<path fill="none" d="M507.117,304c0,66-53.613,119.748-119.748,119.748S267.622,370,267.622,304H507.117z"/>
<rect x="309.713" y="353.184" fill="none" width="162.109" height="89.816"/>
<text transform="matrix(1 0 0 1 312.3389 368.5244)"><tspan x="0" y="0" fill="#FFFFFF" font-family="'FranklinGothic-Book'" font-size="23">Th. de la Comm.</tspan><tspan x="51.537" y="27.6" fill="#FFFFFF" font-family="'FranklinGothic-Book'" font-size="23">C</tspan><tspan x="64.856" y="27.6" fill="#FFFFFF" font-family="'FranklinGothic-Book'" font-size="23">100</tspan></text>
<rect x="321.278" y="323.34" fill="none" width="143.783" height="101"/>
<text transform="matrix(1 0 0 1 321.2783 344.6836)"><tspan x="0" y="0" fill="#FFFFFF" font-family="'FranklinGothic-Book'" font-size="32">14</tspan><tspan x="37.531" y="0" fill="#FFFFFF" font-family="'FranklinGothic-Book'" font-size="32">h - </tspan><tspan x="78.813" y="0" fill="#FFFFFF" font-family="'FranklinGothic-Book'" font-size="32">16</tspan><tspan x="116.344" y="0" fill="#FFFFFF" font-family="'FranklinGothic-Book'" font-size="32">h</tspan></text>
<circle fill="#F975D7" cx="166.5" cy="81.5" r="12.5"/>
<circle fill="#F975D7" cx="200.542" cy="81.5" r="12.5"/>
<circle fill="#F975D7" cx="242.032" cy="81.5" r="12.5"/>
<circle fill="#F975D7" cx="280.33" cy="81.5" r="12.5"/>
<circle fill="#F975D7" cx="325.011" cy="81.5" r="12.5"/>
<circle fill="#F975D7" cx="363.309" cy="81.5" r="12.5"/>
<circle fill="#F975D7" cx="402.67" cy="81.5" r="12.5"/>
<circle fill="#F975D7" cx="440.969" cy="81.5" r="12.5"/>
<circle fill="#F975D7" cx="480.969" cy="81.5" r="12.5"/>
<circle fill="#F975D7" cx="519.266" cy="81.5" r="12.5"/>
<circle fill="#FF15AB" cx="560.756" cy="81.5" r="12.5"/>
<circle fill="#F975D7" cx="599.053" cy="81.5" r="12.5"/>
<rect x="599" y="19" fill="#664E61" width="151" height="33"/>
<g>
	
		<ellipse transform="matrix(-0.7252 0.6885 -0.6885 -0.7252 1284.6028 -425.9201)" fill="#F975D7" cx="727.29" cy="43.371" rx="7.234" ry="1.492"/>
	<path fill="#F975D7" d="M737.774,24c-5.14,0-9.308,4.167-9.308,9.308c0,5.14,4.168,9.308,9.308,9.308
		c5.141,0,9.308-4.167,9.308-9.308C747.082,28.167,742.915,24,737.774,24z M737.812,40.54c-4.106,0-7.435-3.329-7.435-7.435
		s3.328-7.435,7.435-7.435s7.435,3.329,7.435,7.435S741.918,40.54,737.812,40.54z"/>
</g>
<g>
	<rect x="760" y="28" fill="#FFB3F1" width="32" height="5"/>
	<rect x="760" y="42" fill="#FFB3F1" width="32" height="5"/>
	<rect x="760" y="35" fill="#FFB3F1" width="32" height="5"/>
</g>
<rect x="353.675" y="124.344" fill="none" width="189" height="86"/>
<text transform="matrix(1 0 0 1 353.6748 147.6885)" fill="#FFFFFF" font-family="'FranklinGothic-Book'" font-size="35">Lundi</text>
<path opacity="0.1" fill="#FFB3F1" d="M591.604,462h-186.96l-0.253-0.299l-18.96-32.771l-18.96,32.735L366.217,462H202.509
	c-5.804,0-10.509,4.983-10.509,10.787v93.704c0,5.804,4.705,10.509,10.509,10.509h389.095c5.804,0,10.396-4.705,10.396-10.509
	v-93.704C602,466.983,597.407,462,591.604,462z"/>
<rect x="207.721" y="474" fill="none" width="414.898" height="73"/>
<text transform="matrix(1 0 0 1 207.7207 490.0078)" opacity="0.8" fill="#FFFFFF" font-family="'FranklinGothic-Book'" font-size="24">Informations </text>
<rect x="206.809" y="502.965" fill="none" width="384.795" height="156"/>
<text transform="matrix(1 0 0 1 206.8086 515.6377)"><tspan x="0" y="0" fill="#FFFFFF" font-family="'FranklinGothic-Book'" font-size="19">truc truc truc truc truc truc truc truc truc truc </tspan><tspan x="0" y="22.8" fill="#FFFFFF" font-family="'FranklinGothic-Book'" font-size="19">truc truc</tspan></text>
<g opacity="0.6">
	<path fill="#FF15AB" d="M300.531,134.199c1.566,0.907,0.907,5.673,0,7.24c-0.93,1.605-25.438,9.145-25.436,14.624
		c0.002,5.486,24.511,13.014,25.436,14.612c0.908,1.569,1.569,6.344,0,7.252c-4.749,2.749-38.058-16.377-38.06-21.864
		C262.47,150.584,295.778,131.445,300.531,134.199z"/>
	<g opacity="0.6">
		<path fill="#FF15AB" d="M260.211,143.417c0.911,0.529,0.528,3.303,0,4.215c-0.542,0.935-14.81,5.324-14.808,8.513
			c0,3.194,14.269,7.576,14.808,8.507c0.528,0.913,0.913,3.693,0,4.222c-2.766,1.6-22.156-9.534-22.157-12.729
			C238.053,152.956,257.443,141.813,260.211,143.417z"/>
	</g>
</g>
<rect x="162" y="78.166" fill="none" width="13.287" height="14.5"/>
<text transform="matrix(1 0 0 1 162.0005 86.8369)" font-family="'FranklinGothic-Book'" font-size="13">1</text>
<rect x="196.543" y="78.666" fill="none" width="13.287" height="14.5"/>
<text transform="matrix(1 0 0 1 196.543 87.3369)" font-family="'FranklinGothic-Book'" font-size="13">2</text>
<rect x="238.054" y="78.166" fill="none" width="13.287" height="14.5"/>
<text transform="matrix(1 0 0 1 238.0537 86.8369)" font-family="'FranklinGothic-Book'" font-size="13">3</text>
<rect x="275.21" y="78.166" fill="none" width="13.287" height="14.5"/>
<text transform="matrix(1 0 0 1 275.21 86.8369)" font-family="'FranklinGothic-Book'" font-size="13">4</text>
<rect x="320.876" y="78.666" fill="none" width="13.287" height="14.5"/>
<text transform="matrix(1 0 0 1 320.8765 87.3369)" font-family="'FranklinGothic-Book'" font-size="13">5</text>
<rect x="358.209" y="78.666" fill="none" width="13.287" height="14.5"/>
<text transform="matrix(1 0 0 1 358.2095 87.3369)" font-family="'FranklinGothic-Book'" font-size="13">6</text>
<rect x="399" y="78.166" fill="none" width="13.287" height="14.5"/>
<text transform="matrix(1 0 0 1 399.0005 86.8369)" font-family="'FranklinGothic-Book'" font-size="13">7</text>
<rect x="436.209" y="78.666" fill="none" width="13.287" height="14.5"/>
<text transform="matrix(1 0 0 1 436.209 87.3369)" font-family="'FranklinGothic-Book'" font-size="13">8</text>
<rect x="476.853" y="78.666" fill="none" width="13.287" height="14.5"/>
<text transform="matrix(1 0 0 1 476.8525 87.3369)" font-family="'FranklinGothic-Book'" font-size="13">9</text>
<rect x="511.772" y="78.666" fill="none" width="31.483" height="12.334"/>
<text transform="matrix(1 0 0 1 511.7725 87.3369)" font-family="'FranklinGothic-Book'" font-size="13">10</text>
<rect x="553.356" y="78.666" fill="none" width="20.978" height="15.334"/>
<text transform="matrix(1 0 0 1 553.3564 87.3369)" font-family="'FranklinGothic-Book'" font-size="13">11</text>
<rect x="590.875" y="77.494" fill="none" width="35.908" height="17.678"/>
<text transform="matrix(1 0 0 1 590.875 86.165)" font-family="'FranklinGothic-Book'" font-size="13">12</text>
<path fill-rule="evenodd" clip-rule="evenodd" fill="#E570C1" d="M589.82,471.278c-1.47,1.714-2.933,3.433-4.411,5.138
	c-0.782,0.901-1.695,1.707-2.366,2.683c-1.485,2.16-3.764,3.089-5.994,4.12c-0.143,0.065-0.302,0.107-0.458,0.127
	c-0.108,0.014-0.226-0.027-0.429-0.059c0-0.268-0.063-0.546,0.01-0.783c0.721-2.389,1.421-4.724,3.312-6.606
	c2.249-2.241,4.257-4.731,6.301-7.171c0.728-0.867,1.454-0.932,2.258-0.326c0.624,0.471,1.21,1.035,1.667,1.664
	c0.206,0.286,0.059,0.829,0.07,1.256c-0.429-0.761-0.705-1.688-1.317-2.247c-1.114-1.017-1.692-0.87-2.671,0.251
	c-2.383,2.729-4.827,5.405-7.114,8.211c-0.748,0.918-1.16,2.141-1.586,3.276c-0.283,0.757,0.468,1.568,1.17,1.278
	c0.976-0.403,2.032-0.856,2.754-1.586c2.321-2.347,4.497-4.839,6.75-7.255C588.411,472.557,589.133,471.934,589.82,471.278z"/>
<path fill-rule="evenodd" clip-rule="evenodd" fill="none" d="M589.82,471.278c-0.688,0.655-1.409,1.278-2.056,1.971
	c-2.253,2.416-4.429,4.908-6.75,7.255c-0.722,0.729-1.778,1.183-2.754,1.586c-0.702,0.29-1.453-0.521-1.17-1.278
	c0.426-1.136,0.838-2.358,1.586-3.276c2.287-2.806,4.731-5.482,7.114-8.211c0.979-1.121,1.557-1.268,2.671-0.251
	c0.612,0.559,0.889,1.486,1.317,2.247C589.78,471.319,589.82,471.278,589.82,471.278z M586.682,469.869
	c-2.684,3.027-5.31,5.966-7.888,8.946c-0.179,0.207-0.14,0.811,0.034,1.075c0.462,0.703,0.993,0.751,1.604,0.028
	c2.418-2.861,4.878-5.688,7.316-8.53c0.069-0.081,0.077-0.216,0.138-0.397C587.522,470.652,587.148,470.304,586.682,469.869z"/>
<path fill-rule="evenodd" clip-rule="evenodd" fill="#E570C1" d="M586.682,469.869c0.467,0.435,0.841,0.783,1.205,1.122
	c-0.061,0.182-0.068,0.316-0.138,0.397c-2.438,2.843-4.898,5.669-7.316,8.53c-0.611,0.723-1.143,0.675-1.604-0.028
	c-0.174-0.265-0.213-0.868-0.034-1.075C581.372,475.835,583.998,472.896,586.682,469.869z"/>
</svg>
