<?xml version="1.0" encoding="utf-8"?>
<!-- Generator: Adobe Illustrator 16.0.0, SVG Export Plug-In . SVG Version: 6.00 Build 0)  -->
<!DOCTYPE svg PUBLIC "-//W3C//DTD SVG 1.1//EN" "http://www.w3.org/Graphics/SVG/1.1/DTD/svg11.dtd">
<svg version="1.1" id="Layer_1" xmlns="http://www.w3.org/2000/svg" xmlns:xlink="http://www.w3.org/1999/xlink" x="0px" y="0px"
	 width="1024px" height="768px" viewBox="0 0 1024 768" enable-background="new 0 0 1024 768" xml:space="preserve">
<rect x="43" y="204" fill="#3AAFDD" width="250" height="300"/>
<rect x="89" y="372" fill="#F7F11E" width="204" height="62"/>
<rect x="37.75" y="377.375" fill="none" width="67.5" height="57.25"/>
<text transform="matrix(1.4004 -0.5376 0.3584 0.9336 61.1187 431.0049)" fill="#FCEE21" font-family="'MyriadPro-Regular'" font-size="72" letter-spacing="16">!</text>
<rect x="64.5" y="226" fill="none" width="183" height="141.5"/>
<text transform="matrix(1 0 0 1 64.5 238.7798)"><tspan x="0" y="0" fill="#FFFFFF" font-family="'MyriadPro-Regular'" font-size="18">UE1-EC2</tspan><tspan x="0" y="38" fill="#FFFFFF" font-family="'MyriadPro-Regular'" font-size="18">titre</tspan><tspan x="0" y="76" fill="#FFFFFF" font-family="'MyriadPro-Regular'" font-size="18">Professeur</tspan><tspan x="0" y="114" fill="#FFFFFF" font-family="'MyriadPro-Regular'" font-size="18">Salle</tspan></text>
<polygon fill="#FFFFFF" points="248,487 276,487 276,458.313 268.121,458.281 268,451 248,451 "/>
<line fill="none" stroke="#FFFFFF" stroke-width="0.5" stroke-miterlimit="10" x1="267.828" y1="451.156" x2="275.781" y2="458.469"/>
<circle fill="none" stroke="#FFFFFF" stroke-width="3" stroke-miterlimit="10" cx="218.427" cy="461.056" r="10.672"/>
<rect x="203.523" y="466.706" transform="matrix(0.7826 0.6225 -0.6225 0.7826 341.7684 -24.1943)" fill="#FFFFFF" width="4" height="21"/>
<rect x="324" y="204" fill="#3AAFDD" width="216" height="40"/>
<rect x="541" y="204" fill="#999999" width="216" height="40"/>
<rect x="758" y="204" fill="#999999" width="216" height="40"/>
<rect x="324" y="245" fill="#999999" width="53" height="28"/>
<rect x="378" y="245" fill="#999999" width="53" height="28"/>
<rect x="433" y="245" fill="#3AAFDD" width="53" height="28"/>
<rect x="487" y="245" fill="#999999" width="53" height="28"/>
<rect x="541" y="245" fill="#999999" width="53" height="28"/>
<rect x="595" y="245" fill="#999999" width="53" height="28"/>
<rect x="650" y="245" fill="#999999" width="53" height="28"/>
<rect x="704" y="245" fill="#999999" width="53" height="28"/>
<rect x="758" y="245" fill="#999999" width="53" height="28"/>
<rect x="812" y="245" fill="#999999" width="53" height="28"/>
<rect x="867" y="245" fill="#999999" width="53" height="28"/>
<rect x="921" y="245" fill="#999999" width="53" height="28"/>
<rect x="324" y="278" fill="#999999" width="91" height="226"/>
<rect x="417" y="278" fill="#999999" width="91" height="226"/>
<rect x="510" y="278" fill="#999999" width="92" height="226"/>
<rect x="603" y="278" fill="#999999" width="92" height="226"/>
<rect x="696" y="278" fill="#3AAFDD" width="92" height="226"/>
<rect x="790" y="278" fill="#999999" width="91" height="226"/>
<rect x="883" y="278" fill="#999999" width="91" height="226"/>
<rect x="388.854" y="220.063" fill="none" width="95.813" height="14.938"/>
<text transform="matrix(1 0 0 1 388.854 232.8423)" fill="#FFFFFF" font-family="'MyriadPro-Regular'" font-size="18">NOVEMBRE</text>
<rect x="606.176" y="220.198" fill="none" width="95.813" height="14.938"/>
<text transform="matrix(1 0 0 1 606.1758 232.9775)" fill="#FFFFFF" font-family="'MyriadPro-Regular'" font-size="18">DECEMBRE</text>
<rect x="829.176" y="220.198" fill="none" width="95.813" height="14.938"/>
<text transform="matrix(1 0 0 1 829.1758 232.9775)" fill="#FFFFFF" font-family="'MyriadPro-Regular'" font-size="18">JANVIER</text>
<rect x="343.28" y="287.125" fill="none" width="95.813" height="14.938"/>
<text transform="matrix(1 0 0 1 343.2803 299.9048)" fill="#FFFFFF" font-family="'MyriadPro-Regular'" font-size="18">Lundi</text>
<rect x="439.093" y="287.125" fill="none" width="95.813" height="14.938"/>
<text transform="matrix(1 0 0 1 439.0938 299.9048)" fill="#FFFFFF" font-family="'MyriadPro-Regular'" font-size="18">Mardi</text>
<rect x="521.104" y="287.125" fill="none" width="95.813" height="14.938"/>
<text transform="matrix(1 0 0 1 521.1035 299.9048)" fill="#FFFFFF" font-family="'MyriadPro-Regular'" font-size="18">Mercredi</text>
<rect x="628.593" y="287.125" fill="none" width="95.813" height="14.938"/>
<text transform="matrix(1 0 0 1 628.5938 299.9048)" fill="#FFFFFF" font-family="'MyriadPro-Regular'" font-size="18">Jeudi</text>
<rect x="709.094" y="287.125" fill="none" width="95.813" height="14.938"/>
<text transform="matrix(1 0 0 1 709.0938 299.9048)" fill="#FFFFFF" font-family="'MyriadPro-Regular'" font-size="18">Vendredi</text>
<rect x="806.76" y="287.125" fill="none" width="95.813" height="14.938"/>
<text transform="matrix(1 0 0 1 806.7598 299.9048)" fill="#FFFFFF" font-family="'MyriadPro-Regular'" font-size="18">Samedi</text>
<rect x="888.761" y="287.125" fill="none" width="95.813" height="14.938"/>
<text transform="matrix(1 0 0 1 888.7617 299.9048)" fill="#FFFFFF" font-family="'MyriadPro-Regular'" font-size="18">Dimanche</text>
<path fill="none" stroke="#3AAFDD" stroke-width="6" stroke-miterlimit="10" d="M57.307,165.103c1.374-0.698,2.928-1.09,4.574-1.09
	c5.588,0,10.119,4.53,10.119,10.119s-4.53,10.119-10.119,10.119c-5.386,0-9.789-4.208-10.101-9.515"/>
<polygon fill="#3AAFDD" points="60.742,170.933 51.696,168.196 54.529,158.839 "/>
<rect x="95.5" y="162.5" fill="none" stroke="#3AAFDD" stroke-width="3" stroke-miterlimit="10" width="197" height="23"/>
<polygon fill="#3AAFDD" points="282.543,168.087 289.426,174.564 282.724,181.683 "/>
<rect x="274" y="172" fill="#3AAFDD" width="12" height="6"/>
</svg>
