<?xml version="1.0" encoding="utf-8"?>
<!-- Generator: Adobe Illustrator 16.0.0, SVG Export Plug-In . SVG Version: 6.00 Build 0)  -->
<!DOCTYPE svg PUBLIC "-//W3C//DTD SVG 1.1//EN" "http://www.w3.org/Graphics/SVG/1.1/DTD/svg11.dtd">
<svg version="1.1" xmlns="http://www.w3.org/2000/svg" xmlns:xlink="http://www.w3.org/1999/xlink" x="0px" y="0px" width="1280px"
	 height="800px" viewBox="0 0 1280 800" enable-background="new 0 0 1280 800" xml:space="preserve">
<g id="Calque_1">
</g>
<g id="Calque_2">
</g>
<g id="Calque_3">
</g>
<g id="Calque_4">
	<rect x="-1" y="-0.072" fill="#4D4D4D" width="1281" height="70"/>
	<rect x="999" y="19.928" fill="#FFFFFF" width="267" height="35"/>
	<g>
		<rect x="1006.604" y="32.72" fill="none" width="219.896" height="17.208"/>
		<path fill="#B3B3B3" d="M1012.398,38.389l1.447,0.158c-0.093,0.867-0.428,1.582-1.006,2.143c-0.577,0.561-1.336,0.841-2.275,0.841
			c-0.791,0-1.434-0.198-1.927-0.597s-0.872-0.938-1.14-1.619c-0.266-0.681-0.399-1.432-0.399-2.253c0-1.32,0.313-2.394,0.939-3.222
			c0.626-0.827,1.487-1.24,2.583-1.24c0.859,0,1.574,0.264,2.146,0.793c0.57,0.529,0.931,1.287,1.078,2.272l-1.447,0.152
			c-0.266-1.308-0.854-1.962-1.764-1.962c-0.584,0-1.038,0.272-1.362,0.816c-0.323,0.543-0.485,1.332-0.485,2.364
			c0,1.05,0.174,1.842,0.521,2.378c0.347,0.535,0.806,0.803,1.378,0.803c0.457,0,0.846-0.18,1.168-0.54
			C1012.175,39.316,1012.356,38.888,1012.398,38.389z"/>
		<path fill="#B3B3B3" d="M1020.309,41.396h-1.447v-4.195c0-0.453-0.097-0.771-0.289-0.955c-0.193-0.184-0.418-0.276-0.676-0.276
			c-0.411,0-0.756,0.163-1.035,0.489c-0.279,0.325-0.419,0.863-0.419,1.611v3.326h-1.447v-8.664h1.447v3.377
			c0.36-0.922,0.99-1.384,1.892-1.384c1.316,0,1.975,0.755,1.975,2.267V41.396z"/>
		<path fill="#B3B3B3" d="M1026.123,39.354l1.307,0.178c-0.169,0.579-0.499,1.058-0.99,1.434c-0.49,0.377-1.105,0.565-1.847,0.565
			c-0.889,0-1.604-0.298-2.146-0.896c-0.541-0.596-0.813-1.404-0.813-2.424c0-0.97,0.273-1.771,0.818-2.406
			c0.547-0.635,1.287-0.952,2.223-0.952c0.914,0,1.62,0.313,2.119,0.939c0.5,0.626,0.75,1.431,0.75,2.412l-0.007,0.165h-4.399
			c0,0.436,0.042,0.785,0.124,1.047c0.083,0.263,0.247,0.491,0.492,0.686c0.245,0.195,0.552,0.293,0.921,0.293
			C1025.391,40.395,1025.873,40.047,1026.123,39.354z M1026.033,37.436c-0.004-0.461-0.143-0.838-0.415-1.129
			c-0.273-0.293-0.61-0.438-1.013-0.438c-0.398,0-0.73,0.136-0.996,0.409c-0.268,0.273-0.424,0.659-0.471,1.158H1026.033z"/>
		<path fill="#B3B3B3" d="M1030.313,41.396h-1.447v-6.41h1.307v1.529c0.187-0.597,0.443-1.033,0.769-1.308s0.66-0.413,1.003-0.413
			c0.047,0,0.109,0.002,0.19,0.007v1.556c-0.736,0-1.224,0.234-1.463,0.704s-0.358,0.925-0.358,1.364V41.396z"/>
		<path fill="#B3B3B3" d="M1036.813,39.042l1.244,0.127c-0.161,0.804-0.473,1.398-0.934,1.784c-0.461,0.385-1.018,0.577-1.67,0.577
			c-0.884,0-1.564-0.323-2.041-0.968c-0.475-0.646-0.713-1.436-0.713-2.371c0-0.965,0.26-1.763,0.78-2.393
			c0.521-0.631,1.214-0.946,2.082-0.946c1.396,0,2.228,0.736,2.495,2.209l-1.244,0.171c-0.11-0.795-0.502-1.193-1.175-1.193
			c-0.491,0-0.847,0.215-1.069,0.645s-0.334,0.949-0.334,1.559c0,0.647,0.115,1.146,0.346,1.498
			c0.231,0.352,0.555,0.527,0.969,0.527C1036.184,40.268,1036.604,39.859,1036.813,39.042z"/>
		<path fill="#B3B3B3" d="M1044.537,41.396h-1.447v-4.195c0-0.453-0.096-0.771-0.289-0.955c-0.192-0.184-0.418-0.276-0.676-0.276
			c-0.41,0-0.756,0.163-1.035,0.489c-0.279,0.325-0.418,0.863-0.418,1.611v3.326h-1.447v-8.664h1.447v3.377
			c0.359-0.922,0.99-1.384,1.891-1.384c1.316,0,1.975,0.755,1.975,2.267V41.396z"/>
		<path fill="#B3B3B3" d="M1050.352,39.354l1.308,0.178c-0.169,0.579-0.499,1.058-0.99,1.434c-0.491,0.377-1.106,0.565-1.847,0.565
			c-0.889,0-1.604-0.298-2.146-0.896c-0.541-0.596-0.813-1.404-0.813-2.424c0-0.97,0.273-1.771,0.819-2.406s1.286-0.952,2.222-0.952
			c0.914,0,1.621,0.313,2.12,0.939s0.749,1.431,0.749,2.412l-0.006,0.165h-4.399c0,0.436,0.042,0.785,0.124,1.047
			c0.082,0.263,0.246,0.491,0.492,0.686c0.245,0.195,0.552,0.293,0.92,0.293C1049.619,40.395,1050.102,40.047,1050.352,39.354z
			 M1050.263,37.436c-0.005-0.461-0.144-0.838-0.415-1.129c-0.273-0.293-0.611-0.438-1.014-0.438c-0.397,0-0.729,0.136-0.996,0.409
			s-0.424,0.659-0.47,1.158H1050.263z"/>
		<path fill="#B3B3B3" d="M1054.541,41.396h-1.447v-6.41h1.309v1.529c0.186-0.597,0.441-1.033,0.768-1.308s0.66-0.413,1.003-0.413
			c0.047,0,0.11,0.002,0.19,0.007v1.556c-0.736,0-1.224,0.234-1.463,0.704s-0.359,0.925-0.359,1.364V41.396z"/>
		<path fill="#B3B3B3" d="M1065.93,41.396h-1.346v-1.383c-0.364,1.011-1.039,1.517-2.025,1.517c-0.584,0-1.047-0.181-1.39-0.542
			c-0.343-0.363-0.515-0.867-0.515-1.515v-4.487h1.479v4.176c0,0.462,0.102,0.764,0.305,0.908s0.402,0.216,0.597,0.216
			c0.313,0,0.633-0.141,0.959-0.423c0.325-0.281,0.488-0.881,0.488-1.799v-3.078h1.447V41.396z"/>
		<path fill="#B3B3B3" d="M1072.975,41.396h-1.447v-4.005c0-0.423-0.097-0.741-0.291-0.956c-0.195-0.213-0.43-0.32-0.705-0.32
			c-0.377,0-0.707,0.166-0.99,0.496s-0.426,0.826-0.426,1.491v3.294h-1.447v-6.41h1.32v1.484c0.462-1.078,1.109-1.618,1.943-1.618
			c0.563,0,1.044,0.178,1.443,0.533c0.4,0.355,0.6,0.979,0.6,1.872V41.396z"/>
		<path fill="#B3B3B3" d="M1081.658,39.042l1.244,0.127c-0.161,0.804-0.472,1.398-0.934,1.784c-0.461,0.385-1.018,0.577-1.669,0.577
			c-0.885,0-1.564-0.323-2.041-0.968c-0.476-0.646-0.714-1.436-0.714-2.371c0-0.965,0.26-1.763,0.781-2.393
			c0.52-0.631,1.214-0.946,2.082-0.946c1.396,0,2.228,0.736,2.494,2.209l-1.244,0.171c-0.11-0.795-0.502-1.193-1.174-1.193
			c-0.491,0-0.848,0.215-1.07,0.645c-0.222,0.43-0.333,0.949-0.333,1.559c0,0.647,0.115,1.146,0.346,1.498s0.554,0.527,0.968,0.527
			C1081.029,40.268,1081.451,39.859,1081.658,39.042z"/>
		<path fill="#B3B3B3" d="M1086.521,41.53c-0.948,0-1.672-0.341-2.171-1.022c-0.499-0.681-0.749-1.461-0.749-2.342
			c0-0.947,0.276-1.737,0.828-2.367c0.553-0.631,1.281-0.946,2.188-0.946c0.858,0,1.564,0.307,2.116,0.921
			c0.553,0.613,0.829,1.41,0.829,2.393c0,1.012-0.287,1.824-0.86,2.441C1088.128,41.223,1087.4,41.53,1086.521,41.53z
			 M1086.571,40.337c0.974,0,1.46-0.726,1.46-2.177c0-0.656-0.116-1.174-0.349-1.553c-0.233-0.379-0.591-0.568-1.073-0.568
			c-0.499,0-0.87,0.196-1.11,0.588c-0.242,0.391-0.362,0.91-0.362,1.559c0,0.697,0.128,1.23,0.384,1.6
			C1085.776,40.152,1086.127,40.337,1086.571,40.337z"/>
		<path fill="#B3B3B3" d="M1096.162,41.396h-1.346v-1.383c-0.364,1.011-1.039,1.517-2.025,1.517c-0.584,0-1.047-0.181-1.39-0.542
			c-0.343-0.363-0.515-0.867-0.515-1.515v-4.487h1.479v4.176c0,0.462,0.102,0.764,0.305,0.908s0.402,0.216,0.597,0.216
			c0.313,0,0.633-0.141,0.959-0.423c0.325-0.281,0.488-0.881,0.488-1.799v-3.078h1.447V41.396z"/>
		<path fill="#B3B3B3" d="M1099.348,41.396h-1.447v-6.41h1.309v1.529c0.186-0.597,0.441-1.033,0.768-1.308s0.66-0.413,1.003-0.413
			c0.047,0,0.11,0.002,0.19,0.007v1.556c-0.736,0-1.224,0.234-1.463,0.704s-0.359,0.925-0.359,1.364V41.396z"/>
		<path fill="#B3B3B3" d="M1101.589,39.924l1.358-0.26c0.207,0.521,0.664,0.781,1.371,0.781c0.897,0,1.346-0.266,1.346-0.794
			c0-0.169-0.07-0.31-0.209-0.419c-0.141-0.109-0.305-0.184-0.496-0.223l-1.168-0.222c-1.295-0.249-1.941-0.882-1.941-1.897
			c0-0.567,0.205-1.049,0.615-1.445c0.41-0.395,1.021-0.593,1.834-0.593c1.354,0,2.182,0.497,2.482,1.491l-1.289,0.261
			c-0.135-0.482-0.52-0.724-1.154-0.724c-0.771,0-1.156,0.241-1.156,0.724c0,0.335,0.312,0.565,0.934,0.692l1.377,0.285
			c1.071,0.221,1.606,0.834,1.606,1.841c0,0.706-0.275,1.235-0.825,1.583c-0.55,0.35-1.204,0.524-1.961,0.524
			c-0.656,0-1.236-0.132-1.74-0.397C1102.069,40.869,1101.741,40.466,1101.589,39.924z"/>
		<path fill="#B3B3B3" d="M1114.031,41.53c-0.948,0-1.672-0.341-2.171-1.022c-0.499-0.681-0.749-1.461-0.749-2.342
			c0-0.947,0.276-1.737,0.828-2.367c0.553-0.631,1.281-0.946,2.188-0.946c0.858,0,1.564,0.307,2.116,0.921
			c0.553,0.613,0.829,1.41,0.829,2.393c0,1.012-0.287,1.824-0.86,2.441C1115.639,41.223,1114.911,41.53,1114.031,41.53z
			 M1114.082,40.337c0.974,0,1.46-0.726,1.46-2.177c0-0.656-0.116-1.174-0.349-1.553c-0.233-0.379-0.591-0.568-1.073-0.568
			c-0.499,0-0.87,0.196-1.11,0.588c-0.242,0.391-0.362,0.91-0.362,1.559c0,0.697,0.128,1.23,0.384,1.6
			C1113.287,40.152,1113.638,40.337,1114.082,40.337z"/>
		<path fill="#B3B3B3" d="M1123.672,41.396h-1.346v-1.383c-0.364,1.011-1.039,1.517-2.025,1.517c-0.584,0-1.047-0.181-1.39-0.542
			c-0.343-0.363-0.515-0.867-0.515-1.515v-4.487h1.479v4.176c0,0.462,0.102,0.764,0.305,0.908s0.402,0.216,0.597,0.216
			c0.313,0,0.633-0.141,0.959-0.423c0.325-0.281,0.488-0.881,0.488-1.799v-3.078h1.447V41.396z"/>
		<path fill="#B3B3B3" d="M1133.936,41.396h-1.346v-1.383c-0.364,1.011-1.039,1.517-2.025,1.517c-0.584,0-1.047-0.181-1.39-0.542
			c-0.343-0.363-0.515-0.867-0.515-1.515v-4.487h1.479v4.176c0,0.462,0.102,0.764,0.305,0.908s0.402,0.216,0.597,0.216
			c0.313,0,0.633-0.141,0.959-0.423c0.325-0.281,0.488-0.881,0.488-1.799v-3.078h1.447V41.396z"/>
		<path fill="#B3B3B3" d="M1140.98,41.396h-1.447v-4.005c0-0.423-0.097-0.741-0.291-0.956c-0.195-0.213-0.43-0.32-0.705-0.32
			c-0.377,0-0.707,0.166-0.99,0.496s-0.426,0.826-0.426,1.491v3.294h-1.447v-6.41h1.32v1.484c0.462-1.078,1.109-1.618,1.943-1.618
			c0.563,0,1.044,0.178,1.443,0.533c0.4,0.355,0.6,0.979,0.6,1.872V41.396z"/>
		<path fill="#B3B3B3" d="M1147.436,43.562h-1.473v-8.575h1.385v1.117c0.443-0.834,1.098-1.251,1.961-1.251
			c0.711,0,1.278,0.31,1.701,0.927s0.635,1.407,0.635,2.367c0,0.91-0.202,1.701-0.606,2.375c-0.404,0.672-1.006,1.009-1.806,1.009
			c-0.825,0-1.424-0.343-1.797-1.028V43.562z M1147.436,38.77c0,0.465,0.139,0.852,0.416,1.158s0.585,0.46,0.924,0.46
			c0.461,0,0.799-0.202,1.013-0.606s0.32-0.917,0.32-1.539c0-0.652-0.108-1.182-0.323-1.59c-0.217-0.408-0.538-0.613-0.965-0.613
			c-0.386,0-0.713,0.168-0.981,0.502s-0.403,0.772-0.403,1.314V38.77z"/>
		<path fill="#B3B3B3" d="M1154.412,41.396h-1.447v-6.41h1.309v1.529c0.186-0.597,0.441-1.033,0.768-1.308s0.66-0.413,1.003-0.413
			c0.047,0,0.11,0.002,0.19,0.007v1.556c-0.736,0-1.224,0.234-1.463,0.704s-0.359,0.925-0.359,1.364V41.396z"/>
		<path fill="#B3B3B3" d="M1159.707,41.53c-0.948,0-1.672-0.341-2.171-1.022c-0.499-0.681-0.749-1.461-0.749-2.342
			c0-0.947,0.276-1.737,0.828-2.367c0.553-0.631,1.281-0.946,2.188-0.946c0.858,0,1.564,0.307,2.116,0.921
			c0.553,0.613,0.829,1.41,0.829,2.393c0,1.012-0.287,1.824-0.86,2.441C1161.314,41.223,1160.587,41.53,1159.707,41.53z
			 M1159.758,40.337c0.974,0,1.46-0.726,1.46-2.177c0-0.656-0.116-1.174-0.349-1.553c-0.233-0.379-0.591-0.568-1.073-0.568
			c-0.499,0-0.87,0.196-1.11,0.588c-0.242,0.391-0.362,0.91-0.362,1.559c0,0.697,0.128,1.23,0.384,1.6
			C1158.963,40.152,1159.313,40.337,1159.758,40.337z"/>
		<path fill="#B3B3B3" d="M1165.693,41.396h-1.396v-5.287h-0.952v-1.123h0.952v-0.318c0-0.626,0.152-1.129,0.457-1.51
			s0.92-0.572,1.848-0.572c0.135,0,0.307,0.005,0.514,0.014v1.136c-0.182-0.013-0.307-0.019-0.375-0.019
			c-0.355,0-0.604,0.047-0.748,0.143c-0.145,0.096-0.23,0.207-0.258,0.336s-0.041,0.393-0.041,0.791h1.422v1.123h-1.422V41.396z"/>
		<path fill="#B3B3B3" d="M1172.145,39.354l1.307,0.178c-0.169,0.579-0.499,1.058-0.99,1.434c-0.49,0.377-1.106,0.565-1.847,0.565
			c-0.889,0-1.604-0.298-2.146-0.896c-0.542-0.596-0.813-1.404-0.813-2.424c0-0.97,0.273-1.771,0.818-2.406
			c0.547-0.635,1.287-0.952,2.223-0.952c0.914,0,1.62,0.313,2.119,0.939c0.5,0.626,0.75,1.431,0.75,2.412l-0.007,0.165h-4.399
			c0,0.436,0.042,0.785,0.124,1.047c0.083,0.263,0.247,0.491,0.492,0.686c0.245,0.195,0.552,0.293,0.921,0.293
			C1171.412,40.395,1171.895,40.047,1172.145,39.354z M1172.055,37.436c-0.004-0.461-0.143-0.838-0.415-1.129
			c-0.273-0.293-0.61-0.438-1.013-0.438c-0.397,0-0.73,0.136-0.996,0.409c-0.268,0.273-0.424,0.659-0.471,1.158H1172.055z"/>
		<path fill="#B3B3B3" d="M1174.104,39.924l1.358-0.26c0.207,0.521,0.664,0.781,1.371,0.781c0.897,0,1.346-0.266,1.346-0.794
			c0-0.169-0.07-0.31-0.209-0.419c-0.141-0.109-0.305-0.184-0.496-0.223l-1.168-0.222c-1.295-0.249-1.941-0.882-1.941-1.897
			c0-0.567,0.205-1.049,0.615-1.445c0.41-0.395,1.021-0.593,1.834-0.593c1.354,0,2.182,0.497,2.482,1.491l-1.289,0.261
			c-0.135-0.482-0.52-0.724-1.154-0.724c-0.771,0-1.156,0.241-1.156,0.724c0,0.335,0.312,0.565,0.934,0.692l1.377,0.285
			c1.071,0.221,1.606,0.834,1.606,1.841c0,0.706-0.275,1.235-0.825,1.583c-0.55,0.35-1.204,0.524-1.961,0.524
			c-0.656,0-1.236-0.132-1.74-0.397C1174.585,40.869,1174.257,40.466,1174.104,39.924z"/>
		<path fill="#B3B3B3" d="M1180.009,39.924l1.358-0.26c0.207,0.521,0.664,0.781,1.371,0.781c0.897,0,1.346-0.266,1.346-0.794
			c0-0.169-0.07-0.31-0.209-0.419c-0.141-0.109-0.305-0.184-0.496-0.223l-1.168-0.222c-1.295-0.249-1.941-0.882-1.941-1.897
			c0-0.567,0.205-1.049,0.615-1.445c0.41-0.395,1.021-0.593,1.834-0.593c1.354,0,2.182,0.497,2.482,1.491l-1.289,0.261
			c-0.135-0.482-0.52-0.724-1.154-0.724c-0.771,0-1.156,0.241-1.156,0.724c0,0.335,0.312,0.565,0.934,0.692l1.377,0.285
			c1.071,0.221,1.606,0.834,1.606,1.841c0,0.706-0.275,1.235-0.825,1.583c-0.55,0.35-1.204,0.524-1.961,0.524
			c-0.656,0-1.236-0.132-1.74-0.397C1180.489,40.869,1180.161,40.466,1180.009,39.924z"/>
		<path fill="#B3B3B3" d="M1190.768,39.354l1.307,0.178c-0.169,0.579-0.499,1.058-0.99,1.434c-0.49,0.377-1.106,0.565-1.847,0.565
			c-0.889,0-1.604-0.298-2.146-0.896c-0.542-0.596-0.813-1.404-0.813-2.424c0-0.97,0.273-1.771,0.818-2.406
			c0.547-0.635,1.287-0.952,2.223-0.952c0.914,0,1.62,0.313,2.119,0.939c0.5,0.626,0.75,1.431,0.75,2.412l-0.007,0.165h-4.399
			c0,0.436,0.042,0.785,0.124,1.047c0.083,0.263,0.247,0.491,0.492,0.686c0.245,0.195,0.552,0.293,0.921,0.293
			C1190.035,40.395,1190.518,40.047,1190.768,39.354z M1190.678,37.436c-0.004-0.461-0.143-0.838-0.415-1.129
			c-0.273-0.293-0.61-0.438-1.013-0.438c-0.397,0-0.73,0.136-0.996,0.409c-0.268,0.273-0.424,0.659-0.471,1.158H1190.678z"/>
		<path fill="#B3B3B3" d="M1198.785,41.396h-1.346v-1.383c-0.364,1.011-1.039,1.517-2.025,1.517c-0.584,0-1.047-0.181-1.39-0.542
			c-0.343-0.363-0.515-0.867-0.515-1.515v-4.487h1.479v4.176c0,0.462,0.102,0.764,0.305,0.908s0.402,0.216,0.597,0.216
			c0.313,0,0.633-0.141,0.959-0.423c0.325-0.281,0.488-0.881,0.488-1.799v-3.078h1.447V41.396z"/>
		<path fill="#B3B3B3" d="M1201.971,41.396h-1.447v-6.41h1.309v1.529c0.186-0.597,0.441-1.033,0.768-1.308s0.66-0.413,1.003-0.413
			c0.047,0,0.11,0.002,0.19,0.007v1.556c-0.736,0-1.224,0.234-1.463,0.704s-0.359,0.925-0.359,1.364V41.396z"/>
		<path fill="#B3B3B3" d="M1205.831,39.734v1.662h-1.567v-1.662H1205.831z"/>
		<path fill="#B3B3B3" d="M1208.96,39.734v1.662h-1.567v-1.662H1208.96z"/>
		<path fill="#B3B3B3" d="M1212.089,39.734v1.662h-1.567v-1.662H1212.089z"/>
	</g>
	<rect x="1226" y="19.928" fill="#85D825" width="40" height="35"/>
	<rect x="-1" y="68.928" fill="#636363" width="1281" height="740"/>
	<g>
		<rect x="1236" y="32.428" fill="none" width="37" height="37"/>
		<path fill="#FFFFFF" d="M1241.102,43.271c-1.417,0-2.52-0.531-3.309-1.594s-1.184-2.375-1.184-3.938
			c0-1.552,0.419-2.85,1.258-3.895c0.839-1.044,1.945-1.566,3.32-1.566c1.386,0,2.48,0.522,3.285,1.566
			c0.805,1.045,1.207,2.351,1.207,3.918c0,1.646-0.418,2.976-1.254,3.988C1243.59,42.766,1242.481,43.271,1241.102,43.271z
			 M1241.117,41.725c0.692,0,1.278-0.286,1.758-0.859c0.479-0.572,0.719-1.611,0.719-3.117c0-1.224-0.198-2.184-0.594-2.879
			s-1.011-1.043-1.844-1.043c-1.646,0-2.469,1.326-2.469,3.977c0,1.287,0.21,2.262,0.629,2.926S1240.336,41.725,1241.117,41.725z"/>
		<path fill="#FFFFFF" d="M1255.852,43.107h-2.148l-2.25-5.43l-2.063,2.734v2.695h-1.922V32.443h1.922v5.602
			c0.245-0.38,0.422-0.643,0.531-0.789l3.539-4.813h1.945l-2.531,3.508L1255.852,43.107z"/>
	</g>
	<g>
		<rect x="50.5" y="19.928" fill="none" width="234.833" height="58"/>
		<path fill="#85D825" stroke="#85D825" stroke-miterlimit="10" d="M73.393,43.76c0,0.611-0.504,1.115-1.08,1.115h-3.816v-1.979
			c-1.583,1.835-3.995,3.06-6.659,3.06c-4.823,0-8.783-3.959-8.783-8.855V22.378c0-0.323-0.252-0.54-0.54-0.54H51.4
			c-0.54,0-1.044-0.504-1.044-1.115c0-0.504,0.504-1.008,1.044-1.008h3.779V37.1c0,3.708,2.952,6.66,6.659,6.66
			s6.659-2.952,6.659-6.66V19.715h3.816c0.576,0,1.08,0.504,1.08,1.008c0,0.611-0.504,1.115-1.08,1.115h-1.116
			c-0.252,0-0.468,0.217-0.468,0.54v19.833c0,0.289,0.216,0.541,0.468,0.541h1.116C72.889,42.752,73.393,43.219,73.393,43.76z"/>
		<path fill="#85D825" stroke="#85D825" stroke-miterlimit="10" d="M97.297,42.896c0,0.575-0.504,1.008-1.008,1.008h-3.815v-7.812
			c0-3.6-2.88-6.551-6.623-6.551c-3.6,0-6.587,2.951-6.587,6.551v7.775h-3.708c-0.648,0-1.08-0.432-1.08-1.008
			c0-0.648,0.432-1.152,1.08-1.152h1.08c0.324,0,0.504-0.18,0.504-0.432v-11.23c0-0.288-0.18-0.504-0.504-0.504h-1.08
			c-0.648,0-1.08-0.504-1.08-1.044c0-0.612,0.432-1.116,1.08-1.116h3.708v3.061c1.656-1.656,4.248-3.061,6.587-3.061
			c4.823,0,8.783,3.889,8.783,8.711v5.22c0,0.252,0.216,0.433,0.504,0.433h1.152C96.793,41.744,97.297,42.319,97.297,42.896z"/>
		<path fill="#85D825" stroke="#85D825" stroke-miterlimit="10" d="M105.975,42.896c0,0.575-0.468,1.008-1.044,1.008h-5.399
			c-0.504,0-1.008-0.433-1.008-1.008c0-0.647,0.504-1.151,1.008-1.151h1.152c0.288,0,0.504-0.181,0.504-0.433V30.117
			c0-0.36-0.216-0.576-0.576-0.576h-1.08c-0.576,0-1.08-0.504-1.08-1.044s0.504-1.116,1.08-1.116h3.815v13.931
			c0,0.252,0.216,0.433,0.432,0.433h1.152C105.507,41.744,105.975,42.248,105.975,42.896z M100.18,21.046
			c0-0.864,0.72-1.583,1.512-1.583c0.936,0,1.656,0.719,1.656,1.583c0,0.828-0.72,1.584-1.656,1.584
			C100.9,22.63,100.18,21.874,100.18,21.046z"/>
		<path fill="#85D825" stroke="#85D825" stroke-miterlimit="10" d="M126.098,28.389c0,0.504-0.504,1.08-1.152,1.08h-0.432
			c-0.432,0-0.792,0.072-0.936,0.36l-0.72,1.224c-1.872,3.563-6.335,11.807-6.335,11.807l-1.152,2.592l-1.152-2.592h0.036
			c-0.36-0.648-5.003-9.035-6.479-12.022h0.036c-0.108-0.181-0.252-0.288-0.324-0.396c-0.18-0.252-0.288-0.469-0.324-0.576
			c-0.144-0.217-0.432-0.324-0.936-0.324h-0.504c-0.576,0-1.08-0.504-1.08-1.115c0-0.541,0.504-1.045,1.08-1.045h2.735l0.756,1.584
			l3.564,6.479c0.9,1.655,1.691,3.096,2.591,4.716c2.052-3.816,4.14-7.487,6.191-11.339l0.648-1.512h2.735
			C125.593,27.31,126.098,27.813,126.098,28.389z"/>
		<path fill="#85D825" stroke="#85D825" stroke-miterlimit="10" d="M147.517,28.533c0,4.859-3.888,8.783-8.783,8.783
			c-2.556,0-5.003-1.188-6.659-3.023v10.618h-3.779c-0.612,0-1.044-0.504-1.044-1.116c0-0.539,0.432-1.043,1.044-1.043h1.116
			c0.288,0,0.504-0.217,0.504-0.504V22.414c0-0.324-0.216-0.54-0.504-0.54h-1.116c-0.612,0-1.044-0.504-1.044-1.116
			c0-0.504,0.432-1.008,1.044-1.008h3.779v3.023c1.656-1.764,4.14-3.023,6.659-3.023C143.629,19.75,147.517,23.638,147.517,28.533z
			 M145.393,28.533c0-3.707-2.952-6.659-6.659-6.659s-6.659,2.952-6.659,6.659s2.952,6.659,6.659,6.659
			S145.393,32.24,145.393,28.533z"/>
		<path fill="#85D825" stroke="#85D825" stroke-miterlimit="10" d="M155.942,42.896c0,0.575-0.504,1.008-1.08,1.008h-5.399
			c-0.504,0-1.008-0.433-1.008-1.008c0-0.576,0.504-1.151,1.008-1.151h1.08c0.36,0,0.576-0.181,0.576-0.433V22.594
			c0-0.287-0.216-0.468-0.576-0.468h-1.08c-0.504,0-1.008-0.54-1.008-1.116s0.504-1.08,1.008-1.08h3.815v21.382
			c0,0.252,0.216,0.433,0.468,0.433h1.116C155.438,41.744,155.942,42.319,155.942,42.896z"/>
		<path fill="#85D825" stroke="#85D825" stroke-miterlimit="10" d="M176.029,42.823c0,0.576-0.504,1.008-1.044,1.008h-3.779v-2.087
			c-1.62,1.835-4.14,3.167-6.767,3.167c-4.751,0-8.783-3.888-8.783-8.782c0-4.824,4.032-8.711,8.783-8.711
			c2.735,0,5.183,1.151,6.767,3.131v-3.203h3.779c0.54,0,1.044,0.504,1.044,1.115c0,0.54-0.504,1.044-1.044,1.044h-1.116
			c-0.288,0-0.504,0.216-0.504,0.504V41.24c0,0.252,0.216,0.432,0.504,0.432h1.116C175.525,41.672,176.029,42.176,176.029,42.823z
			 M171.062,36.129c0-3.6-2.88-6.552-6.623-6.552c-3.6,0-6.624,2.952-6.624,6.552c0,3.671,3.024,6.623,6.624,6.623
			C168.182,42.752,171.062,39.8,171.062,36.129z"/>
		<path fill="#85D825" stroke="#85D825" stroke-miterlimit="10" d="M200.076,42.896c0,0.575-0.504,1.008-1.008,1.008h-3.815v-7.812
			c0-3.6-2.88-6.551-6.623-6.551c-3.6,0-6.587,2.951-6.587,6.551v7.775h-3.708c-0.648,0-1.08-0.432-1.08-1.008
			c0-0.648,0.432-1.152,1.08-1.152h1.08c0.324,0,0.504-0.18,0.504-0.432v-11.23c0-0.288-0.18-0.504-0.504-0.504h-1.08
			c-0.648,0-1.08-0.504-1.08-1.044c0-0.612,0.432-1.116,1.08-1.116h3.708v3.061c1.656-1.656,4.248-3.061,6.587-3.061
			c4.823,0,8.783,3.889,8.783,8.711v5.22c0,0.252,0.216,0.433,0.504,0.433h1.152C199.572,41.744,200.076,42.319,200.076,42.896z"/>
		<path fill="#85D825" stroke="#85D825" stroke-miterlimit="10" d="M224.196,42.896c0,0.575-0.504,1.008-1.008,1.008h-3.815v-7.812
			c0-3.6-2.88-6.551-6.623-6.551c-3.6,0-6.587,2.951-6.587,6.551v7.775h-3.708c-0.648,0-1.08-0.432-1.08-1.008
			c0-0.648,0.432-1.152,1.08-1.152h1.08c0.324,0,0.504-0.18,0.504-0.432v-11.23c0-0.288-0.18-0.504-0.504-0.504h-1.08
			c-0.648,0-1.08-0.504-1.08-1.044c0-0.612,0.432-1.116,1.08-1.116h3.708v3.061c1.656-1.656,4.248-3.061,6.587-3.061
			c4.823,0,8.783,3.889,8.783,8.711v5.22c0,0.252,0.216,0.433,0.504,0.433h1.152C223.692,41.744,224.196,42.319,224.196,42.896z"/>
		<path fill="#85D825" stroke="#85D825" stroke-miterlimit="10" d="M232.875,42.896c0,0.575-0.468,1.008-1.044,1.008h-5.399
			c-0.504,0-1.008-0.433-1.008-1.008c0-0.647,0.504-1.151,1.008-1.151h1.152c0.288,0,0.504-0.181,0.504-0.433V30.117
			c0-0.36-0.216-0.576-0.576-0.576h-1.08c-0.576,0-1.08-0.504-1.08-1.044s0.504-1.116,1.08-1.116h3.815v13.931
			c0,0.252,0.216,0.433,0.432,0.433h1.152C232.407,41.744,232.875,42.248,232.875,42.896z M227.079,21.046
			c0-0.864,0.72-1.583,1.512-1.583c0.936,0,1.656,0.719,1.656,1.583c0,0.828-0.72,1.584-1.656,1.584
			C227.799,22.63,227.079,21.874,227.079,21.046z"/>
		<path fill="#85D825" stroke="#85D825" stroke-miterlimit="10" d="M256.596,42.896c0,0.575-0.504,1.008-1.008,1.008h-3.815v-7.812
			c0-3.6-2.88-6.551-6.623-6.551c-3.6,0-6.587,2.951-6.587,6.551v7.775h-3.708c-0.648,0-1.08-0.432-1.08-1.008
			c0-0.648,0.432-1.152,1.08-1.152h1.08c0.324,0,0.504-0.18,0.504-0.432v-11.23c0-0.288-0.18-0.504-0.504-0.504h-1.08
			c-0.648,0-1.08-0.504-1.08-1.044c0-0.612,0.432-1.116,1.08-1.116h3.708v3.061c1.656-1.656,4.248-3.061,6.587-3.061
			c4.823,0,8.783,3.889,8.783,8.711v5.22c0,0.252,0.216,0.433,0.504,0.433h1.152C256.092,41.744,256.596,42.319,256.596,42.896z"/>
		<path fill="#85D825" stroke="#85D825" stroke-miterlimit="10" d="M275.065,36.488l-0.576,4.68l-0.396,3.527
			c-0.288,2.016-0.936,2.879-1.728,3.887c-1.62,2.16-4.427,3.313-7.235,3.313v-2.124c2.988,0,6.263-2.556,6.839-5.183l0.324-2.664
			c-1.548,1.367-3.527,2.123-5.867,2.123c-4.823,0-8.603-3.779-8.603-8.639c0-4.787,3.78-8.604,8.603-8.604
			c4.859,0,8.639,3.816,8.639,8.604V36.488z M272.941,35.408c0-3.455-3.023-6.479-6.515-6.479c-3.456,0-6.479,3.023-6.479,6.479
			c0,3.563,3.023,6.516,6.479,6.516C269.918,41.924,272.941,38.972,272.941,35.408z"/>
	</g>
	<g>
		
			<ellipse transform="matrix(0.9574 0.2888 -0.2888 0.9574 7.7098 -12.0661)" fill="none" stroke="#85D825" stroke-miterlimit="10" cx="44.75" cy="20.097" rx="1.75" ry="3.33"/>
		<polygon fill="none" stroke="#85D825" stroke-miterlimit="10" points="41.5,48.428 11.5,48.428 14.5,20.428 44.5,20.428 		"/>
		<g>
			<path fill="#85D825" d="M25.644,35.811c1.38,0.766,2.185,2.287,2.129,3.777l-0.023,0.629c-0.092,2.497-2.377,4.619-4.874,4.527
				c-1.259-0.047-2.347-0.738-3.222-1.506l0.827-0.769c0.879,0.663,1.581,1.004,2.441,1.036c1.742,0.064,3.527-1.635,3.59-3.335
				l0.023-0.628c0.063-1.721-1.404-2.932-2.915-2.987l1.046-1.222c0.902,0.033,2.149-0.74,2.19-1.852
				c0.053-1.428-1.049-2.309-2.162-2.35c-0.86-0.031-1.829,0.038-2.525,0.684l-0.783-0.974c1.139-0.715,2.137-0.993,3.354-0.948
				c1.868,0.069,3.425,1.703,3.354,3.633C28.063,34.367,26.506,35.213,25.644,35.811z"/>
			<path fill="#85D825" d="M33.349,43.579c-0.016,0.44-0.42,0.572-0.777,0.56l-2.728-0.102c-0.399-0.014-0.792-0.176-0.776-0.616
				s0.422-0.636,0.821-0.621l0.378,0.015c0.356,0.012,0.356,0.012,0.372-0.406l1.367-9.91l-0.674,0.627l-1.028-0.038
				c-0.357-0.013-0.749-0.195-0.733-0.614c0.014-0.379,0.422-0.637,0.779-0.623l0.545,0.02l2.459-2.283l-1.476,12.867
				c-0.015,0.42,0.006,0.42,0.425,0.436l0.315,0.012C32.975,42.914,33.365,43.138,33.349,43.579z"/>
		</g>
		<line fill="none" stroke="#85D825" stroke-linecap="round" stroke-miterlimit="10" x1="36.875" y1="48.428" x2="42" y2="43.762"/>
		<rect x="14" y="20.928" fill="#85D825" width="30" height="5"/>
		<polygon fill="#4D4D4D" stroke="#85D825" stroke-miterlimit="10" points="45.5,20.428 45.5,45.428 42,45.428 44.5,20.428 		"/>
		
			<ellipse transform="matrix(0.9574 0.2888 -0.2888 0.9574 7.4116 -10.0448)" fill="none" stroke="#85D825" stroke-miterlimit="10" cx="37.75" cy="20.097" rx="1.75" ry="3.33"/>
		
			<ellipse transform="matrix(0.9574 0.2888 -0.2888 0.9574 7.1134 -8.0234)" fill="none" stroke="#85D825" stroke-miterlimit="10" cx="30.75" cy="20.097" rx="1.75" ry="3.33"/>
		
			<ellipse transform="matrix(0.9574 0.2888 -0.2888 0.9574 6.8152 -6.002)" fill="none" stroke="#85D825" stroke-miterlimit="10" cx="23.75" cy="20.097" rx="1.75" ry="3.33"/>
		
			<ellipse transform="matrix(0.9574 0.2888 -0.2888 0.9574 6.517 -3.9806)" fill="none" stroke="#85D825" stroke-miterlimit="10" cx="16.75" cy="20.097" rx="1.75" ry="3.33"/>
	</g>
	<g>
		<rect x="842" y="19.928" fill="#636363" width="140" height="35"/>
		<g>
			<rect x="890.25" y="34.824" fill="none" width="63.5" height="13"/>
			<path fill="#B3B3B3" d="M890.295,41.412l1.517-0.323c0.182,0.858,0.88,1.288,2.095,1.288c0.555,0,0.98-0.109,1.279-0.33
				c0.298-0.22,0.447-0.492,0.447-0.818c0-0.236-0.067-0.456-0.203-0.657c-0.136-0.2-0.426-0.358-0.869-0.473l-1.657-0.432
				c-0.567-0.147-0.986-0.316-1.257-0.505c-0.271-0.188-0.487-0.453-0.65-0.797c-0.163-0.342-0.244-0.709-0.244-1.098
				c0-0.774,0.287-1.396,0.863-1.863c0.575-0.467,1.312-0.701,2.209-0.701c0.744,0,1.41,0.163,1.996,0.488
				c0.586,0.326,0.959,0.787,1.12,1.385l-1.485,0.367c-0.229-0.655-0.762-0.983-1.6-0.983c-0.486,0-0.858,0.102-1.114,0.305
				s-0.384,0.462-0.384,0.774c0,0.495,0.402,0.842,1.206,1.041l1.473,0.368c0.893,0.224,1.491,0.556,1.796,0.993
				c0.305,0.438,0.457,0.922,0.457,1.451c0,0.85-0.32,1.52-0.961,2.009c-0.642,0.488-1.472,0.733-2.492,0.733
				c-0.858,0-1.61-0.18-2.256-0.54S890.506,42.174,890.295,41.412z"/>
			<path fill="#B3B3B3" d="M902.622,41.457l1.307,0.178c-0.169,0.58-0.499,1.059-0.99,1.435c-0.49,0.376-1.106,0.565-1.847,0.565
				c-0.889,0-1.604-0.299-2.146-0.896s-0.813-1.405-0.813-2.425c0-0.969,0.273-1.771,0.818-2.406
				c0.547-0.635,1.287-0.951,2.223-0.951c0.914,0,1.62,0.313,2.119,0.939c0.5,0.626,0.75,1.43,0.75,2.412l-0.007,0.164h-4.399
				c0,0.437,0.042,0.785,0.124,1.048c0.083,0.263,0.247,0.491,0.492,0.686s0.552,0.292,0.921,0.292
				C901.89,42.498,902.372,42.15,902.622,41.457z M902.532,39.54c-0.004-0.462-0.143-0.838-0.415-1.13
				c-0.273-0.292-0.61-0.438-1.013-0.438c-0.397,0-0.73,0.136-0.996,0.409c-0.268,0.272-0.424,0.659-0.471,1.158H902.532z"/>
			<path fill="#B3B3B3" d="M914.936,43.501h-1.517v-3.993c0-0.829-0.368-1.244-1.104-1.244c-0.428,0-0.77,0.157-1.025,0.471
				c-0.256,0.313-0.384,0.78-0.384,1.402v3.364h-1.536v-3.993c0-0.842-0.345-1.263-1.035-1.263c-0.418,0-0.771,0.169-1.057,0.508
				c-0.285,0.339-0.428,0.8-0.428,1.384v3.364h-1.492V37.09h1.402v1.365c0.457-0.999,1.171-1.498,2.14-1.498
				c0.943,0,1.558,0.499,1.841,1.498c0.517-0.999,1.229-1.498,2.139-1.498c0.618,0,1.115,0.191,1.492,0.577s0.564,0.863,0.564,1.435
				V43.501z"/>
			<path fill="#B3B3B3" d="M922.159,43.501h-1.377c-0.123-0.39-0.197-0.821-0.223-1.295c-0.385,0.952-1.108,1.429-2.17,1.429
				c-0.64,0-1.152-0.188-1.54-0.563c-0.387-0.374-0.581-0.846-0.581-1.412c0-1.473,1.293-2.209,3.879-2.209
				c0.102,0,0.239,0.002,0.412,0.006v-0.482c0-0.664-0.452-0.996-1.357-0.996c-0.881,0-1.38,0.332-1.498,0.996l-1.232-0.184
				c0.068-0.533,0.344-0.973,0.826-1.317s1.18-0.517,2.094-0.517c0.496,0,0.899,0.041,1.213,0.123
				c0.313,0.083,0.578,0.223,0.793,0.419c0.217,0.197,0.365,0.411,0.448,0.642c0.082,0.23,0.124,0.621,0.124,1.171v2.895
				C921.97,42.625,922.032,43.057,922.159,43.501z M920.56,40.238c-1.87,0-2.805,0.446-2.805,1.34c0,0.266,0.094,0.494,0.282,0.682
				c0.188,0.188,0.473,0.283,0.854,0.283c0.55,0,0.966-0.175,1.247-0.524c0.281-0.349,0.422-0.745,0.422-1.19V40.238z"/>
			<path fill="#B3B3B3" d="M925.143,36.341h-1.447v-1.505h1.447V36.341z M925.143,43.501h-1.447V37.09h1.447V43.501z"/>
			<path fill="#B3B3B3" d="M932.188,43.501h-1.447v-4.005c0-0.424-0.097-0.742-0.291-0.956c-0.195-0.214-0.43-0.32-0.705-0.32
				c-0.377,0-0.707,0.165-0.99,0.495s-0.426,0.827-0.426,1.492v3.294h-1.447V37.09h1.32v1.485c0.462-1.079,1.109-1.618,1.943-1.618
				c0.563,0,1.044,0.178,1.443,0.533c0.4,0.355,0.6,0.979,0.6,1.872V43.501z"/>
			<path fill="#B3B3B3" d="M937.996,41.457l1.307,0.178c-0.169,0.58-0.499,1.059-0.99,1.435c-0.49,0.376-1.106,0.565-1.847,0.565
				c-0.889,0-1.604-0.299-2.146-0.896s-0.813-1.405-0.813-2.425c0-0.969,0.273-1.771,0.818-2.406
				c0.547-0.635,1.287-0.951,2.223-0.951c0.914,0,1.62,0.313,2.119,0.939c0.5,0.626,0.75,1.43,0.75,2.412l-0.007,0.164h-4.399
				c0,0.437,0.042,0.785,0.124,1.048c0.083,0.263,0.247,0.491,0.492,0.686s0.552,0.292,0.921,0.292
				C937.264,42.498,937.746,42.15,937.996,41.457z M937.906,39.54c-0.004-0.462-0.143-0.838-0.415-1.13
				c-0.273-0.292-0.61-0.438-1.013-0.438c-0.397,0-0.73,0.136-0.996,0.409c-0.268,0.272-0.424,0.659-0.471,1.158H937.906z"/>
			<path fill="#B3B3B3" d="M944.495,34.836h5.39l-0.14,1.34h-4.107l-0.24,2.514c0.52-0.664,1.199-0.996,2.037-0.996
				c0.834,0,1.537,0.287,2.11,0.863c0.573,0.575,0.86,1.258,0.86,2.05c0,0.825-0.301,1.536-0.901,2.133s-1.426,0.896-2.476,0.896
				c-0.834,0-1.563-0.193-2.187-0.578s-1.029-0.984-1.216-1.797l1.498-0.222c0.292,0.884,0.899,1.327,1.822,1.327
				c0.566,0,1.004-0.172,1.311-0.515s0.46-0.757,0.46-1.244c0-0.482-0.152-0.89-0.457-1.222s-0.7-0.498-1.187-0.498
				c-0.736,0-1.295,0.336-1.676,1.009l-1.396-0.272L944.495,34.836z"/>
		</g>
		<g>
			<path fill="#85D825" d="M960.197,36.508h3.193l4.305,4.076l4.319-4.068l3.166-0.008l-6.138,5.631h-2.722L960.197,36.508z"/>
		</g>
		<g>
			<path fill="#4D4D4D" d="M880.45,54.928c0,0-0.221-8.75-0.351-17.5c-0.041-2.188-0.082-4.375-0.12-6.426
				c0.016-1.025,0.004-2.017,0.04-2.957c0.03-0.939,0.058-1.828,0.084-2.648c0.021-0.82,0.079-1.572,0.11-2.238
				c0.033-0.667,0.069-1.248,0.11-1.727c0.068-0.957,0.126-1.504,0.126-1.504h0.1c0,0,0.058,0.547,0.126,1.504
				c0.041,0.479,0.077,1.06,0.11,1.727c0.031,0.666,0.089,1.418,0.11,2.238c0.026,0.82,0.054,1.709,0.084,2.648
				c0.036,0.94,0.024,1.932,0.04,2.957c-0.038,2.051-0.079,4.238-0.12,6.426c-0.13,8.75-0.351,17.5-0.351,17.5H880.45z"/>
		</g>
		<g>
			<rect x="856.25" y="30.074" fill="none" width="16.5" height="18.5"/>
			<path fill="#4D4D4D" d="M856.322,40.718l2.45-0.522c0.294,1.387,1.422,2.081,3.384,2.081c0.896,0,1.584-0.178,2.066-0.533
				c0.481-0.355,0.723-0.796,0.723-1.323c0-0.383-0.109-0.736-0.328-1.061s-0.688-0.58-1.404-0.764l-2.677-0.697
				c-0.916-0.24-1.593-0.512-2.03-0.816c-0.438-0.303-0.788-0.732-1.051-1.286c-0.264-0.554-0.395-1.146-0.395-1.774
				c0-1.25,0.464-2.254,1.395-3.01c0.929-0.754,2.118-1.133,3.568-1.133c1.202,0,2.277,0.264,3.225,0.79
				c0.946,0.526,1.55,1.271,1.81,2.235l-2.399,0.595c-0.369-1.06-1.23-1.589-2.584-1.589c-0.786,0-1.386,0.164-1.8,0.492
				c-0.413,0.328-0.62,0.744-0.62,1.25c0,0.801,0.649,1.361,1.948,1.682l2.379,0.596c1.442,0.361,2.409,0.896,2.901,1.604
				c0.492,0.709,0.738,1.489,0.738,2.344c0,1.374-0.518,2.455-1.553,3.246c-1.036,0.789-2.378,1.184-4.025,1.184
				c-1.388,0-2.603-0.291-3.645-0.871C857.355,42.854,856.663,41.948,856.322,40.718z"/>
		</g>
	</g>
	<g>
		<rect x="686" y="19.928" fill="#636363" width="140" height="35"/>
		<g>
			<rect x="734.25" y="34.824" fill="none" width="63.5" height="13"/>
			<path fill="#B3B3B3" d="M738.395,43.635c-1.15,0-2.047-0.432-2.688-1.295c-0.642-0.863-0.962-1.93-0.962-3.199
				c0-1.262,0.341-2.316,1.022-3.165c0.681-0.849,1.58-1.272,2.697-1.272c1.126,0,2.016,0.424,2.669,1.272
				c0.654,0.849,0.981,1.909,0.981,3.184c0,1.337-0.34,2.417-1.02,3.24C740.417,43.223,739.517,43.635,738.395,43.635z
				 M738.408,42.377c0.563,0,1.038-0.232,1.428-0.697c0.39-0.466,0.584-1.311,0.584-2.533c0-0.994-0.161-1.774-0.482-2.339
				c-0.321-0.565-0.821-0.848-1.498-0.848c-1.337,0-2.006,1.077-2.006,3.231c0,1.045,0.17,1.837,0.511,2.377
				C737.285,42.107,737.773,42.377,738.408,42.377z"/>
			<path fill="#B3B3B3" d="M747.187,41.146l1.244,0.127c-0.161,0.804-0.472,1.398-0.934,1.783c-0.461,0.385-1.018,0.578-1.669,0.578
				c-0.885,0-1.564-0.323-2.041-0.969c-0.476-0.645-0.714-1.436-0.714-2.371c0-0.965,0.26-1.762,0.781-2.393
				c0.52-0.631,1.214-0.945,2.082-0.945c1.396,0,2.228,0.736,2.494,2.209l-1.244,0.171c-0.11-0.796-0.502-1.193-1.174-1.193
				c-0.491,0-0.848,0.215-1.07,0.645c-0.222,0.429-0.333,0.948-0.333,1.558c0,0.648,0.115,1.147,0.346,1.498
				c0.23,0.352,0.554,0.527,0.968,0.527C746.558,42.371,746.979,41.963,747.187,41.146z"/>
			<path fill="#B3B3B3" d="M752.512,42.371v1.13c-0.432,0.093-0.766,0.14-1.002,0.14c-0.39,0-0.725-0.077-1.004-0.231
				c-0.279-0.155-0.483-0.366-0.612-0.635s-0.193-0.683-0.193-1.241v-3.32h-0.8V37.09h0.883l0.133-1.67l1.188-0.107v1.777h1.288
				v1.123h-1.288v3.13c0,0.401,0.072,0.676,0.219,0.822c0.146,0.146,0.422,0.219,0.828,0.219
				C752.265,42.384,752.385,42.379,752.512,42.371z"/>
			<path fill="#B3B3B3" d="M756.004,43.635c-0.948,0-1.672-0.342-2.171-1.022s-0.749-1.462-0.749-2.343
				c0-0.947,0.276-1.736,0.828-2.367c0.553-0.631,1.281-0.945,2.188-0.945c0.858,0,1.564,0.307,2.116,0.92
				c0.553,0.613,0.829,1.411,0.829,2.393c0,1.012-0.287,1.825-0.86,2.441C757.611,43.326,756.884,43.635,756.004,43.635z
				 M756.055,42.441c0.974,0,1.46-0.727,1.46-2.178c0-0.656-0.116-1.174-0.349-1.552c-0.233-0.379-0.591-0.568-1.073-0.568
				c-0.499,0-0.87,0.196-1.11,0.587c-0.242,0.392-0.362,0.911-0.362,1.559c0,0.698,0.128,1.231,0.384,1.6
				S755.61,42.441,756.055,42.441z"/>
			<path fill="#B3B3B3" d="M761.025,43.501h-0.654v-8.665h1.447v3.13c0.275-0.478,0.551-0.794,0.826-0.946
				c0.274-0.152,0.596-0.229,0.965-0.229c0.702,0,1.284,0.299,1.745,0.896s0.692,1.424,0.692,2.481c0,0.957-0.228,1.773-0.683,2.451
				c-0.455,0.677-1.108,1.016-1.958,1.016c-0.855,0-1.52-0.396-1.994-1.188L761.025,43.501z M761.818,40.766
				c0,0.57,0.124,0.993,0.372,1.266c0.247,0.273,0.567,0.41,0.962,0.41c0.381,0,0.7-0.157,0.958-0.471
				c0.258-0.313,0.396-0.926,0.413-1.84c0-0.669-0.117-1.185-0.35-1.546c-0.232-0.362-0.561-0.543-0.984-0.543
				c-0.397,0-0.726,0.154-0.983,0.464c-0.258,0.309-0.388,0.744-0.388,1.307V40.766z"/>
			<path fill="#B3B3B3" d="M768.82,43.501h-1.447V37.09h1.309v1.529c0.186-0.596,0.441-1.032,0.768-1.307
				c0.326-0.275,0.66-0.413,1.003-0.413c0.047,0,0.11,0.002,0.19,0.007v1.555c-0.736,0-1.224,0.234-1.463,0.705
				c-0.239,0.469-0.359,0.924-0.359,1.364V43.501z"/>
			<path fill="#B3B3B3" d="M775.76,41.457l1.307,0.178c-0.169,0.58-0.499,1.059-0.99,1.435c-0.49,0.376-1.106,0.565-1.847,0.565
				c-0.889,0-1.604-0.299-2.146-0.896s-0.813-1.405-0.813-2.425c0-0.969,0.273-1.771,0.818-2.406
				c0.547-0.635,1.287-0.951,2.223-0.951c0.914,0,1.62,0.313,2.119,0.939c0.5,0.626,0.75,1.43,0.75,2.412l-0.007,0.164h-4.399
				c0,0.437,0.042,0.785,0.124,1.048c0.083,0.263,0.247,0.491,0.492,0.686s0.552,0.292,0.921,0.292
				C775.027,42.498,775.51,42.15,775.76,41.457z M775.67,39.54c-0.004-0.462-0.143-0.838-0.415-1.13
				c-0.273-0.292-0.61-0.438-1.013-0.438c-0.397,0-0.73,0.136-0.996,0.409c-0.268,0.272-0.424,0.659-0.471,1.158H775.67z"/>
		</g>
		<g>
			<path fill="#85D825" d="M804.197,36.508h3.193l4.305,4.076l4.319-4.068l3.166-0.008l-6.138,5.631h-2.722L804.197,36.508z"/>
		</g>
		<g>
			<path fill="#4D4D4D" d="M724.45,54.928c0,0-0.221-8.75-0.351-17.5c-0.041-2.188-0.082-4.375-0.12-6.426
				c0.016-1.025,0.004-2.017,0.04-2.957c0.03-0.939,0.058-1.828,0.084-2.648c0.021-0.82,0.079-1.572,0.11-2.238
				c0.033-0.667,0.069-1.248,0.11-1.727c0.068-0.957,0.126-1.504,0.126-1.504h0.1c0,0,0.058,0.547,0.126,1.504
				c0.041,0.479,0.077,1.06,0.11,1.727c0.031,0.666,0.089,1.418,0.11,2.238c0.026,0.82,0.054,1.709,0.084,2.648
				c0.036,0.94,0.024,1.932,0.04,2.957c-0.038,2.051-0.079,4.238-0.12,6.426c-0.13,8.75-0.351,17.5-0.351,17.5H724.45z"/>
		</g>
		<g>
			<rect x="697.75" y="30.074" fill="none" width="18" height="18.5"/>
			<path fill="#4D4D4D" d="M713.018,44.092h-2.573V31.838l-3.876,12.254h-1.322l-3.896-12.254v12.254h-2.062V30.095h3.948
				l2.932,9.013l2.882-9.013h3.968V44.092z"/>
		</g>
	</g>
	<g>
		<rect x="529" y="19.928" fill="#636363" width="140" height="35"/>
		<g>
			<rect x="577.25" y="34.824" fill="none" width="63.5" height="13"/>
			<path fill="#B3B3B3" d="M584.182,42.148v1.353h-6.386v-1.517l2.653-1.766c0.825-0.55,1.38-1.037,1.663-1.463
				c0.283-0.425,0.425-0.815,0.425-1.171c0-0.427-0.142-0.787-0.425-1.079s-0.651-0.438-1.104-0.438c-0.99,0-1.56,0.603-1.707,1.809
				l-1.505-0.375c0.114-0.77,0.456-1.429,1.025-1.977c0.569-0.549,1.314-0.822,2.237-0.822c0.956,0,1.721,0.271,2.291,0.815
				c0.572,0.544,0.857,1.235,0.857,2.073c0,0.74-0.254,1.401-0.762,1.983c-0.508,0.581-1.767,1.439-3.777,2.573H584.182z"/>
			<path fill="#B3B3B3" d="M588.669,43.635c-1.063,0-1.881-0.412-2.456-1.235c-0.576-0.823-0.863-1.869-0.863-3.139
				c0-1.371,0.301-2.474,0.904-3.308c0.603-0.833,1.412-1.25,2.428-1.25c0.732,0,1.351,0.195,1.856,0.587s0.883,0.936,1.13,1.632
				c0.248,0.695,0.371,1.349,0.371,1.958c0,1.021-0.116,1.856-0.349,2.511c-0.232,0.653-0.603,1.191-1.11,1.612
				S589.435,43.635,588.669,43.635z M588.662,42.409c0.44,0,0.796-0.136,1.066-0.406c0.271-0.271,0.455-0.649,0.553-1.136
				c0.098-0.487,0.146-1.16,0.146-2.02c0-0.711-0.12-1.385-0.359-2.024s-0.697-0.958-1.374-0.958c-1.177,0-1.765,1.087-1.765,3.262
				c0,0.986,0.125,1.779,0.375,2.381C587.554,42.109,588.007,42.409,588.662,42.409z"/>
			<path fill="#B3B3B3" d="M599.693,43.501h-6.633v-1.276h2.609v-5.471c-0.868,0.757-1.657,1.277-2.368,1.561v-1.561
				c0.724-0.275,1.177-0.471,1.358-0.588c0.182-0.116,0.448-0.332,0.8-0.647s0.599-0.602,0.743-0.86h1.041v7.566h2.449V43.501z"/>
			<path fill="#B3B3B3" d="M602.607,39.674v-1.232h0.793c0.474,0,0.869-0.105,1.188-0.316c0.316-0.212,0.476-0.527,0.476-0.946
				c0-0.411-0.135-0.72-0.403-0.927s-0.614-0.311-1.037-0.311c-0.855,0-1.438,0.418-1.746,1.256l-1.428-0.247
				c0.16-0.66,0.531-1.2,1.113-1.618c0.582-0.42,1.283-0.629,2.104-0.629c0.816,0,1.514,0.211,2.092,0.632
				c0.577,0.421,0.866,0.985,0.866,1.691c0,0.524-0.155,0.974-0.467,1.346c-0.311,0.372-0.695,0.575-1.152,0.609
				c0.567,0.085,1.023,0.319,1.368,0.704c0.345,0.386,0.518,0.85,0.518,1.391c0,0.744-0.3,1.357-0.898,1.838
				s-1.396,0.721-2.39,0.721c-0.918,0-1.677-0.234-2.275-0.702s-0.977-1.004-1.133-1.608l1.479-0.362
				c0.296,0.965,0.936,1.447,1.917,1.447c0.508,0,0.917-0.13,1.229-0.391c0.311-0.26,0.466-0.574,0.466-0.942
				c0-0.373-0.134-0.699-0.402-0.98s-0.674-0.422-1.216-0.422H602.607z"/>
			<path fill="#B3B3B3" d="M610.648,39.609v1.188h-3.186v-1.188H610.648z"/>
			<path fill="#B3B3B3" d="M617.555,42.148v1.353h-6.386v-1.517l2.653-1.766c0.825-0.55,1.38-1.037,1.663-1.463
				c0.283-0.425,0.425-0.815,0.425-1.171c0-0.427-0.142-0.787-0.425-1.079s-0.651-0.438-1.104-0.438c-0.99,0-1.56,0.603-1.707,1.809
				l-1.505-0.375c0.114-0.77,0.456-1.429,1.025-1.977c0.569-0.549,1.314-0.822,2.237-0.822c0.956,0,1.721,0.271,2.291,0.815
				c0.572,0.544,0.857,1.235,0.857,2.073c0,0.74-0.254,1.401-0.762,1.983c-0.508,0.581-1.767,1.439-3.777,2.573H617.555z"/>
			<path fill="#B3B3B3" d="M622.042,43.635c-1.063,0-1.881-0.412-2.456-1.235c-0.576-0.823-0.863-1.869-0.863-3.139
				c0-1.371,0.301-2.474,0.904-3.308c0.603-0.833,1.412-1.25,2.428-1.25c0.732,0,1.351,0.195,1.856,0.587s0.883,0.936,1.13,1.632
				c0.248,0.695,0.371,1.349,0.371,1.958c0,1.021-0.116,1.856-0.349,2.511c-0.232,0.653-0.603,1.191-1.11,1.612
				S622.808,43.635,622.042,43.635z M622.035,42.409c0.44,0,0.796-0.136,1.066-0.406c0.271-0.271,0.455-0.649,0.553-1.136
				c0.098-0.487,0.146-1.16,0.146-2.02c0-0.711-0.12-1.385-0.359-2.024s-0.697-0.958-1.374-0.958c-1.177,0-1.765,1.087-1.765,3.262
				c0,0.986,0.125,1.779,0.375,2.381C620.927,42.109,621.38,42.409,622.035,42.409z"/>
			<path fill="#B3B3B3" d="M633.067,43.501h-6.633v-1.276h2.609v-5.471c-0.868,0.757-1.657,1.277-2.368,1.561v-1.561
				c0.724-0.275,1.177-0.471,1.358-0.588c0.182-0.116,0.448-0.332,0.8-0.647s0.599-0.602,0.743-0.86h1.041v7.566h2.449V43.501z"/>
			<path fill="#B3B3B3" d="M638.996,43.501h-1.605v-1.968h-3.848v-1.143l3.848-5.732h1.605V40.2h1.301v1.333h-1.301V43.501z
				 M637.504,36.29l-2.456,3.91h2.343v-2.394c0-0.254,0.012-0.482,0.037-0.686L637.504,36.29z"/>
		</g>
		<g>
			<path fill="#85D825" d="M647.197,36.508h3.193l4.305,4.076l4.319-4.068l3.166-0.008l-6.138,5.631h-2.722L647.197,36.508z"/>
		</g>
		<g>
			<path fill="#4D4D4D" d="M567.45,54.928c0,0-0.221-8.75-0.35-17.5c-0.041-2.188-0.083-4.375-0.121-6.426
				c0.015-1.025,0.003-2.017,0.041-2.957c0.029-0.939,0.057-1.828,0.083-2.648c0.022-0.82,0.08-1.572,0.111-2.238
				c0.033-0.667,0.069-1.248,0.11-1.727c0.068-0.957,0.126-1.504,0.126-1.504h0.1c0,0,0.058,0.547,0.126,1.504
				c0.041,0.479,0.078,1.06,0.11,1.727c0.031,0.666,0.088,1.418,0.111,2.238c0.026,0.82,0.054,1.709,0.083,2.648
				c0.037,0.94,0.025,1.932,0.041,2.957c-0.038,2.051-0.08,4.238-0.121,6.426c-0.129,8.75-0.35,17.5-0.35,17.5H567.45z"/>
		</g>
		<g>
			<rect x="542.75" y="30.074" fill="none" width="18" height="18.5"/>
			<path fill="#4D4D4D" d="M555.27,44.092h-2.696l-1.118-3.333h-5.383l-1.098,3.333h-2.152l4.645-13.997h3.107L555.27,44.092z
				 M550.779,38.738l-2.041-6.244l-2.041,6.244H550.779z"/>
		</g>
	</g>
	<g>
		<g>
			<rect x="313.5" y="18.928" fill="none" width="283.5" height="37.5"/>
			<path fill="#85D825" d="M314.379,26.938v-7.998h3.117c0.527,0,0.965,0.055,1.313,0.164s0.648,0.338,0.902,0.686
				s0.381,0.756,0.381,1.225c0,0.441-0.129,0.825-0.387,1.151s-0.613,0.534-1.066,0.624c0.563,0.098,0.988,0.326,1.277,0.686
				s0.434,0.785,0.434,1.277c0,0.617-0.202,1.136-0.606,1.556s-1.026,0.63-1.866,0.63H314.379z M315.744,22.297h1.758
				c0.359,0,0.644-0.107,0.853-0.322s0.313-0.488,0.313-0.82c0-0.367-0.119-0.638-0.357-0.812s-0.518-0.261-0.838-0.261h-1.729
				V22.297z M315.744,25.736h1.863c0.395,0,0.706-0.104,0.935-0.311s0.343-0.486,0.343-0.838c0-0.336-0.116-0.611-0.349-0.826
				s-0.54-0.322-0.923-0.322h-1.869V25.736z"/>
			<path fill="#85D825" d="M322.922,20.328h-1.336v-1.389h1.336V20.328z M322.922,26.938h-1.336V21.02h1.336V26.938z"/>
			<path fill="#85D825" d="M328.289,25.051l1.207,0.164c-0.156,0.535-0.461,0.977-0.914,1.324s-1.021,0.521-1.705,0.521
				c-0.82,0-1.48-0.275-1.98-0.826s-0.75-1.297-0.75-2.238c0-0.895,0.252-1.635,0.756-2.221s1.188-0.879,2.051-0.879
				c0.844,0,1.496,0.289,1.957,0.867s0.691,1.32,0.691,2.227l-0.006,0.152h-4.061c0,0.402,0.038,0.725,0.114,0.967
				s0.228,0.453,0.454,0.633s0.51,0.27,0.85,0.27C327.613,26.012,328.059,25.691,328.289,25.051z M328.207,23.281
				c-0.004-0.426-0.132-0.773-0.384-1.043s-0.563-0.404-0.935-0.404c-0.367,0-0.674,0.126-0.92,0.378s-0.391,0.608-0.434,1.069
				H328.207z"/>
			<path fill="#85D825" d="M335.719,26.938h-1.336V23.24c0-0.391-0.09-0.685-0.27-0.882s-0.396-0.296-0.65-0.296
				c-0.348,0-0.652,0.152-0.914,0.457s-0.393,0.764-0.393,1.377v3.041h-1.336V21.02h1.219v1.371
				c0.426-0.996,1.023-1.494,1.793-1.494c0.52,0,0.964,0.164,1.333,0.492s0.554,0.904,0.554,1.729V26.938z"/>
			<path fill="#85D825" d="M341.625,21.02l-2.01,5.918h-1.107l-2.057-5.918h1.395l1.383,4.014l1.348-4.014H341.625z"/>
			<path fill="#85D825" d="M346.16,25.051l1.207,0.164c-0.156,0.535-0.461,0.977-0.914,1.324s-1.021,0.521-1.705,0.521
				c-0.82,0-1.48-0.275-1.98-0.826s-0.75-1.297-0.75-2.238c0-0.895,0.252-1.635,0.756-2.221s1.188-0.879,2.051-0.879
				c0.844,0,1.496,0.289,1.957,0.867s0.691,1.32,0.691,2.227l-0.006,0.152h-4.061c0,0.402,0.038,0.725,0.114,0.967
				s0.228,0.453,0.454,0.633s0.51,0.27,0.85,0.27C345.484,26.012,345.93,25.691,346.16,25.051z M346.078,23.281
				c-0.004-0.426-0.132-0.773-0.384-1.043s-0.563-0.404-0.935-0.404c-0.367,0-0.674,0.126-0.92,0.378s-0.391,0.608-0.434,1.069
				H346.078z"/>
			<path fill="#85D825" d="M353.59,26.938h-1.336V23.24c0-0.391-0.09-0.685-0.27-0.882s-0.396-0.296-0.65-0.296
				c-0.348,0-0.652,0.152-0.914,0.457s-0.393,0.764-0.393,1.377v3.041h-1.336V21.02h1.219v1.371
				c0.426-0.996,1.023-1.494,1.793-1.494c0.52,0,0.964,0.164,1.333,0.492s0.554,0.904,0.554,1.729V26.938z"/>
			<path fill="#85D825" d="M360.059,26.938h-1.242V25.66c-0.336,0.934-0.959,1.4-1.869,1.4c-0.539,0-0.967-0.167-1.283-0.501
				s-0.475-0.8-0.475-1.397V21.02h1.365v3.855c0,0.426,0.094,0.705,0.281,0.838s0.371,0.199,0.551,0.199
				c0.289,0,0.584-0.13,0.885-0.39s0.451-0.813,0.451-1.661V21.02h1.336V26.938z"/>
			<path fill="#85D825" d="M365.426,25.051l1.207,0.164c-0.156,0.535-0.461,0.977-0.914,1.324s-1.021,0.521-1.705,0.521
				c-0.82,0-1.48-0.275-1.98-0.826s-0.75-1.297-0.75-2.238c0-0.895,0.252-1.635,0.756-2.221s1.188-0.879,2.051-0.879
				c0.844,0,1.496,0.289,1.957,0.867s0.691,1.32,0.691,2.227l-0.006,0.152h-4.061c0,0.402,0.038,0.725,0.114,0.967
				s0.228,0.453,0.454,0.633s0.51,0.27,0.85,0.27C364.75,26.012,365.195,25.691,365.426,25.051z M365.344,23.281
				c-0.004-0.426-0.132-0.773-0.384-1.043s-0.563-0.404-0.935-0.404c-0.367,0-0.674,0.126-0.92,0.378s-0.391,0.608-0.434,1.069
				H365.344z"/>
			<path fill="#85D825" d="M375.504,24.16l1.336,0.146c-0.086,0.801-0.396,1.46-0.929,1.978s-1.233,0.776-2.101,0.776
				c-0.73,0-1.323-0.184-1.778-0.551s-0.806-0.865-1.052-1.494s-0.369-1.322-0.369-2.08c0-1.219,0.289-2.21,0.867-2.974
				s1.373-1.146,2.385-1.146c0.793,0,1.453,0.244,1.98,0.732s0.859,1.188,0.996,2.098l-1.336,0.141
				c-0.246-1.207-0.789-1.811-1.629-1.811c-0.539,0-0.958,0.251-1.257,0.753s-0.448,1.229-0.448,2.183c0,0.969,0.16,1.7,0.48,2.194
				s0.744,0.741,1.271,0.741c0.422,0,0.781-0.166,1.078-0.498S375.465,24.621,375.504,24.16z"/>
			<path fill="#85D825" d="M379.236,26.938H377.9v-7.998h1.336V26.938z"/>
			<path fill="#85D825" d="M385.904,26.938h-1.271c-0.113-0.359-0.182-0.758-0.205-1.195c-0.355,0.879-1.023,1.318-2.004,1.318
				c-0.59,0-1.063-0.173-1.421-0.519s-0.536-0.78-0.536-1.304c0-1.359,1.193-2.039,3.58-2.039c0.094,0,0.221,0.002,0.381,0.006
				V22.76c0-0.613-0.418-0.92-1.254-0.92c-0.813,0-1.273,0.307-1.383,0.92l-1.137-0.17c0.063-0.492,0.316-0.897,0.762-1.216
				s1.09-0.478,1.934-0.478c0.457,0,0.83,0.038,1.119,0.114s0.533,0.205,0.732,0.387s0.337,0.379,0.413,0.592
				s0.114,0.573,0.114,1.081v2.672C385.729,26.129,385.787,26.527,385.904,26.938z M384.428,23.926c-1.727,0-2.59,0.412-2.59,1.236
				c0,0.246,0.087,0.456,0.261,0.63s0.437,0.261,0.788,0.261c0.508,0,0.892-0.161,1.151-0.483s0.39-0.688,0.39-1.099V23.926z"/>
			<path fill="#85D825" d="M388.658,20.328h-1.336v-1.389h1.336V20.328z M388.658,26.938h-1.336V21.02h1.336V26.938z"/>
			<path fill="#85D825" d="M391.6,26.938h-1.336V21.02h1.207v1.412c0.172-0.551,0.408-0.953,0.709-1.207s0.609-0.381,0.926-0.381
				c0.043,0,0.102,0.002,0.176,0.006v1.436c-0.68,0-1.13,0.217-1.351,0.65s-0.331,0.854-0.331,1.26V26.938z"/>
			<path fill="#85D825" d="M398.004,25.051l1.207,0.164c-0.156,0.535-0.461,0.977-0.914,1.324s-1.021,0.521-1.705,0.521
				c-0.82,0-1.48-0.275-1.98-0.826s-0.75-1.297-0.75-2.238c0-0.895,0.252-1.635,0.756-2.221s1.188-0.879,2.051-0.879
				c0.844,0,1.496,0.289,1.957,0.867s0.691,1.32,0.691,2.227l-0.006,0.152h-4.061c0,0.402,0.038,0.725,0.114,0.967
				s0.228,0.453,0.454,0.633s0.51,0.27,0.85,0.27C397.328,26.012,397.773,25.691,398.004,25.051z M397.922,23.281
				c-0.004-0.426-0.132-0.773-0.384-1.043s-0.563-0.404-0.935-0.404c-0.367,0-0.674,0.126-0.92,0.378s-0.391,0.608-0.434,1.069
				H397.922z"/>
			<path fill="#85D825" d="M411.457,26.938h-1.471v-7.002l-2.215,7.002h-0.756l-2.227-7.002v7.002h-1.178v-7.998h2.256l1.676,5.15
				l1.646-5.15h2.268V26.938z"/>
			<path fill="#85D825" d="M418.207,26.938h-1.271c-0.113-0.359-0.182-0.758-0.205-1.195c-0.355,0.879-1.023,1.318-2.004,1.318
				c-0.59,0-1.063-0.173-1.421-0.519s-0.536-0.78-0.536-1.304c0-1.359,1.193-2.039,3.58-2.039c0.094,0,0.221,0.002,0.381,0.006
				V22.76c0-0.613-0.418-0.92-1.254-0.92c-0.813,0-1.273,0.307-1.383,0.92l-1.137-0.17c0.063-0.492,0.316-0.897,0.762-1.216
				s1.09-0.478,1.934-0.478c0.457,0,0.83,0.038,1.119,0.114s0.533,0.205,0.732,0.387s0.337,0.379,0.413,0.592
				s0.114,0.573,0.114,1.081v2.672C418.031,26.129,418.09,26.527,418.207,26.938z M416.73,23.926c-1.727,0-2.59,0.412-2.59,1.236
				c0,0.246,0.087,0.456,0.261,0.63s0.437,0.261,0.788,0.261c0.508,0,0.892-0.161,1.151-0.483s0.39-0.688,0.39-1.099V23.926z"/>
			<path fill="#85D825" d="M424.5,26.938h-1.242V25.66c-0.336,0.934-0.959,1.4-1.869,1.4c-0.539,0-0.967-0.167-1.283-0.501
				s-0.475-0.8-0.475-1.397V21.02h1.365v3.855c0,0.426,0.094,0.705,0.281,0.838s0.371,0.199,0.551,0.199
				c0.289,0,0.584-0.13,0.885-0.39s0.451-0.813,0.451-1.661V21.02h1.336V26.938z"/>
			<path fill="#85D825" d="M429.521,24.764l1.148,0.117c-0.148,0.742-0.436,1.291-0.861,1.646s-0.939,0.533-1.541,0.533
				c-0.816,0-1.444-0.298-1.884-0.894s-0.659-1.325-0.659-2.188c0-0.891,0.24-1.627,0.721-2.209s1.121-0.873,1.922-0.873
				c1.289,0,2.057,0.68,2.303,2.039l-1.148,0.158c-0.102-0.734-0.463-1.102-1.084-1.102c-0.453,0-0.782,0.198-0.987,0.595
				s-0.308,0.876-0.308,1.438c0,0.598,0.106,1.059,0.319,1.383s0.511,0.486,0.894,0.486
				C428.941,25.895,429.33,25.518,429.521,24.764z"/>
			<path fill="#85D825" d="M436.652,26.938h-1.336v-3.873c0-0.418-0.089-0.712-0.267-0.882s-0.386-0.255-0.624-0.255
				c-0.379,0-0.697,0.15-0.955,0.451s-0.387,0.797-0.387,1.488v3.07h-1.336v-7.998h1.336v3.117c0.332-0.852,0.914-1.277,1.746-1.277
				c1.215,0,1.822,0.697,1.822,2.092V26.938z"/>
			<path fill="#85D825" d="M439.588,20.328h-1.336v-1.389h1.336V20.328z M439.588,26.938h-1.336V21.02h1.336V26.938z"/>
			<path fill="#85D825" d="M446.092,26.938h-1.336V23.24c0-0.391-0.09-0.685-0.27-0.882s-0.396-0.296-0.65-0.296
				c-0.348,0-0.652,0.152-0.914,0.457s-0.393,0.764-0.393,1.377v3.041h-1.336V21.02h1.219v1.371
				c0.426-0.996,1.023-1.494,1.793-1.494c0.52,0,0.964,0.164,1.333,0.492s0.554,0.904,0.554,1.729V26.938z"/>
			<path fill="#85D825" d="M452.449,18.939l-0.592,5.572h-0.609l-0.563-5.572H452.449z M452.268,25.473v1.465h-1.459v-1.465H452.268
				z"/>
			<path fill="#B3B3B3" d="M315.82,41.338h-1.441V33.34h3.275c0.934,0,1.626,0.235,2.077,0.706s0.677,1.026,0.677,1.667
				c0,0.73-0.244,1.322-0.732,1.775s-1.107,0.68-1.857,0.68h-1.998V41.338z M315.82,36.932h1.705c0.445,0,0.785-0.109,1.02-0.328
				s0.352-0.51,0.352-0.873c0-0.328-0.108-0.609-0.325-0.844s-0.608-0.352-1.175-0.352h-1.576V36.932z"/>
			<path fill="#B3B3B3" d="M322.822,41.338h-1.336V33.34h1.336V41.338z"/>
			<path fill="#B3B3B3" d="M329.49,41.338h-1.271c-0.113-0.359-0.182-0.758-0.205-1.195c-0.355,0.879-1.023,1.318-2.004,1.318
				c-0.59,0-1.063-0.173-1.421-0.519s-0.536-0.78-0.536-1.304c0-1.359,1.193-2.039,3.58-2.039c0.094,0,0.221,0.002,0.381,0.006
				V37.16c0-0.613-0.418-0.92-1.254-0.92c-0.813,0-1.273,0.307-1.383,0.92l-1.137-0.17c0.063-0.492,0.316-0.897,0.762-1.216
				s1.09-0.478,1.934-0.478c0.457,0,0.83,0.038,1.119,0.114s0.533,0.205,0.732,0.387s0.337,0.379,0.413,0.592
				s0.114,0.573,0.114,1.081v2.672C329.314,40.529,329.373,40.928,329.49,41.338z M328.014,38.326c-1.727,0-2.59,0.412-2.59,1.236
				c0,0.246,0.087,0.456,0.261,0.63s0.437,0.261,0.788,0.261c0.508,0,0.892-0.161,1.151-0.483s0.39-0.688,0.39-1.099V38.326z"/>
			<path fill="#B3B3B3" d="M335.813,41.338h-1.336v-3.697c0-0.391-0.09-0.685-0.27-0.882s-0.396-0.296-0.65-0.296
				c-0.348,0-0.652,0.152-0.914,0.457s-0.393,0.764-0.393,1.377v3.041h-1.336V35.42h1.219v1.371
				c0.426-0.996,1.023-1.494,1.793-1.494c0.52,0,0.964,0.164,1.333,0.492s0.554,0.904,0.554,1.729V41.338z"/>
			<path fill="#B3B3B3" d="M342.311,41.338h-1.336v-3.697c0-0.391-0.09-0.685-0.27-0.882s-0.396-0.296-0.65-0.296
				c-0.348,0-0.652,0.152-0.914,0.457s-0.393,0.764-0.393,1.377v3.041h-1.336V35.42h1.219v1.371
				c0.426-0.996,1.023-1.494,1.793-1.494c0.52,0,0.964,0.164,1.333,0.492s0.554,0.904,0.554,1.729V41.338z"/>
			<path fill="#B3B3B3" d="M345.24,34.729h-1.336V33.34h1.336V34.729z M345.24,41.338h-1.336V35.42h1.336V41.338z"/>
			<path fill="#B3B3B3" d="M351.744,41.338h-1.336v-3.697c0-0.391-0.09-0.685-0.27-0.882s-0.396-0.296-0.65-0.296
				c-0.348,0-0.652,0.152-0.914,0.457s-0.393,0.764-0.393,1.377v3.041h-1.336V35.42h1.219v1.371
				c0.426-0.996,1.023-1.494,1.793-1.494c0.52,0,0.964,0.164,1.333,0.492s0.554,0.904,0.554,1.729V41.338z"/>
			<path fill="#B3B3B3" d="M358.74,34.289v1.025h-0.41c-0.18,0-0.337,0.021-0.472,0.064s-0.267,0.182-0.396,0.416
				c0.469,0.383,0.703,0.809,0.703,1.277c0,0.523-0.22,0.957-0.659,1.301s-1.021,0.516-1.743,0.516
				c-0.313,0-0.678-0.051-1.096-0.152c-0.273,0.125-0.41,0.318-0.41,0.58c0,0.145,0.066,0.277,0.199,0.398s0.334,0.182,0.604,0.182
				h1.758c0.602,0,1.073,0.155,1.415,0.466s0.513,0.696,0.513,1.157c0,0.559-0.259,1.021-0.776,1.389s-1.284,0.551-2.3,0.551
				c-1.91,0-2.865-0.533-2.865-1.6c0-0.527,0.287-0.928,0.861-1.201c-0.367-0.313-0.551-0.639-0.551-0.979
				c0-0.516,0.314-0.926,0.943-1.23c-0.547-0.332-0.82-0.789-0.82-1.371c0-0.492,0.201-0.912,0.604-1.26s1.014-0.521,1.834-0.521
				c0.375,0,0.756,0.041,1.143,0.123c0.18-0.754,0.654-1.131,1.424-1.131H358.74z M354.24,41.016
				c-0.191,0.176-0.287,0.346-0.287,0.51c0,0.27,0.16,0.507,0.48,0.712s0.83,0.308,1.529,0.308c1.027,0,1.541-0.264,1.541-0.791
				c0-0.195-0.09-0.343-0.27-0.442s-0.385-0.149-0.615-0.149h-1.418C354.932,41.162,354.611,41.113,354.24,41.016z M355.705,38.098
				c0.727,0,1.09-0.342,1.09-1.025c0-0.262-0.091-0.482-0.272-0.662s-0.446-0.27-0.794-0.27c-0.352,0-0.624,0.094-0.817,0.281
				s-0.29,0.422-0.29,0.703c0,0.289,0.096,0.523,0.287,0.703S355.365,38.098,355.705,38.098z"/>
			<path fill="#B3B3B3" d="M367.424,41.338h-1.248v-1.195c-0.344,0.879-0.926,1.318-1.746,1.318c-0.727,0-1.283-0.303-1.67-0.908
				s-0.58-1.357-0.58-2.256c0-0.836,0.201-1.564,0.604-2.186s0.975-0.932,1.717-0.932c0.762,0,1.291,0.348,1.588,1.043V33.34h1.336
				V41.338z M366.088,37.846c0-0.48-0.114-0.854-0.343-1.122s-0.524-0.401-0.888-0.401c-0.395,0-0.703,0.172-0.926,0.516
				s-0.334,0.857-0.334,1.541c0,1.32,0.414,1.98,1.242,1.98c0.328,0,0.618-0.142,0.87-0.425s0.378-0.646,0.378-1.087V37.846z"/>
			<path fill="#B3B3B3" d="M373.893,41.338h-1.242v-1.277c-0.336,0.934-0.959,1.4-1.869,1.4c-0.539,0-0.967-0.167-1.283-0.501
				s-0.475-0.8-0.475-1.397V35.42h1.365v3.855c0,0.426,0.094,0.705,0.281,0.838s0.371,0.199,0.551,0.199
				c0.289,0,0.584-0.13,0.885-0.39s0.451-0.813,0.451-1.661V35.42h1.336V41.338z"/>
			<path fill="#B3B3B3" d="M387.334,41.338h-1.4v-3.686c0-0.766-0.34-1.148-1.02-1.148c-0.395,0-0.71,0.145-0.946,0.434
				s-0.354,0.721-0.354,1.295v3.105h-1.418v-3.686c0-0.777-0.318-1.166-0.955-1.166c-0.387,0-0.712,0.156-0.976,0.469
				s-0.396,0.738-0.396,1.277v3.105h-1.377V35.42h1.295v1.26c0.422-0.922,1.08-1.383,1.975-1.383c0.871,0,1.438,0.461,1.699,1.383
				c0.477-0.922,1.135-1.383,1.975-1.383c0.57,0,1.029,0.178,1.377,0.533s0.521,0.797,0.521,1.324V41.338z"/>
			<path fill="#B3B3B3" d="M394.002,41.338h-1.271c-0.113-0.359-0.182-0.758-0.205-1.195c-0.355,0.879-1.023,1.318-2.004,1.318
				c-0.59,0-1.063-0.173-1.421-0.519s-0.536-0.78-0.536-1.304c0-1.359,1.193-2.039,3.58-2.039c0.094,0,0.221,0.002,0.381,0.006
				V37.16c0-0.613-0.418-0.92-1.254-0.92c-0.813,0-1.273,0.307-1.383,0.92l-1.137-0.17c0.063-0.492,0.316-0.897,0.762-1.216
				s1.09-0.478,1.934-0.478c0.457,0,0.83,0.038,1.119,0.114s0.533,0.205,0.732,0.387s0.337,0.379,0.413,0.592
				s0.114,0.573,0.114,1.081v2.672C393.826,40.529,393.885,40.928,394.002,41.338z M392.525,38.326c-1.727,0-2.59,0.412-2.59,1.236
				c0,0.246,0.087,0.456,0.261,0.63s0.437,0.261,0.788,0.261c0.508,0,0.892-0.161,1.151-0.483s0.39-0.688,0.39-1.099V38.326z"/>
			<path fill="#B3B3B3" d="M394.705,39.979l1.254-0.24c0.191,0.48,0.613,0.721,1.266,0.721c0.828,0,1.242-0.244,1.242-0.732
				c0-0.156-0.064-0.285-0.193-0.387s-0.281-0.17-0.457-0.205l-1.078-0.205c-1.195-0.23-1.793-0.814-1.793-1.752
				c0-0.523,0.189-0.968,0.568-1.333s0.943-0.548,1.693-0.548c1.25,0,2.014,0.459,2.291,1.377l-1.189,0.24
				c-0.125-0.445-0.48-0.668-1.066-0.668c-0.711,0-1.066,0.223-1.066,0.668c0,0.309,0.287,0.521,0.861,0.639l1.271,0.264
				c0.988,0.203,1.482,0.77,1.482,1.699c0,0.652-0.254,1.14-0.762,1.462s-1.111,0.483-1.811,0.483c-0.605,0-1.141-0.122-1.605-0.366
				S394.846,40.479,394.705,39.979z"/>
			<path fill="#B3B3B3" d="M403.617,40.295v1.043c-0.398,0.086-0.707,0.129-0.926,0.129c-0.359,0-0.668-0.071-0.926-0.214
				s-0.446-0.338-0.565-0.586s-0.179-0.63-0.179-1.146v-3.064h-0.738V35.42h0.814l0.123-1.541l1.096-0.1v1.641h1.189v1.037h-1.189
				v2.889c0,0.371,0.067,0.624,0.202,0.759s0.39,0.202,0.765,0.202C403.389,40.307,403.5,40.303,403.617,40.295z"/>
			<path fill="#B3B3B3" d="M408.334,39.451l1.207,0.164c-0.156,0.535-0.461,0.977-0.914,1.324s-1.021,0.521-1.705,0.521
				c-0.82,0-1.48-0.275-1.98-0.826s-0.75-1.297-0.75-2.238c0-0.895,0.252-1.635,0.756-2.221s1.188-0.879,2.051-0.879
				c0.844,0,1.496,0.289,1.957,0.867s0.691,1.32,0.691,2.227l-0.006,0.152h-4.061c0,0.402,0.038,0.725,0.114,0.967
				s0.228,0.453,0.454,0.633s0.51,0.27,0.85,0.27C407.658,40.412,408.104,40.092,408.334,39.451z M408.252,37.682
				c-0.004-0.426-0.132-0.773-0.384-1.043s-0.563-0.404-0.935-0.404c-0.367,0-0.674,0.126-0.92,0.378s-0.391,0.608-0.434,1.069
				H408.252z"/>
			<path fill="#B3B3B3" d="M412.201,41.338h-1.336V35.42h1.207v1.412c0.172-0.551,0.408-0.953,0.709-1.207s0.609-0.381,0.926-0.381
				c0.043,0,0.102,0.002,0.176,0.006v1.436c-0.68,0-1.13,0.217-1.351,0.65s-0.331,0.854-0.331,1.26V41.338z"/>
			<path fill="#B3B3B3" d="M423.984,41.338h-6.123V40.16h2.408v-5.051c-0.801,0.699-1.529,1.18-2.186,1.441v-1.441
				c0.668-0.254,1.086-0.435,1.254-0.542s0.414-0.307,0.738-0.598s0.553-0.556,0.686-0.794h0.961v6.984h2.262V41.338z"/>
			<path fill="#B3B3B3" d="M427.916,41.338V33.34h2.947c1.09,0,1.965,0.386,2.625,1.157s0.99,1.724,0.99,2.856
				s-0.34,2.08-1.02,2.842s-1.652,1.143-2.918,1.143H427.916z M429.398,40.16h1.201c0.645,0,1.191-0.242,1.641-0.727
				s0.674-1.205,0.674-2.162c0-0.781-0.196-1.442-0.589-1.983s-0.911-0.812-1.556-0.812h-1.371V40.16z"/>
			<path fill="#B3B3B3" d="M437.256,41.338h-1.441V33.34h1.441V41.338z"/>
			<path fill="#B3B3B3" d="M446.859,41.338h-1.471v-7.002l-2.215,7.002h-0.756l-2.227-7.002v7.002h-1.178V33.34h2.256l1.676,5.15
				l1.646-5.15h2.268V41.338z"/>
			<path fill="#B3B3B3" d="M450.064,41.338h-1.441V33.34h1.441V41.338z"/>
			<path fill="#B3B3B3" d="M317.958,51.023l1.113,0.122c-0.072,0.667-0.33,1.217-0.774,1.647c-0.444,0.432-1.028,0.647-1.75,0.647
				c-0.609,0-1.103-0.153-1.482-0.459s-0.671-0.722-0.876-1.245s-0.308-1.102-0.308-1.733c0-1.016,0.241-1.842,0.723-2.478
				c0.482-0.637,1.144-0.955,1.987-0.955c0.661,0,1.211,0.203,1.65,0.61s0.716,0.989,0.83,1.748l-1.113,0.117
				c-0.205-1.006-0.658-1.509-1.357-1.509c-0.449,0-0.798,0.209-1.047,0.627c-0.249,0.419-0.374,1.025-0.374,1.819
				c0,0.808,0.133,1.417,0.4,1.829c0.267,0.411,0.62,0.617,1.06,0.617c0.352,0,0.651-0.139,0.898-0.415
				S317.925,51.408,317.958,51.023z"/>
			<path fill="#B3B3B3" d="M323.095,51.766l1.006,0.137c-0.13,0.445-0.384,0.814-0.762,1.104s-0.851,0.435-1.421,0.435
				c-0.684,0-1.234-0.229-1.65-0.688s-0.625-1.08-0.625-1.865c0-0.746,0.21-1.362,0.63-1.851s0.99-0.732,1.709-0.732
				c0.703,0,1.247,0.241,1.631,0.723s0.576,1.101,0.576,1.855l-0.005,0.127H320.8c0,0.335,0.032,0.604,0.095,0.806
				s0.189,0.377,0.378,0.527s0.425,0.225,0.708,0.225C322.532,52.566,322.903,52.299,323.095,51.766z M323.026,50.291
				c-0.003-0.355-0.11-0.645-0.32-0.869s-0.47-0.337-0.779-0.337c-0.306,0-0.562,0.104-0.767,0.315
				c-0.205,0.209-0.326,0.506-0.361,0.891H323.026z"/>
			<path fill="#B3B3B3" d="M331.786,53.338h-1.113v-3.081c0-0.325-0.075-0.57-0.225-0.735c-0.15-0.164-0.331-0.246-0.542-0.246
				c-0.29,0-0.543,0.127-0.762,0.381s-0.327,0.637-0.327,1.147v2.534h-1.113v-4.932h1.016v1.143c0.355-0.83,0.853-1.245,1.494-1.245
				c0.433,0,0.803,0.137,1.111,0.41s0.461,0.753,0.461,1.44V53.338z"/>
			<path fill="#B3B3B3" d="M334.208,46.673v1.099l-0.747,1.309H333.1l0.537-1.309H333.1v-1.099H334.208z"/>
			<path fill="#B3B3B3" d="M338.661,51.766l1.006,0.137c-0.13,0.445-0.384,0.814-0.762,1.104s-0.851,0.435-1.421,0.435
				c-0.684,0-1.234-0.229-1.65-0.688s-0.625-1.08-0.625-1.865c0-0.746,0.21-1.362,0.63-1.851s0.99-0.732,1.709-0.732
				c0.703,0,1.247,0.241,1.631,0.723s0.576,1.101,0.576,1.855l-0.005,0.127h-3.384c0,0.335,0.032,0.604,0.095,0.806
				s0.189,0.377,0.378,0.527s0.425,0.225,0.708,0.225C338.098,52.566,338.469,52.299,338.661,51.766z M338.593,50.291
				c-0.003-0.355-0.11-0.645-0.32-0.869s-0.47-0.337-0.779-0.337c-0.306,0-0.562,0.104-0.767,0.315
				c-0.205,0.209-0.326,0.506-0.361,0.891H338.593z"/>
			<path fill="#B3B3B3" d="M340.17,52.205l1.045-0.2c0.16,0.4,0.511,0.601,1.055,0.601c0.69,0,1.035-0.203,1.035-0.61
				c0-0.13-0.054-0.237-0.161-0.322s-0.234-0.142-0.381-0.171l-0.898-0.171c-0.996-0.192-1.494-0.679-1.494-1.46
				c0-0.436,0.158-0.807,0.474-1.111c0.316-0.304,0.786-0.456,1.411-0.456c1.042,0,1.678,0.382,1.909,1.147l-0.991,0.2
				c-0.104-0.371-0.4-0.557-0.889-0.557c-0.592,0-0.889,0.186-0.889,0.557c0,0.257,0.239,0.435,0.718,0.532l1.06,0.22
				c0.824,0.169,1.235,0.642,1.235,1.416c0,0.544-0.211,0.95-0.635,1.218c-0.423,0.27-0.926,0.403-1.509,0.403
				c-0.504,0-0.951-0.102-1.338-0.306C340.54,52.932,340.287,52.621,340.17,52.205z"/>
			<path fill="#B3B3B3" d="M347.597,52.469v0.869c-0.332,0.072-0.589,0.107-0.771,0.107c-0.299,0-0.557-0.06-0.771-0.178
				c-0.215-0.119-0.372-0.282-0.471-0.488c-0.099-0.207-0.149-0.525-0.149-0.955v-2.554h-0.615v-0.864h0.679l0.103-1.284
				l0.913-0.083v1.367h0.991v0.864h-0.991v2.407c0,0.309,0.056,0.52,0.168,0.633c0.112,0.111,0.325,0.168,0.637,0.168
				C347.406,52.479,347.499,52.475,347.597,52.469z"/>
			<path fill="#B3B3B3" d="M352.167,55.003h-1.133v-6.597h1.064v0.859c0.342-0.641,0.845-0.962,1.509-0.962
				c0.547,0,0.983,0.237,1.309,0.713s0.488,1.083,0.488,1.821c0,0.699-0.155,1.309-0.466,1.826s-0.774,0.776-1.389,0.776
				c-0.635,0-1.095-0.264-1.382-0.791V55.003z M352.167,51.316c0,0.357,0.106,0.655,0.32,0.891c0.213,0.236,0.45,0.354,0.71,0.354
				c0.355,0,0.614-0.155,0.779-0.466c0.165-0.312,0.247-0.706,0.247-1.185c0-0.501-0.083-0.909-0.249-1.224
				c-0.166-0.313-0.414-0.471-0.742-0.471c-0.296,0-0.548,0.129-0.754,0.386s-0.31,0.595-0.31,1.011V51.316z"/>
			<path fill="#B3B3B3" d="M360.639,53.338h-1.06c-0.094-0.299-0.151-0.631-0.171-0.996c-0.296,0.732-0.853,1.099-1.67,1.099
				c-0.492,0-0.886-0.144-1.184-0.433c-0.298-0.287-0.447-0.65-0.447-1.086c0-1.133,0.995-1.699,2.983-1.699
				c0.078,0,0.184,0.002,0.317,0.005v-0.371c0-0.511-0.348-0.767-1.045-0.767c-0.677,0-1.061,0.256-1.152,0.767l-0.947-0.142
				c0.052-0.41,0.264-0.748,0.635-1.014c0.371-0.265,0.908-0.397,1.611-0.397c0.381,0,0.692,0.032,0.933,0.095
				c0.241,0.064,0.444,0.172,0.61,0.322c0.166,0.152,0.281,0.316,0.344,0.494c0.063,0.177,0.095,0.477,0.095,0.9v2.227
				C360.492,52.664,360.541,52.996,360.639,53.338z M359.408,50.828c-1.439,0-2.158,0.344-2.158,1.03
				c0,0.205,0.072,0.38,0.217,0.524c0.145,0.146,0.364,0.218,0.657,0.218c0.423,0,0.743-0.134,0.959-0.403
				c0.216-0.268,0.325-0.573,0.325-0.915V50.828z"/>
			<path fill="#B3B3B3" d="M361.225,52.205l1.045-0.2c0.16,0.4,0.511,0.601,1.055,0.601c0.69,0,1.035-0.203,1.035-0.61
				c0-0.13-0.054-0.237-0.161-0.322s-0.234-0.142-0.381-0.171l-0.898-0.171c-0.996-0.192-1.494-0.679-1.494-1.46
				c0-0.436,0.158-0.807,0.474-1.111c0.316-0.304,0.786-0.456,1.411-0.456c1.042,0,1.678,0.382,1.909,1.147l-0.991,0.2
				c-0.104-0.371-0.4-0.557-0.889-0.557c-0.592,0-0.889,0.186-0.889,0.557c0,0.257,0.239,0.435,0.718,0.532l1.06,0.22
				c0.824,0.169,1.235,0.642,1.235,1.416c0,0.544-0.211,0.95-0.635,1.218c-0.423,0.27-0.926,0.403-1.509,0.403
				c-0.504,0-0.951-0.102-1.338-0.306C361.594,52.932,361.342,52.621,361.225,52.205z"/>
			<path fill="#B3B3B3" d="M369.975,53.338h-1.113v-6.665h1.113V53.338z"/>
			<path fill="#B3B3B3" d="M374.447,51.766l1.006,0.137c-0.13,0.445-0.384,0.814-0.762,1.104s-0.851,0.435-1.421,0.435
				c-0.684,0-1.234-0.229-1.65-0.688s-0.625-1.08-0.625-1.865c0-0.746,0.21-1.362,0.63-1.851s0.99-0.732,1.709-0.732
				c0.703,0,1.247,0.241,1.631,0.723s0.576,1.101,0.576,1.855l-0.005,0.127h-3.384c0,0.335,0.032,0.604,0.095,0.806
				s0.189,0.377,0.378,0.527s0.425,0.225,0.708,0.225C373.884,52.566,374.255,52.299,374.447,51.766z M374.379,50.291
				c-0.003-0.355-0.11-0.645-0.32-0.869s-0.47-0.337-0.779-0.337c-0.306,0-0.562,0.104-0.767,0.315
				c-0.205,0.209-0.326,0.506-0.361,0.891H374.379z"/>
			<path fill="#B3B3B3" d="M382.768,48.406l-1.675,4.932h-0.923l-1.714-4.932h1.162l1.152,3.345l1.123-3.345H382.768z"/>
			<path fill="#B3B3B3" d="M385.429,53.44c-0.729,0-1.286-0.263-1.67-0.786s-0.576-1.125-0.576-1.802
				c0-0.729,0.212-1.337,0.637-1.821s0.985-0.728,1.682-0.728c0.661,0,1.204,0.235,1.628,0.708s0.637,1.086,0.637,1.841
				c0,0.778-0.221,1.403-0.662,1.878C386.665,53.203,386.106,53.44,385.429,53.44z M385.512,46.131l1.694,1.406l-0.879,0.103
				l-0.815-0.645l-0.815,0.645l-0.884-0.103L385.512,46.131z M385.468,52.522c0.749,0,1.123-0.558,1.123-1.675
				c0-0.504-0.089-0.902-0.269-1.193c-0.179-0.292-0.454-0.438-0.825-0.438c-0.384,0-0.669,0.15-0.854,0.451
				c-0.186,0.302-0.278,0.701-0.278,1.199c0,0.537,0.099,0.947,0.295,1.23S385.126,52.522,385.468,52.522z"/>
			<path fill="#B3B3B3" d="M391.073,52.469v0.869c-0.332,0.072-0.589,0.107-0.771,0.107c-0.299,0-0.557-0.06-0.771-0.178
				c-0.215-0.119-0.372-0.282-0.471-0.488c-0.099-0.207-0.149-0.525-0.149-0.955v-2.554h-0.615v-0.864h0.679l0.103-1.284
				l0.913-0.083v1.367h0.991v0.864h-0.991v2.407c0,0.309,0.056,0.52,0.168,0.633c0.112,0.111,0.325,0.168,0.637,0.168
				C390.883,52.479,390.976,52.475,391.073,52.469z"/>
			<path fill="#B3B3B3" d="M393.124,53.338h-1.113v-4.932h1.006v1.177c0.143-0.459,0.34-0.794,0.591-1.006s0.508-0.317,0.771-0.317
				c0.036,0,0.084,0.002,0.146,0.005v1.196c-0.566,0-0.941,0.181-1.125,0.542s-0.276,0.712-0.276,1.05V53.338z"/>
			<path fill="#B3B3B3" d="M398.461,51.766l1.006,0.137c-0.13,0.445-0.384,0.814-0.762,1.104s-0.851,0.435-1.421,0.435
				c-0.684,0-1.234-0.229-1.65-0.688s-0.625-1.08-0.625-1.865c0-0.746,0.21-1.362,0.63-1.851s0.99-0.732,1.709-0.732
				c0.703,0,1.247,0.241,1.631,0.723s0.576,1.101,0.576,1.855l-0.005,0.127h-3.384c0,0.335,0.032,0.604,0.095,0.806
				s0.189,0.377,0.378,0.527s0.425,0.225,0.708,0.225C397.898,52.566,398.269,52.299,398.461,51.766z M398.393,50.291
				c-0.003-0.355-0.11-0.645-0.32-0.869s-0.47-0.337-0.779-0.337c-0.306,0-0.562,0.104-0.767,0.315
				c-0.205,0.209-0.326,0.506-0.361,0.891H398.393z"/>
			<path fill="#B3B3B3" d="M405.331,51.424h-0.952v-0.659c0-0.222,0.045-0.396,0.134-0.522s0.286-0.308,0.588-0.542
				c0.462-0.354,0.693-0.731,0.693-1.128c0-0.299-0.09-0.537-0.271-0.713s-0.416-0.264-0.706-0.264c-0.67,0-1.066,0.464-1.187,1.392
				l-1.064-0.19c0.065-0.693,0.321-1.238,0.769-1.633c0.448-0.396,0.984-0.594,1.609-0.594c0.622,0,1.136,0.185,1.543,0.555
				c0.407,0.369,0.61,0.828,0.61,1.379c0,0.273-0.056,0.533-0.168,0.779c-0.112,0.245-0.24,0.436-0.383,0.57
				c-0.143,0.136-0.446,0.373-0.908,0.711c-0.13,0.094-0.213,0.187-0.249,0.275C405.354,50.93,405.334,51.125,405.331,51.424z
				 M405.526,52.117v1.221h-1.147v-1.221H405.526z"/>
			<path fill="#85D825" d="M417.509,49.061c0.771,0.854,1.444,1.395,2.017,1.626v0.22c-0.622,0.287-1.295,0.842-2.021,1.665h-0.376
				c0.309-0.674,0.63-1.177,0.962-1.509h-7.788v-0.493h7.788c-0.371-0.452-0.688-0.956-0.952-1.509H417.509z"/>
			<path fill="#85D825" d="M426.874,51.023l1.113,0.122c-0.072,0.667-0.33,1.217-0.774,1.647c-0.444,0.432-1.028,0.647-1.75,0.647
				c-0.609,0-1.103-0.153-1.482-0.459s-0.671-0.722-0.876-1.245s-0.308-1.102-0.308-1.733c0-1.016,0.241-1.842,0.723-2.478
				c0.482-0.637,1.144-0.955,1.987-0.955c0.661,0,1.211,0.203,1.65,0.61s0.716,0.989,0.83,1.748l-1.113,0.117
				c-0.205-1.006-0.658-1.509-1.357-1.509c-0.449,0-0.798,0.209-1.047,0.627c-0.249,0.419-0.374,1.025-0.374,1.819
				c0,0.808,0.133,1.417,0.4,1.829c0.267,0.411,0.62,0.617,1.06,0.617c0.352,0,0.651-0.139,0.898-0.415
				S426.841,51.408,426.874,51.023z"/>
			<path fill="#85D825" d="M432.958,53.338h-1.113V50.11c0-0.349-0.074-0.593-0.222-0.735c-0.148-0.141-0.321-0.212-0.52-0.212
				c-0.316,0-0.581,0.126-0.796,0.376s-0.322,0.664-0.322,1.24v2.559h-1.113v-6.665h1.113v2.598c0.277-0.71,0.762-1.064,1.455-1.064
				c1.012,0,1.519,0.581,1.519,1.743V53.338z"/>
			<path fill="#85D825" d="M438.515,53.338h-1.06c-0.094-0.299-0.151-0.631-0.171-0.996c-0.296,0.732-0.853,1.099-1.67,1.099
				c-0.492,0-0.886-0.144-1.184-0.433c-0.298-0.287-0.447-0.65-0.447-1.086c0-1.133,0.995-1.699,2.983-1.699
				c0.078,0,0.184,0.002,0.317,0.005v-0.371c0-0.511-0.348-0.767-1.045-0.767c-0.677,0-1.061,0.256-1.152,0.767l-0.947-0.142
				c0.052-0.41,0.264-0.748,0.635-1.014c0.371-0.265,0.908-0.397,1.611-0.397c0.381,0,0.692,0.032,0.933,0.095
				c0.241,0.064,0.444,0.172,0.61,0.322c0.166,0.152,0.281,0.316,0.344,0.494c0.063,0.177,0.095,0.477,0.095,0.9v2.227
				C438.368,52.664,438.417,52.996,438.515,53.338z M437.284,50.828c-1.439,0-2.158,0.344-2.158,1.03
				c0,0.205,0.072,0.38,0.217,0.524c0.145,0.146,0.364,0.218,0.657,0.218c0.423,0,0.743-0.134,0.959-0.403
				c0.216-0.268,0.325-0.573,0.325-0.915V50.828z"/>
			<path fill="#85D825" d="M443.783,53.338h-1.113v-3.081c0-0.325-0.075-0.57-0.225-0.735c-0.15-0.164-0.331-0.246-0.542-0.246
				c-0.29,0-0.543,0.127-0.762,0.381s-0.327,0.637-0.327,1.147v2.534h-1.113v-4.932h1.016v1.143c0.355-0.83,0.853-1.245,1.494-1.245
				c0.433,0,0.803,0.137,1.111,0.41s0.461,0.753,0.461,1.44V53.338z"/>
			<path fill="#85D825" d="M449.613,47.464v0.854h-0.342c-0.15,0-0.281,0.018-0.393,0.054s-0.222,0.151-0.33,0.347
				c0.391,0.318,0.586,0.674,0.586,1.064c0,0.436-0.183,0.797-0.549,1.084s-0.851,0.43-1.453,0.43c-0.26,0-0.565-0.043-0.913-0.127
				c-0.228,0.104-0.342,0.266-0.342,0.483c0,0.12,0.055,0.231,0.166,0.332s0.278,0.151,0.503,0.151h1.465
				c0.501,0,0.895,0.129,1.179,0.389c0.285,0.258,0.427,0.58,0.427,0.964c0,0.466-0.216,0.851-0.647,1.157s-1.07,0.459-1.917,0.459
				c-1.592,0-2.388-0.444-2.388-1.333c0-0.439,0.239-0.772,0.718-1.001c-0.306-0.26-0.459-0.532-0.459-0.815
				c0-0.43,0.262-0.771,0.786-1.025c-0.456-0.276-0.684-0.657-0.684-1.143c0-0.41,0.167-0.761,0.503-1.05s0.845-0.435,1.528-0.435
				c0.313,0,0.63,0.034,0.952,0.103c0.15-0.629,0.545-0.942,1.187-0.942H449.613z M445.863,53.069
				c-0.16,0.146-0.239,0.288-0.239,0.425c0,0.225,0.133,0.422,0.4,0.594c0.267,0.17,0.692,0.256,1.274,0.256
				c0.856,0,1.284-0.22,1.284-0.659c0-0.163-0.075-0.286-0.225-0.368c-0.15-0.084-0.321-0.125-0.513-0.125h-1.182
				C446.439,53.191,446.172,53.15,445.863,53.069z M447.084,50.638c0.605,0,0.908-0.284,0.908-0.854
				c0-0.219-0.076-0.402-0.227-0.552s-0.372-0.225-0.662-0.225c-0.293,0-0.52,0.078-0.681,0.234s-0.242,0.352-0.242,0.586
				c0,0.241,0.08,0.437,0.239,0.586S446.801,50.638,447.084,50.638z"/>
			<path fill="#85D825" d="M453.432,51.766l1.006,0.137c-0.13,0.445-0.384,0.814-0.762,1.104s-0.851,0.435-1.421,0.435
				c-0.684,0-1.234-0.229-1.65-0.688s-0.625-1.08-0.625-1.865c0-0.746,0.21-1.362,0.63-1.851s0.99-0.732,1.709-0.732
				c0.703,0,1.247,0.241,1.631,0.723s0.576,1.101,0.576,1.855l-0.005,0.127h-3.384c0,0.335,0.032,0.604,0.095,0.806
				s0.189,0.377,0.378,0.527s0.425,0.225,0.708,0.225C452.869,52.566,453.24,52.299,453.432,51.766z M453.363,50.291
				c-0.003-0.355-0.11-0.645-0.32-0.869s-0.47-0.337-0.779-0.337c-0.306,0-0.562,0.104-0.767,0.315
				c-0.205,0.209-0.326,0.506-0.361,0.891H453.363z"/>
			<path fill="#85D825" d="M456.654,53.338h-1.113v-4.932h1.006v1.177c0.143-0.459,0.34-0.794,0.591-1.006s0.508-0.317,0.771-0.317
				c0.036,0,0.084,0.002,0.146,0.005v1.196c-0.566,0-0.941,0.181-1.125,0.542s-0.276,0.712-0.276,1.05V53.338z"/>
			<path fill="#85D825" d="M465.409,53.338h-1.04v-0.996c-0.287,0.732-0.771,1.099-1.455,1.099c-0.605,0-1.069-0.253-1.392-0.757
				s-0.483-1.131-0.483-1.88c0-0.696,0.167-1.304,0.503-1.821s0.812-0.776,1.431-0.776c0.635,0,1.076,0.29,1.323,0.869v-2.402h1.113
				V53.338z M464.296,50.428c0-0.4-0.095-0.712-0.286-0.936c-0.19-0.223-0.437-0.334-0.74-0.334c-0.329,0-0.586,0.143-0.771,0.43
				s-0.278,0.715-0.278,1.284c0,1.101,0.345,1.65,1.035,1.65c0.273,0,0.515-0.118,0.725-0.354c0.21-0.235,0.315-0.537,0.315-0.905
				V50.428z"/>
			<path fill="#85D825" d="M467.831,46.673v1.099l-0.747,1.309h-0.361l0.537-1.309h-0.537v-1.099H467.831z"/>
			<path fill="#85D825" d="M473.207,53.338h-1.035v-1.064c-0.28,0.777-0.799,1.167-1.558,1.167c-0.449,0-0.806-0.14-1.069-0.417
				c-0.264-0.279-0.396-0.667-0.396-1.165v-3.452h1.138v3.213c0,0.355,0.078,0.588,0.234,0.698s0.309,0.166,0.459,0.166
				c0.241,0,0.487-0.108,0.737-0.325c0.25-0.216,0.376-0.678,0.376-1.384v-2.368h1.113V53.338z"/>
			<path fill="#85D825" d="M476.83,52.469v0.869c-0.332,0.072-0.589,0.107-0.771,0.107c-0.299,0-0.557-0.06-0.771-0.178
				c-0.215-0.119-0.372-0.282-0.471-0.488c-0.099-0.207-0.149-0.525-0.149-0.955v-2.554h-0.615v-0.864h0.679l0.103-1.284
				l0.913-0.083v1.367h0.991v0.864h-0.991v2.407c0,0.309,0.056,0.52,0.168,0.633c0.112,0.111,0.325,0.168,0.637,0.168
				C476.64,52.479,476.732,52.475,476.83,52.469z"/>
			<path fill="#85D825" d="M478.876,47.83h-1.113v-1.157h1.113V47.83z M478.876,53.338h-1.113v-4.932h1.113V53.338z"/>
			<path fill="#85D825" d="M481.322,53.338h-1.113v-6.665h1.113V53.338z"/>
			<path fill="#85D825" d="M483.769,47.83h-1.113v-1.157h1.113V47.83z M483.769,53.338h-1.113v-4.932h1.113V53.338z"/>
			<path fill="#85D825" d="M484.506,52.205l1.045-0.2c0.16,0.4,0.511,0.601,1.055,0.601c0.69,0,1.035-0.203,1.035-0.61
				c0-0.13-0.054-0.237-0.161-0.322s-0.234-0.142-0.381-0.171l-0.898-0.171c-0.996-0.192-1.494-0.679-1.494-1.46
				c0-0.436,0.158-0.807,0.474-1.111c0.316-0.304,0.786-0.456,1.411-0.456c1.042,0,1.678,0.382,1.909,1.147l-0.991,0.2
				c-0.104-0.371-0.4-0.557-0.889-0.557c-0.592,0-0.889,0.186-0.889,0.557c0,0.257,0.239,0.435,0.718,0.532l1.06,0.22
				c0.824,0.169,1.235,0.642,1.235,1.416c0,0.544-0.211,0.95-0.635,1.218c-0.423,0.27-0.926,0.403-1.509,0.403
				c-0.504,0-0.951-0.102-1.338-0.306C484.875,52.932,484.623,52.621,484.506,52.205z"/>
			<path fill="#85D825" d="M493.866,53.338h-1.06c-0.094-0.299-0.151-0.631-0.171-0.996c-0.296,0.732-0.853,1.099-1.67,1.099
				c-0.492,0-0.886-0.144-1.184-0.433c-0.298-0.287-0.447-0.65-0.447-1.086c0-1.133,0.995-1.699,2.983-1.699
				c0.078,0,0.184,0.002,0.317,0.005v-0.371c0-0.511-0.348-0.767-1.045-0.767c-0.677,0-1.061,0.256-1.152,0.767l-0.947-0.142
				c0.052-0.41,0.264-0.748,0.635-1.014c0.371-0.265,0.908-0.397,1.611-0.397c0.381,0,0.692,0.032,0.933,0.095
				c0.241,0.064,0.444,0.172,0.61,0.322c0.166,0.152,0.281,0.316,0.344,0.494c0.063,0.177,0.095,0.477,0.095,0.9v2.227
				C493.72,52.664,493.769,52.996,493.866,53.338z M492.636,50.828c-1.439,0-2.158,0.344-2.158,1.03c0,0.205,0.072,0.38,0.217,0.524
				c0.145,0.146,0.364,0.218,0.657,0.218c0.423,0,0.743-0.134,0.959-0.403c0.216-0.268,0.325-0.573,0.325-0.915V50.828z"/>
			<path fill="#85D825" d="M497.338,52.469v0.869c-0.332,0.072-0.589,0.107-0.771,0.107c-0.299,0-0.557-0.06-0.771-0.178
				c-0.215-0.119-0.372-0.282-0.471-0.488c-0.099-0.207-0.149-0.525-0.149-0.955v-2.554h-0.615v-0.864h0.679l0.103-1.284
				l0.913-0.083v1.367h0.991v0.864h-0.991v2.407c0,0.309,0.056,0.52,0.168,0.633c0.112,0.111,0.325,0.168,0.637,0.168
				C497.147,52.479,497.24,52.475,497.338,52.469z"/>
			<path fill="#85D825" d="M501.269,51.766l1.006,0.137c-0.13,0.445-0.384,0.814-0.762,1.104s-0.851,0.435-1.421,0.435
				c-0.684,0-1.234-0.229-1.65-0.688s-0.625-1.08-0.625-1.865c0-0.746,0.21-1.362,0.63-1.851s0.99-0.732,1.709-0.732
				c0.703,0,1.247,0.241,1.631,0.723s0.576,1.101,0.576,1.855l-0.005,0.127h-3.384c0,0.335,0.032,0.604,0.095,0.806
				s0.189,0.377,0.378,0.527s0.425,0.225,0.708,0.225C500.706,52.566,501.077,52.299,501.269,51.766z M501.2,50.291
				c-0.003-0.355-0.11-0.645-0.32-0.869s-0.47-0.337-0.779-0.337c-0.306,0-0.562,0.104-0.767,0.315
				c-0.205,0.209-0.326,0.506-0.361,0.891H501.2z"/>
			<path fill="#85D825" d="M507.436,53.338H506.4v-1.064c-0.28,0.777-0.799,1.167-1.558,1.167c-0.449,0-0.806-0.14-1.069-0.417
				c-0.264-0.279-0.396-0.667-0.396-1.165v-3.452h1.138v3.213c0,0.355,0.078,0.588,0.234,0.698s0.309,0.166,0.459,0.166
				c0.241,0,0.487-0.108,0.737-0.325c0.25-0.216,0.376-0.678,0.376-1.384v-2.368h1.113V53.338z"/>
			<path fill="#85D825" d="M509.887,53.338h-1.113v-4.932h1.006v1.177c0.143-0.459,0.34-0.794,0.591-1.006s0.508-0.317,0.771-0.317
				c0.036,0,0.084,0.002,0.146,0.005v1.196c-0.566,0-0.941,0.181-1.125,0.542s-0.276,0.712-0.276,1.05V53.338z"/>
			<path fill="#85D825" d="M512.855,52.059v1.279h-1.206v-1.279H512.855z"/>
		</g>
		<line fill="none" stroke="#85D825" stroke-miterlimit="10" x1="423" y1="56.428" x2="514" y2="56.428"/>
	</g>
	<rect x="999" y="145.928" fill="#1A1A1A" width="267" height="152"/>
	<rect x="999" y="501.928" fill="#1A1A1A" width="267" height="270"/>
	<rect x="14" y="145.928" fill="#1A1A1A" width="968" height="550"/>
	<rect x="999" y="315.928" fill="#1A1A1A" width="267" height="168"/>
	<g>
		<circle fill="none" stroke="#333333" stroke-width="3" stroke-miterlimit="10" cx="965.631" cy="107.379" r="14.298"/>
		<g>
			<path fill="none" stroke="#333333" stroke-miterlimit="10" d="M969.906,104.345c1.382,1.528,2.585,2.498,3.611,2.912v0.394
				c-1.113,0.514-2.32,1.507-3.62,2.982h-0.673c0.553-1.207,1.128-2.107,1.723-2.703h-13.948v-0.883h13.948
				c-0.665-0.811-1.233-1.711-1.705-2.702H969.906z"/>
		</g>
	</g>
	<g>
		<circle fill="none" stroke="#333333" stroke-width="3" stroke-miterlimit="10" cx="30.631" cy="105.379" r="14.298"/>
		<g>
			<path fill="none" stroke="#333333" stroke-miterlimit="10" d="M26.273,102.345c-0.472,0.991-1.04,1.892-1.705,2.702h13.948v0.883
				H24.568c0.595,0.596,1.17,1.496,1.723,2.703h-0.673c-1.3-1.476-2.507-2.469-3.62-2.982v-0.394
				c1.026-0.414,2.229-1.384,3.611-2.912H26.273z"/>
		</g>
	</g>
	<rect x="65" y="83.928" fill="#B3B3B3" width="470" height="44"/>
	<rect x="26" y="161.928" fill="#B3B3B3" width="338" height="23"/>
	<rect x="28" y="203.928" fill="#B3B3B3" width="507" height="217"/>
	<rect x="28" y="483.928" fill="#B3B3B3" width="507" height="199"/>
	<rect x="29" y="444.928" fill="#B3B3B3" width="338" height="23"/>
</g>
<g id="Calque_5">
</g>
</svg>
