<?xml version="1.0" encoding="utf-8"?>
<!-- Generator: Adobe Illustrator 16.0.0, SVG Export Plug-In . SVG Version: 6.00 Build 0)  -->
<!DOCTYPE svg PUBLIC "-//W3C//DTD SVG 1.1//EN" "http://www.w3.org/Graphics/SVG/1.1/DTD/svg11.dtd">
<svg version="1.1" xmlns="http://www.w3.org/2000/svg" xmlns:xlink="http://www.w3.org/1999/xlink" x="0px" y="0px" width="350px"
	 height="434px" viewBox="0 0 350 434" enable-background="new 0 0 350 434" xml:space="preserve">
<g id="Calque_1">
</g>
<g id="Calque_2">
</g>
<g id="Calque_3">
</g>
<g id="Calque_4">
	<rect x="0.462" fill="#4D4D4D" width="350" height="70"/>
	<g>
		<rect x="51.962" y="20" fill="none" width="234.834" height="58"/>
		<path fill="#85D825" stroke="#85D825" stroke-miterlimit="10" d="M74.854,43.832c0,0.612-0.504,1.116-1.079,1.116H69.96v-1.979
			c-1.584,1.835-3.996,3.06-6.66,3.06c-4.822,0-8.782-3.959-8.782-8.855V22.45c0-0.324-0.252-0.54-0.54-0.54h-1.115
			c-0.541,0-1.045-0.504-1.045-1.116c0-0.504,0.504-1.008,1.045-1.008h3.779v17.386c0,3.708,2.951,6.659,6.658,6.659
			c3.708,0,6.66-2.952,6.66-6.659V19.787h3.815c0.575,0,1.079,0.504,1.079,1.008c0,0.612-0.504,1.116-1.079,1.116h-1.116
			c-0.252,0-0.468,0.216-0.468,0.54v19.833c0,0.288,0.216,0.54,0.468,0.54h1.116C74.351,42.824,74.854,43.292,74.854,43.832z"/>
		<path fill="#85D825" stroke="#85D825" stroke-miterlimit="10" d="M98.759,42.968c0,0.576-0.504,1.008-1.008,1.008h-3.815v-7.811
			c0-3.6-2.88-6.551-6.623-6.551c-3.6,0-6.587,2.952-6.587,6.551v7.775h-3.708c-0.647,0-1.079-0.432-1.079-1.008
			c0-0.648,0.432-1.152,1.079-1.152h1.08c0.323,0,0.504-0.18,0.504-0.432v-11.23c0-0.288-0.181-0.504-0.504-0.504h-1.08
			c-0.647,0-1.079-0.504-1.079-1.044c0-0.612,0.432-1.116,1.079-1.116h3.708v3.06c1.655-1.656,4.247-3.06,6.587-3.06
			c4.823,0,8.782,3.888,8.782,8.711v5.219c0,0.252,0.217,0.432,0.504,0.432h1.152C98.255,41.816,98.759,42.392,98.759,42.968z"/>
		<path fill="#85D825" stroke="#85D825" stroke-miterlimit="10" d="M107.437,42.968c0,0.576-0.467,1.008-1.043,1.008h-5.4
			c-0.504,0-1.008-0.432-1.008-1.008c0-0.648,0.504-1.152,1.008-1.152h1.152c0.288,0,0.504-0.18,0.504-0.432V30.189
			c0-0.36-0.216-0.576-0.576-0.576h-1.08c-0.575,0-1.079-0.504-1.079-1.044s0.504-1.116,1.079-1.116h3.816v13.93
			c0,0.252,0.216,0.432,0.432,0.432h1.152C106.97,41.816,107.437,42.32,107.437,42.968z M101.642,21.118
			c0-0.864,0.721-1.583,1.512-1.583c0.936,0,1.656,0.72,1.656,1.583c0,0.828-0.721,1.584-1.656,1.584
			C102.362,22.702,101.642,21.946,101.642,21.118z"/>
		<path fill="#85D825" stroke="#85D825" stroke-miterlimit="10" d="M127.56,28.461c0,0.504-0.504,1.08-1.152,1.08h-0.432
			c-0.432,0-0.792,0.072-0.936,0.36l-0.721,1.224c-1.871,3.563-6.335,11.807-6.335,11.807l-1.151,2.592l-1.152-2.592h0.036
			c-0.36-0.648-5.003-9.035-6.479-12.022h0.036c-0.108-0.18-0.252-0.288-0.323-0.396c-0.181-0.252-0.289-0.468-0.324-0.576
			c-0.145-0.216-0.432-0.324-0.936-0.324h-0.504c-0.576,0-1.08-0.504-1.08-1.116c0-0.54,0.504-1.044,1.08-1.044h2.734l0.756,1.584
			l3.564,6.479c0.9,1.656,1.691,3.096,2.592,4.715c2.051-3.815,4.139-7.487,6.191-11.338l0.647-1.512h2.735
			C127.056,27.382,127.56,27.886,127.56,28.461z"/>
		<path fill="#85D825" stroke="#85D825" stroke-miterlimit="10" d="M148.979,28.605c0,4.859-3.889,8.783-8.783,8.783
			c-2.557,0-5.004-1.188-6.66-3.023v10.619h-3.779c-0.611,0-1.043-0.504-1.043-1.116c0-0.54,0.432-1.044,1.043-1.044h1.116
			c0.288,0,0.504-0.216,0.504-0.504V22.486c0-0.324-0.216-0.54-0.504-0.54h-1.116c-0.611,0-1.043-0.504-1.043-1.116
			c0-0.504,0.432-1.008,1.043-1.008h3.779v3.023c1.656-1.764,4.141-3.023,6.66-3.023C145.091,19.823,148.979,23.71,148.979,28.605z
			 M146.854,28.605c0-3.708-2.951-6.659-6.658-6.659c-3.708,0-6.66,2.952-6.66,6.659s2.952,6.659,6.66,6.659
			C143.903,35.265,146.854,32.313,146.854,28.605z"/>
		<path fill="#85D825" stroke="#85D825" stroke-miterlimit="10" d="M157.403,42.968c0,0.576-0.504,1.008-1.079,1.008h-5.399
			c-0.504,0-1.008-0.432-1.008-1.008c0-0.576,0.504-1.152,1.008-1.152h1.08c0.359,0,0.576-0.18,0.576-0.432V22.666
			c0-0.288-0.217-0.468-0.576-0.468h-1.08c-0.504,0-1.008-0.54-1.008-1.116c0-0.576,0.504-1.08,1.008-1.08h3.815v21.381
			c0,0.252,0.216,0.432,0.468,0.432h1.116C156.899,41.816,157.403,42.392,157.403,42.968z"/>
		<path fill="#85D825" stroke="#85D825" stroke-miterlimit="10" d="M177.491,42.896c0,0.576-0.504,1.008-1.045,1.008h-3.779v-2.087
			c-1.619,1.835-4.139,3.167-6.767,3.167c-4.751,0-8.783-3.888-8.783-8.783c0-4.824,4.032-8.711,8.783-8.711
			c2.735,0,5.183,1.152,6.767,3.131v-3.204h3.779c0.541,0,1.045,0.504,1.045,1.116c0,0.54-0.504,1.043-1.045,1.043h-1.115
			c-0.288,0-0.504,0.216-0.504,0.504v11.231c0,0.252,0.216,0.432,0.504,0.432h1.115C176.987,41.744,177.491,42.248,177.491,42.896z
			 M172.523,36.201c0-3.6-2.88-6.551-6.623-6.551c-3.6,0-6.624,2.952-6.624,6.551c0,3.671,3.024,6.623,6.624,6.623
			C169.644,42.824,172.523,39.872,172.523,36.201z"/>
		<path fill="#85D825" stroke="#85D825" stroke-miterlimit="10" d="M201.538,42.968c0,0.576-0.504,1.008-1.008,1.008h-3.815v-7.811
			c0-3.6-2.88-6.551-6.623-6.551c-3.6,0-6.587,2.952-6.587,6.551v7.775h-3.708c-0.647,0-1.079-0.432-1.079-1.008
			c0-0.648,0.432-1.152,1.079-1.152h1.08c0.323,0,0.504-0.18,0.504-0.432v-11.23c0-0.288-0.181-0.504-0.504-0.504h-1.08
			c-0.647,0-1.079-0.504-1.079-1.044c0-0.612,0.432-1.116,1.079-1.116h3.708v3.06c1.655-1.656,4.247-3.06,6.587-3.06
			c4.823,0,8.782,3.888,8.782,8.711v5.219c0,0.252,0.217,0.432,0.504,0.432h1.152C201.034,41.816,201.538,42.392,201.538,42.968z"/>
		<path fill="#85D825" stroke="#85D825" stroke-miterlimit="10" d="M225.658,42.968c0,0.576-0.504,1.008-1.008,1.008h-3.815v-7.811
			c0-3.6-2.88-6.551-6.623-6.551c-3.6,0-6.588,2.952-6.588,6.551v7.775h-3.707c-0.648,0-1.08-0.432-1.08-1.008
			c0-0.648,0.432-1.152,1.08-1.152h1.08c0.324,0,0.504-0.18,0.504-0.432v-11.23c0-0.288-0.18-0.504-0.504-0.504h-1.08
			c-0.648,0-1.08-0.504-1.08-1.044c0-0.612,0.432-1.116,1.08-1.116h3.707v3.06c1.656-1.656,4.248-3.06,6.588-3.06
			c4.823,0,8.783,3.888,8.783,8.711v5.219c0,0.252,0.215,0.432,0.504,0.432h1.151C225.154,41.816,225.658,42.392,225.658,42.968z"/>
		<path fill="#85D825" stroke="#85D825" stroke-miterlimit="10" d="M234.337,42.968c0,0.576-0.469,1.008-1.045,1.008h-5.398
			c-0.504,0-1.008-0.432-1.008-1.008c0-0.648,0.504-1.152,1.008-1.152h1.151c0.288,0,0.504-0.18,0.504-0.432V30.189
			c0-0.36-0.216-0.576-0.575-0.576h-1.08c-0.576,0-1.08-0.504-1.08-1.044s0.504-1.116,1.08-1.116h3.814v13.93
			c0,0.252,0.217,0.432,0.433,0.432h1.151C233.868,41.816,234.337,42.32,234.337,42.968z M228.541,21.118
			c0-0.864,0.72-1.583,1.512-1.583c0.937,0,1.655,0.72,1.655,1.583c0,0.828-0.719,1.584-1.655,1.584
			C229.261,22.702,228.541,21.946,228.541,21.118z"/>
		<path fill="#85D825" stroke="#85D825" stroke-miterlimit="10" d="M258.058,42.968c0,0.576-0.504,1.008-1.008,1.008h-3.814v-7.811
			c0-3.6-2.881-6.551-6.623-6.551c-3.6,0-6.588,2.952-6.588,6.551v7.775h-3.707c-0.648,0-1.08-0.432-1.08-1.008
			c0-0.648,0.432-1.152,1.08-1.152h1.08c0.323,0,0.504-0.18,0.504-0.432v-11.23c0-0.288-0.181-0.504-0.504-0.504h-1.08
			c-0.648,0-1.08-0.504-1.08-1.044c0-0.612,0.432-1.116,1.08-1.116h3.707v3.06c1.656-1.656,4.248-3.06,6.588-3.06
			c4.822,0,8.782,3.888,8.782,8.711v5.219c0,0.252,0.216,0.432,0.504,0.432h1.151C257.554,41.816,258.058,42.392,258.058,42.968z"/>
		<path fill="#85D825" stroke="#85D825" stroke-miterlimit="10" d="M276.526,36.561l-0.575,4.679l-0.396,3.528
			c-0.289,2.016-0.937,2.879-1.729,3.887c-1.619,2.16-4.428,3.312-7.234,3.312v-2.124c2.987,0,6.263-2.556,6.839-5.183l0.323-2.664
			c-1.547,1.368-3.527,2.124-5.867,2.124c-4.822,0-8.603-3.78-8.603-8.639c0-4.787,3.78-8.603,8.603-8.603
			c4.859,0,8.639,3.816,8.639,8.603V36.561z M274.403,35.48c0-3.456-3.023-6.479-6.516-6.479c-3.455,0-6.479,3.023-6.479,6.479
			c0,3.563,3.023,6.515,6.479,6.515C271.38,41.996,274.403,39.044,274.403,35.48z"/>
	</g>
	<g>
		
			<ellipse transform="matrix(0.9574 0.2887 -0.2887 0.9574 7.7916 -12.4837)" fill="none" stroke="#85D825" stroke-miterlimit="10" cx="46.212" cy="20.169" rx="1.75" ry="3.331"/>
		<polygon fill="none" stroke="#85D825" stroke-miterlimit="10" points="42.962,48.5 12.962,48.5 15.962,20.5 45.962,20.5 		"/>
		<g>
			<path fill="#85D825" d="M27.105,35.883c1.38,0.766,2.185,2.287,2.13,3.776l-0.023,0.63c-0.092,2.497-2.377,4.619-4.873,4.526
				c-1.26-0.047-2.348-0.738-3.223-1.506l0.826-0.768c0.88,0.663,1.582,1.004,2.441,1.036c1.742,0.064,3.527-1.634,3.59-3.335
				l0.023-0.628c0.063-1.721-1.404-2.931-2.915-2.987l1.046-1.222c0.902,0.034,2.149-0.74,2.19-1.852
				c0.053-1.427-1.05-2.308-2.161-2.349c-0.86-0.032-1.83,0.038-2.525,0.684l-0.783-0.974c1.139-0.715,2.137-0.993,3.354-0.948
				c1.868,0.069,3.426,1.702,3.354,3.632C29.524,34.439,27.968,35.285,27.105,35.883z"/>
			<path fill="#85D825" d="M34.812,43.651c-0.017,0.44-0.421,0.572-0.777,0.56l-2.728-0.101c-0.399-0.015-0.792-0.176-0.776-0.617
				c0.017-0.44,0.423-0.635,0.822-0.621l0.377,0.014c0.357,0.013,0.357,0.013,0.373-0.406l1.366-9.909l-0.675,0.626l-1.027-0.038
				c-0.357-0.013-0.75-0.195-0.734-0.615c0.015-0.378,0.423-0.636,0.779-0.623l0.545,0.02l2.459-2.283L33.34,42.525
				c-0.015,0.419,0.006,0.42,0.425,0.436l0.314,0.011C34.437,42.986,34.827,43.21,34.812,43.651z"/>
		</g>
		
			<line fill="none" stroke="#85D825" stroke-linecap="round" stroke-miterlimit="10" x1="38.337" y1="48.5" x2="43.462" y2="43.833"/>
		<rect x="15.462" y="21" fill="#85D825" width="30" height="5"/>
		<polygon fill="#4D4D4D" stroke="#85D825" stroke-miterlimit="10" points="46.962,20.5 46.962,45.5 43.462,45.5 45.962,20.5 		"/>
		
			<ellipse transform="matrix(0.9574 0.2887 -0.2887 0.9574 7.4935 -10.4626)" fill="none" stroke="#85D825" stroke-miterlimit="10" cx="39.212" cy="20.169" rx="1.75" ry="3.331"/>
		
			<ellipse transform="matrix(0.9574 0.2887 -0.2887 0.9574 7.1954 -8.4415)" fill="none" stroke="#85D825" stroke-miterlimit="10" cx="32.212" cy="20.169" rx="1.75" ry="3.331"/>
		
			<ellipse transform="matrix(0.9574 0.2887 -0.2887 0.9574 6.8973 -6.4204)" fill="none" stroke="#85D825" stroke-miterlimit="10" cx="25.212" cy="20.169" rx="1.75" ry="3.331"/>
		
			<ellipse transform="matrix(0.9574 0.2887 -0.2887 0.9574 6.5991 -4.3993)" fill="none" stroke="#85D825" stroke-miterlimit="10" cx="18.212" cy="20.169" rx="1.75" ry="3.331"/>
	</g>
	<g>
		<g>
			<path fill="#B3B3B3" d="M285.138,24.511h-1.378c-0.122-0.389-0.196-0.821-0.222-1.295c-0.386,0.952-1.109,1.428-2.172,1.428
				c-0.639,0-1.151-0.187-1.539-0.562c-0.387-0.374-0.58-0.845-0.58-1.412c0-1.473,1.293-2.209,3.878-2.209
				c0.102,0,0.239,0.002,0.413,0.006v-0.482c0-0.665-0.453-0.997-1.359-0.997c-0.88,0-1.379,0.332-1.498,0.997l-1.23-0.184
				c0.067-0.533,0.342-0.972,0.824-1.317c0.482-0.345,1.182-0.517,2.096-0.517c0.494,0,0.898,0.042,1.212,0.124
				c0.313,0.083,0.577,0.223,0.794,0.419c0.215,0.197,0.364,0.411,0.447,0.642c0.082,0.23,0.123,0.621,0.123,1.171v2.895
				C284.946,23.635,285.011,24.066,285.138,24.511z M283.538,21.248c-1.871,0-2.807,0.446-2.807,1.339
				c0,0.267,0.095,0.494,0.283,0.682c0.188,0.188,0.473,0.283,0.854,0.283c0.551,0,0.966-0.174,1.247-0.524
				c0.282-0.349,0.423-0.746,0.423-1.19V21.248z"/>
			<path fill="#B3B3B3" d="M288.152,26.675h-1.473V18.1h1.384v1.117c0.444-0.833,1.098-1.25,1.961-1.25
				c0.711,0,1.278,0.309,1.701,0.927c0.424,0.618,0.635,1.407,0.635,2.368c0,0.91-0.201,1.701-0.605,2.374s-1.006,1.009-1.807,1.009
				c-0.824,0-1.424-0.343-1.796-1.028V26.675z M288.152,21.883c0,0.465,0.139,0.852,0.415,1.158c0.277,0.307,0.586,0.46,0.924,0.46
				c0.462,0,0.799-0.202,1.014-0.606c0.213-0.404,0.32-0.917,0.32-1.54c0-0.652-0.108-1.182-0.324-1.59
				c-0.216-0.408-0.537-0.612-0.965-0.612c-0.385,0-0.712,0.167-0.98,0.501c-0.27,0.334-0.403,0.772-0.403,1.314V21.883z"/>
			<path fill="#B3B3B3" d="M295.153,26.675h-1.473V18.1h1.385v1.117c0.443-0.833,1.098-1.25,1.961-1.25
				c0.711,0,1.277,0.309,1.701,0.927s0.635,1.407,0.635,2.368c0,0.91-0.202,1.701-0.606,2.374c-0.403,0.673-1.006,1.009-1.806,1.009
				c-0.825,0-1.424-0.343-1.797-1.028V26.675z M295.153,21.883c0,0.465,0.139,0.852,0.416,1.158c0.277,0.307,0.586,0.46,0.924,0.46
				c0.461,0,0.799-0.202,1.013-0.606c0.214-0.404,0.32-0.917,0.32-1.54c0-0.652-0.108-1.182-0.323-1.59
				c-0.217-0.408-0.538-0.612-0.965-0.612c-0.386,0-0.713,0.167-0.981,0.501s-0.403,0.772-0.403,1.314V21.883z"/>
		</g>
	</g>
	<rect x="0.462" y="69" fill="#636363" width="350" height="365"/>
	<g>
		<g>
			<path fill="#B3B3B3" d="M13.358,118.842v-8.665h3.192c1.181,0,2.128,0.418,2.844,1.253c0.716,0.836,1.073,1.868,1.073,3.095
				s-0.369,2.253-1.105,3.079s-1.789,1.238-3.16,1.238H13.358z M14.964,117.566h1.301c0.699,0,1.291-0.262,1.777-0.787
				c0.487-0.525,0.73-1.306,0.73-2.342c0-0.846-0.213-1.563-0.638-2.148c-0.426-0.586-0.987-0.879-1.686-0.879h-1.485V117.566z"/>
			<path fill="#B3B3B3" d="M25.907,116.798l1.308,0.178c-0.169,0.58-0.499,1.058-0.99,1.435s-1.106,0.565-1.847,0.565
				c-0.889,0-1.604-0.298-2.146-0.895c-0.541-0.597-0.813-1.405-0.813-2.425c0-0.969,0.273-1.771,0.819-2.406
				s1.286-0.952,2.222-0.952c0.914,0,1.621,0.313,2.12,0.939s0.749,1.43,0.749,2.412l-0.006,0.165h-4.399
				c0,0.436,0.042,0.785,0.124,1.047s0.246,0.491,0.492,0.686c0.245,0.195,0.552,0.292,0.92,0.292
				C25.175,117.839,25.657,117.492,25.907,116.798z M25.818,114.881c-0.005-0.461-0.144-0.838-0.415-1.13
				c-0.273-0.292-0.611-0.438-1.014-0.438c-0.397,0-0.729,0.136-0.996,0.41c-0.267,0.272-0.424,0.659-0.47,1.158H25.818z"/>
			<path fill="#B3B3B3" d="M38.222,118.842h-1.518v-3.993c0-0.83-0.367-1.244-1.104-1.244c-0.428,0-0.77,0.157-1.025,0.47
				s-0.385,0.781-0.385,1.403v3.364h-1.535v-3.993c0-0.842-0.346-1.263-1.035-1.263c-0.419,0-0.771,0.169-1.057,0.508
				s-0.429,0.8-0.429,1.384v3.364h-1.491v-6.411h1.402v1.365c0.457-0.999,1.17-1.498,2.139-1.498c0.944,0,1.558,0.5,1.842,1.498
				c0.516-0.999,1.229-1.498,2.139-1.498c0.617,0,1.115,0.192,1.492,0.578c0.376,0.385,0.564,0.863,0.564,1.435V118.842z"/>
			<path fill="#B3B3B3" d="M45.445,118.842h-1.378c-0.122-0.389-0.196-0.821-0.222-1.295c-0.386,0.952-1.108,1.428-2.171,1.428
				c-0.639,0-1.152-0.187-1.539-0.562c-0.387-0.374-0.581-0.845-0.581-1.412c0-1.473,1.293-2.209,3.878-2.209
				c0.102,0,0.24,0.002,0.413,0.006v-0.482c0-0.665-0.452-0.997-1.358-0.997c-0.881,0-1.379,0.332-1.498,0.997l-1.231-0.184
				c0.067-0.533,0.343-0.972,0.825-1.317c0.482-0.345,1.181-0.517,2.095-0.517c0.495,0,0.899,0.042,1.212,0.124
				c0.313,0.083,0.578,0.223,0.794,0.419c0.216,0.197,0.364,0.411,0.448,0.642c0.082,0.23,0.123,0.621,0.123,1.171v2.895
				C45.255,117.966,45.318,118.398,45.445,118.842z M43.846,115.58c-1.87,0-2.806,0.446-2.806,1.339
				c0,0.267,0.094,0.494,0.283,0.682c0.188,0.188,0.473,0.283,0.854,0.283c0.55,0,0.965-0.174,1.246-0.524
				c0.282-0.349,0.423-0.746,0.423-1.19V115.58z"/>
			<path fill="#B3B3B3" d="M48.429,111.682h-1.447v-1.504h1.447V111.682z M48.429,118.842h-1.447v-6.411h1.447V118.842z"/>
			<path fill="#B3B3B3" d="M55.475,118.842h-1.447v-4.005c0-0.423-0.097-0.742-0.292-0.956c-0.195-0.213-0.43-0.32-0.705-0.32
				c-0.376,0-0.706,0.165-0.99,0.495c-0.283,0.33-0.425,0.827-0.425,1.492v3.294h-1.447v-6.411h1.32v1.485
				c0.462-1.079,1.108-1.619,1.942-1.619c0.563,0,1.045,0.178,1.443,0.533c0.4,0.355,0.601,0.979,0.601,1.873V118.842z"/>
		</g>
	</g>
	<rect x="16.462" y="138" fill="#1A1A1A" width="319" height="109"/>
	<g>
		<rect x="26.462" y="195" fill="#B3B3B3" width="10" height="13"/>
		<line fill="none" stroke="#4D4D4D" stroke-miterlimit="10" x1="27.462" y1="198.5" x2="34.462" y2="198.5"/>
		<line fill="none" stroke="#4D4D4D" stroke-miterlimit="10" x1="27.462" y1="201.5" x2="34.462" y2="201.5"/>
		<line fill="none" stroke="#4D4D4D" stroke-miterlimit="10" x1="27.462" y1="204.5" x2="32.462" y2="204.5"/>
	</g>
	<polyline fill="none" stroke="#CCCCCC" stroke-miterlimit="10" points="46.462,184.5 41.962,184.5 41.962,193 38.337,197.25 
		41.962,199.5 41.962,211 	"/>
	<polyline fill="none" stroke="#CCCCCC" stroke-miterlimit="10" points="46.462,215.5 41.962,215.5 41.962,224 38.337,228.25 
		41.962,230.5 41.962,236 	"/>
	<g>
		<g>
			<path fill="#B3B3B3" d="M34.674,228.455v1.212h-2.608v2.698h-1.207v-2.698H28.25v-1.212h2.608v-2.705h1.207v2.705H34.674z"/>
		</g>
	</g>
	<rect x="45.462" y="219" fill="#4D4D4D" width="152" height="17"/>
	<g>
		<rect x="25.338" y="146.112" fill="none" width="178" height="39.5"/>
		<path fill="#B3B3B3" d="M29.012,154.122h-1.547v-6.762h-2.127v-1.236h5.801v1.236h-2.127V154.122z"/>
		<path fill="#B3B3B3" d="M33.582,154.245c-0.875,0-1.543-0.314-2.004-0.943s-0.691-1.35-0.691-2.162
			c0-0.875,0.255-1.604,0.765-2.186s1.183-0.873,2.019-0.873c0.793,0,1.444,0.283,1.954,0.85s0.765,1.303,0.765,2.209
			c0,0.934-0.265,1.685-0.794,2.253S34.395,154.245,33.582,154.245z M33.629,153.143c0.898,0,1.348-0.67,1.348-2.01
			c0-0.605-0.107-1.083-0.322-1.433s-0.545-0.524-0.99-0.524c-0.461,0-0.803,0.181-1.025,0.542s-0.334,0.841-0.334,1.438
			c0,0.645,0.118,1.137,0.354,1.477S33.219,153.143,33.629,153.143z"/>
		<path fill="#B3B3B3" d="M42.482,154.122H41.24v-1.277c-0.336,0.934-0.959,1.4-1.869,1.4c-0.539,0-0.967-0.167-1.283-0.501
			s-0.475-0.8-0.475-1.397v-4.143h1.365v3.855c0,0.426,0.094,0.705,0.281,0.838s0.371,0.199,0.551,0.199
			c0.289,0,0.584-0.13,0.885-0.39s0.451-0.813,0.451-1.661v-2.842h1.336V154.122z"/>
		<path fill="#B3B3B3" d="M43.367,152.762l1.254-0.24c0.191,0.48,0.613,0.721,1.266,0.721c0.828,0,1.242-0.244,1.242-0.732
			c0-0.156-0.064-0.285-0.193-0.387s-0.281-0.17-0.457-0.205l-1.078-0.205c-1.195-0.23-1.793-0.814-1.793-1.752
			c0-0.523,0.189-0.968,0.568-1.333s0.943-0.548,1.693-0.548c1.25,0,2.014,0.459,2.291,1.377l-1.189,0.24
			c-0.125-0.445-0.48-0.668-1.066-0.668c-0.711,0-1.066,0.223-1.066,0.668c0,0.309,0.287,0.521,0.861,0.639l1.271,0.264
			c0.988,0.203,1.482,0.77,1.482,1.699c0,0.652-0.254,1.14-0.762,1.462s-1.111,0.483-1.811,0.483c-0.605,0-1.141-0.122-1.605-0.366
			S43.508,153.262,43.367,152.762z"/>
		<path fill="#B3B3B3" d="M48.816,152.762l1.254-0.24c0.191,0.48,0.613,0.721,1.266,0.721c0.828,0,1.242-0.244,1.242-0.732
			c0-0.156-0.064-0.285-0.193-0.387s-0.281-0.17-0.457-0.205l-1.078-0.205c-1.195-0.23-1.793-0.814-1.793-1.752
			c0-0.523,0.189-0.968,0.568-1.333s0.943-0.548,1.693-0.548c1.25,0,2.014,0.459,2.291,1.377l-1.189,0.24
			c-0.125-0.445-0.48-0.668-1.066-0.668c-0.711,0-1.066,0.223-1.066,0.668c0,0.309,0.287,0.521,0.861,0.639l1.271,0.264
			c0.988,0.203,1.482,0.77,1.482,1.699c0,0.652-0.254,1.14-0.762,1.462s-1.111,0.483-1.811,0.483c-0.605,0-1.141-0.122-1.605-0.366
			S48.957,153.262,48.816,152.762z"/>
		<path fill="#B3B3B3" d="M60.049,154.122h-1.271c-0.113-0.359-0.182-0.758-0.205-1.195c-0.355,0.879-1.023,1.318-2.004,1.318
			c-0.59,0-1.063-0.173-1.421-0.519s-0.536-0.78-0.536-1.304c0-1.359,1.193-2.039,3.58-2.039c0.094,0,0.221,0.002,0.381,0.006
			v-0.445c0-0.613-0.418-0.92-1.254-0.92c-0.813,0-1.273,0.307-1.383,0.92l-1.137-0.17c0.063-0.492,0.316-0.897,0.762-1.216
			s1.09-0.478,1.934-0.478c0.457,0,0.83,0.038,1.119,0.114s0.533,0.205,0.732,0.387s0.337,0.379,0.413,0.592
			s0.114,0.573,0.114,1.081v2.672C59.873,153.313,59.932,153.711,60.049,154.122z M58.572,151.11c-1.727,0-2.59,0.412-2.59,1.236
			c0,0.246,0.087,0.456,0.261,0.63s0.437,0.261,0.788,0.261c0.508,0,0.892-0.161,1.151-0.483s0.39-0.688,0.39-1.099V151.11z"/>
		<path fill="#B3B3B3" d="M62.803,147.512h-1.336v-1.389h1.336V147.512z M62.803,154.122h-1.336v-5.918h1.336V154.122z"/>
		<path fill="#B3B3B3" d="M69.307,154.122h-1.336v-3.697c0-0.391-0.09-0.685-0.27-0.882s-0.396-0.296-0.65-0.296
			c-0.348,0-0.652,0.152-0.914,0.457s-0.393,0.764-0.393,1.377v3.041h-1.336v-5.918h1.219v1.371
			c0.426-0.996,1.023-1.494,1.793-1.494c0.52,0,0.964,0.164,1.333,0.492s0.554,0.904,0.554,1.729V154.122z"/>
		<path fill="#B3B3B3" d="M73.648,153.079v1.043c-0.398,0.086-0.707,0.129-0.926,0.129c-0.359,0-0.668-0.071-0.926-0.214
			s-0.446-0.338-0.565-0.586s-0.179-0.63-0.179-1.146v-3.064h-0.738v-1.037h0.814l0.123-1.541l1.096-0.1v1.641h1.189v1.037h-1.189
			v2.889c0,0.371,0.067,0.624,0.202,0.759s0.39,0.202,0.765,0.202C73.42,153.09,73.531,153.086,73.648,153.079z"/>
		<path fill="#B3B3B3" d="M79.883,150.53v1.096h-2.941v-1.096H79.883z"/>
		<path fill="#B3B3B3" d="M86.516,146.124v5.52c0,0.918-0.198,1.581-0.595,1.989s-1.028,0.612-1.896,0.612
			c-0.5,0-0.889-0.041-1.166-0.123v-1.16c0.438,0.031,0.746,0.047,0.926,0.047c0.48,0,0.809-0.09,0.984-0.27
			s0.264-0.545,0.264-1.096v-5.52H86.516z"/>
		<path fill="#B3B3B3" d="M90.436,154.245c-0.875,0-1.543-0.314-2.004-0.943s-0.691-1.35-0.691-2.162
			c0-0.875,0.255-1.604,0.765-2.186s1.183-0.873,2.019-0.873c0.793,0,1.444,0.283,1.954,0.85s0.765,1.303,0.765,2.209
			c0,0.934-0.265,1.685-0.794,2.253S91.248,154.245,90.436,154.245z M90.482,153.143c0.898,0,1.348-0.67,1.348-2.01
			c0-0.605-0.107-1.083-0.322-1.433s-0.545-0.524-0.99-0.524c-0.461,0-0.803,0.181-1.025,0.542s-0.334,0.841-0.334,1.438
			c0,0.645,0.118,1.137,0.354,1.477S90.072,153.143,90.482,153.143z"/>
		<path fill="#B3B3B3" d="M99.336,154.122h-1.242v-1.277c-0.336,0.934-0.959,1.4-1.869,1.4c-0.539,0-0.967-0.167-1.283-0.501
			s-0.475-0.8-0.475-1.397v-4.143h1.365v3.855c0,0.426,0.094,0.705,0.281,0.838s0.371,0.199,0.551,0.199
			c0.289,0,0.584-0.13,0.885-0.39S98,151.893,98,151.045v-2.842h1.336V154.122z"/>
		<path fill="#B3B3B3" d="M102.277,154.122h-1.336v-5.918h1.207v1.412c0.172-0.551,0.408-0.953,0.709-1.207s0.609-0.381,0.926-0.381
			c0.043,0,0.102,0.002,0.176,0.006v1.436c-0.68,0-1.13,0.217-1.351,0.65s-0.331,0.854-0.331,1.26V154.122z"/>
		<path fill="#B3B3B3" d="M109.414,154.122h-1.289v-4.881h-0.879v-1.037h0.879v-0.293c0-0.578,0.141-1.043,0.422-1.395
			s0.85-0.527,1.705-0.527c0.125,0,0.283,0.004,0.475,0.012v1.049c-0.168-0.012-0.283-0.018-0.346-0.018
			c-0.328,0-0.559,0.044-0.691,0.132s-0.212,0.191-0.237,0.311s-0.038,0.362-0.038,0.729h1.313v1.037h-1.313V154.122z"/>
		<path fill="#B3B3B3" d="M115.473,152.235l1.207,0.164c-0.156,0.535-0.461,0.977-0.914,1.324s-1.021,0.521-1.705,0.521
			c-0.82,0-1.48-0.275-1.98-0.826s-0.75-1.297-0.75-2.238c0-0.895,0.252-1.635,0.756-2.221s1.188-0.879,2.051-0.879
			c0.844,0,1.496,0.289,1.957,0.867s0.691,1.32,0.691,2.227l-0.006,0.152h-4.061c0,0.402,0.038,0.725,0.114,0.967
			s0.228,0.453,0.454,0.633s0.51,0.27,0.85,0.27C114.797,153.196,115.242,152.875,115.473,152.235z M115.391,150.465
			c-0.004-0.426-0.132-0.773-0.384-1.043s-0.563-0.404-0.935-0.404c-0.367,0-0.674,0.126-0.92,0.378s-0.391,0.608-0.434,1.069
			H115.391z M115.508,145.409l0.387,0.879l-2.443,1.031l-0.246-0.627L115.508,145.409z"/>
		<path fill="#B3B3B3" d="M119.34,154.122h-1.336v-5.918h1.207v1.412c0.172-0.551,0.408-0.953,0.709-1.207s0.609-0.381,0.926-0.381
			c0.043,0,0.102,0.002,0.176,0.006v1.436c-0.68,0-1.13,0.217-1.351,0.65s-0.331,0.854-0.331,1.26V154.122z"/>
		<path fill="#B3B3B3" d="M123.313,147.512h-1.336v-1.389h1.336V147.512z M123.313,154.122h-1.336v-5.918h1.336V154.122z"/>
		<path fill="#B3B3B3" d="M128.68,152.235l1.207,0.164c-0.156,0.535-0.461,0.977-0.914,1.324s-1.021,0.521-1.705,0.521
			c-0.82,0-1.48-0.275-1.98-0.826s-0.75-1.297-0.75-2.238c0-0.895,0.252-1.635,0.756-2.221s1.188-0.879,2.051-0.879
			c0.844,0,1.496,0.289,1.957,0.867s0.691,1.32,0.691,2.227l-0.006,0.152h-4.061c0,0.402,0.038,0.725,0.114,0.967
			s0.228,0.453,0.454,0.633s0.51,0.27,0.85,0.27C128.004,153.196,128.449,152.875,128.68,152.235z M128.598,150.465
			c-0.004-0.426-0.132-0.773-0.384-1.043s-0.563-0.404-0.935-0.404c-0.367,0-0.674,0.126-0.92,0.378s-0.391,0.608-0.434,1.069
			H128.598z M128.715,145.409l0.387,0.879l-2.443,1.031l-0.246-0.627L128.715,145.409z"/>
		<path fill="#B3B3B3" d="M27.658,168.522h-1.441v-7.998h3.275c0.934,0,1.626,0.235,2.077,0.706s0.677,1.026,0.677,1.667
			c0,0.73-0.244,1.322-0.732,1.775s-1.107,0.68-1.857,0.68h-1.998V168.522z M27.658,164.116h1.705c0.445,0,0.785-0.109,1.02-0.328
			s0.352-0.51,0.352-0.873c0-0.328-0.108-0.609-0.325-0.844s-0.608-0.352-1.175-0.352h-1.576V164.116z"/>
		<path fill="#B3B3B3" d="M38.287,168.522h-1.271c-0.113-0.359-0.182-0.758-0.205-1.195c-0.355,0.879-1.023,1.318-2.004,1.318
			c-0.59,0-1.063-0.173-1.421-0.519s-0.536-0.78-0.536-1.304c0-1.359,1.193-2.039,3.58-2.039c0.094,0,0.221,0.002,0.381,0.006
			v-0.445c0-0.613-0.418-0.92-1.254-0.92c-0.813,0-1.273,0.307-1.383,0.92l-1.137-0.17c0.063-0.492,0.316-0.897,0.762-1.216
			s1.09-0.478,1.934-0.478c0.457,0,0.83,0.038,1.119,0.114s0.533,0.205,0.732,0.387s0.337,0.379,0.413,0.592
			s0.114,0.573,0.114,1.081v2.672C38.111,167.713,38.17,168.112,38.287,168.522z M36.811,165.51c-1.727,0-2.59,0.412-2.59,1.236
			c0,0.246,0.087,0.456,0.261,0.63s0.437,0.261,0.788,0.261c0.508,0,0.892-0.161,1.151-0.483s0.39-0.688,0.39-1.099V165.51z"/>
		<path fill="#B3B3B3" d="M38.99,167.163l1.254-0.24c0.191,0.48,0.613,0.721,1.266,0.721c0.828,0,1.242-0.244,1.242-0.732
			c0-0.156-0.064-0.285-0.193-0.387s-0.281-0.17-0.457-0.205l-1.078-0.205c-1.195-0.23-1.793-0.814-1.793-1.752
			c0-0.523,0.189-0.968,0.568-1.333s0.943-0.548,1.693-0.548c1.25,0,2.014,0.459,2.291,1.377l-1.189,0.24
			c-0.125-0.445-0.48-0.668-1.066-0.668c-0.711,0-1.066,0.223-1.066,0.668c0,0.309,0.287,0.521,0.861,0.639L42.594,165
			c0.988,0.203,1.482,0.77,1.482,1.699c0,0.652-0.254,1.14-0.762,1.462s-1.111,0.483-1.811,0.483c-0.605,0-1.141-0.122-1.605-0.366
			S39.131,167.663,38.99,167.163z"/>
		<path fill="#B3B3B3" d="M44.439,167.163l1.254-0.24c0.191,0.48,0.613,0.721,1.266,0.721c0.828,0,1.242-0.244,1.242-0.732
			c0-0.156-0.064-0.285-0.193-0.387s-0.281-0.17-0.457-0.205l-1.078-0.205c-1.195-0.23-1.793-0.814-1.793-1.752
			c0-0.523,0.189-0.968,0.568-1.333s0.943-0.548,1.693-0.548c1.25,0,2.014,0.459,2.291,1.377l-1.189,0.24
			c-0.125-0.445-0.48-0.668-1.066-0.668c-0.711,0-1.066,0.223-1.066,0.668c0,0.309,0.287,0.521,0.861,0.639L48.043,165
			c0.988,0.203,1.482,0.77,1.482,1.699c0,0.652-0.254,1.14-0.762,1.462s-1.111,0.483-1.811,0.483c-0.605,0-1.141-0.122-1.605-0.366
			S44.58,167.663,44.439,167.163z"/>
		<path fill="#B3B3B3" d="M54.371,166.635l1.207,0.164c-0.156,0.535-0.461,0.977-0.914,1.324s-1.021,0.521-1.705,0.521
			c-0.82,0-1.48-0.275-1.98-0.826s-0.75-1.297-0.75-2.238c0-0.895,0.252-1.635,0.756-2.221s1.188-0.879,2.051-0.879
			c0.844,0,1.496,0.289,1.957,0.867s0.691,1.32,0.691,2.227l-0.006,0.152h-4.061c0,0.402,0.038,0.725,0.114,0.967
			s0.228,0.453,0.454,0.633s0.51,0.27,0.85,0.27C53.695,167.596,54.141,167.276,54.371,166.635z M54.289,164.866
			c-0.004-0.426-0.132-0.773-0.384-1.043s-0.563-0.404-0.935-0.404c-0.367,0-0.674,0.126-0.92,0.378s-0.391,0.608-0.434,1.069
			H54.289z"/>
		<path fill="#B3B3B3" d="M60.846,167.485v1.037h-4.465v-1.037l2.854-3.844H56.65v-1.037h4.195v0.943l-2.924,3.938H60.846z"/>
		<path fill="#B3B3B3" d="M69.793,168.522h-1.242v-1.277c-0.336,0.934-0.959,1.4-1.869,1.4c-0.539,0-0.967-0.167-1.283-0.501
			s-0.475-0.8-0.475-1.397v-4.143h1.365v3.855c0,0.426,0.094,0.705,0.281,0.838s0.371,0.199,0.551,0.199
			c0.289,0,0.584-0.13,0.885-0.39s0.451-0.813,0.451-1.661v-2.842h1.336V168.522z"/>
		<path fill="#B3B3B3" d="M76.297,168.522h-1.336v-3.697c0-0.391-0.09-0.685-0.27-0.882s-0.396-0.296-0.65-0.296
			c-0.348,0-0.652,0.152-0.914,0.457s-0.393,0.764-0.393,1.377v3.041h-1.336v-5.918h1.219v1.371
			c0.426-0.996,1.023-1.494,1.793-1.494c0.52,0,0.964,0.164,1.333,0.492s0.554,0.904,0.554,1.729V168.522z"/>
		<path fill="#B3B3B3" d="M81.658,166.635l1.207,0.164c-0.156,0.535-0.461,0.977-0.914,1.324s-1.021,0.521-1.705,0.521
			c-0.82,0-1.48-0.275-1.98-0.826s-0.75-1.297-0.75-2.238c0-0.895,0.252-1.635,0.756-2.221s1.188-0.879,2.051-0.879
			c0.844,0,1.496,0.289,1.957,0.867s0.691,1.32,0.691,2.227l-0.006,0.152h-4.061c0,0.402,0.038,0.725,0.114,0.967
			s0.228,0.453,0.454,0.633s0.51,0.27,0.85,0.27C80.982,167.596,81.428,167.276,81.658,166.635z M81.576,164.866
			c-0.004-0.426-0.132-0.773-0.384-1.043s-0.563-0.404-0.935-0.404c-0.367,0-0.674,0.126-0.92,0.378s-0.391,0.608-0.434,1.069
			H81.576z"/>
		<path fill="#B3B3B3" d="M87.793,168.522h-0.604v-7.998h1.336v2.889c0.254-0.441,0.508-0.732,0.762-0.873s0.551-0.211,0.891-0.211
			c0.648,0,1.186,0.275,1.611,0.826s0.639,1.314,0.639,2.291c0,0.883-0.21,1.637-0.63,2.262s-1.022,0.938-1.808,0.938
			c-0.789,0-1.402-0.365-1.84-1.096L87.793,168.522z M88.525,165.997c0,0.527,0.114,0.917,0.343,1.169s0.524,0.378,0.888,0.378
			c0.352,0,0.646-0.145,0.885-0.434s0.365-0.855,0.381-1.699c0-0.617-0.107-1.093-0.322-1.427s-0.518-0.501-0.908-0.501
			c-0.367,0-0.67,0.143-0.908,0.428s-0.357,0.688-0.357,1.207V165.997z"/>
		<path fill="#B3B3B3" d="M95.967,168.645c-0.875,0-1.543-0.314-2.004-0.943s-0.691-1.35-0.691-2.162
			c0-0.875,0.255-1.604,0.765-2.186s1.183-0.873,2.019-0.873c0.793,0,1.444,0.283,1.954,0.85s0.765,1.303,0.765,2.209
			c0,0.934-0.265,1.685-0.794,2.253S96.779,168.645,95.967,168.645z M96.014,167.543c0.898,0,1.348-0.67,1.348-2.01
			c0-0.605-0.107-1.083-0.322-1.433s-0.545-0.524-0.99-0.524c-0.461,0-0.803,0.181-1.025,0.542s-0.334,0.841-0.334,1.438
			c0,0.645,0.118,1.137,0.354,1.477S95.604,167.543,96.014,167.543z"/>
		<path fill="#B3B3B3" d="M104.896,168.522h-1.336v-3.697c0-0.391-0.09-0.685-0.27-0.882s-0.396-0.296-0.65-0.296
			c-0.348,0-0.652,0.152-0.914,0.457s-0.393,0.764-0.393,1.377v3.041h-1.336v-5.918h1.219v1.371
			c0.426-0.996,1.023-1.494,1.793-1.494c0.52,0,0.964,0.164,1.333,0.492s0.554,0.904,0.554,1.729V168.522z"/>
		<path fill="#B3B3B3" d="M111.395,168.522h-1.336v-3.697c0-0.391-0.09-0.685-0.27-0.882s-0.396-0.296-0.65-0.296
			c-0.348,0-0.652,0.152-0.914,0.457s-0.393,0.764-0.393,1.377v3.041h-1.336v-5.918h1.219v1.371
			c0.426-0.996,1.023-1.494,1.793-1.494c0.52,0,0.964,0.164,1.333,0.492s0.554,0.904,0.554,1.729V168.522z"/>
		<path fill="#B3B3B3" d="M116.756,166.635l1.207,0.164c-0.156,0.535-0.461,0.977-0.914,1.324s-1.021,0.521-1.705,0.521
			c-0.82,0-1.48-0.275-1.98-0.826s-0.75-1.297-0.75-2.238c0-0.895,0.252-1.635,0.756-2.221s1.188-0.879,2.051-0.879
			c0.844,0,1.496,0.289,1.957,0.867s0.691,1.32,0.691,2.227l-0.006,0.152h-4.061c0,0.402,0.038,0.725,0.114,0.967
			s0.228,0.453,0.454,0.633s0.51,0.27,0.85,0.27C116.08,167.596,116.525,167.276,116.756,166.635z M116.674,164.866
			c-0.004-0.426-0.132-0.773-0.384-1.043s-0.563-0.404-0.935-0.404c-0.367,0-0.674,0.126-0.92,0.378s-0.391,0.608-0.434,1.069
			H116.674z"/>
		<path fill="#B3B3B3" d="M123.617,162.604v5.824c0,1.477-0.678,2.215-2.033,2.215c-0.207,0-0.436-0.023-0.686-0.07v-1.131
			c0.168,0.02,0.311,0.029,0.428,0.029c0.371,0,0.623-0.07,0.756-0.211s0.199-0.418,0.199-0.832v-5.824H123.617z M123.617,161.913
			h-1.336v-1.389h1.336V161.913z"/>
		<path fill="#B3B3B3" d="M127.537,168.645c-0.875,0-1.543-0.314-2.004-0.943s-0.691-1.35-0.691-2.162
			c0-0.875,0.255-1.604,0.765-2.186s1.183-0.873,2.019-0.873c0.793,0,1.444,0.283,1.954,0.85s0.765,1.303,0.765,2.209
			c0,0.934-0.265,1.685-0.794,2.253S128.35,168.645,127.537,168.645z M127.584,167.543c0.898,0,1.348-0.67,1.348-2.01
			c0-0.605-0.107-1.083-0.322-1.433s-0.545-0.524-0.99-0.524c-0.461,0-0.803,0.181-1.025,0.542s-0.334,0.841-0.334,1.438
			c0,0.645,0.118,1.137,0.354,1.477S127.174,167.543,127.584,167.543z"/>
		<path fill="#B3B3B3" d="M136.438,168.522h-1.242v-1.277c-0.336,0.934-0.959,1.4-1.869,1.4c-0.539,0-0.967-0.167-1.283-0.501
			s-0.475-0.8-0.475-1.397v-4.143h1.365v3.855c0,0.426,0.094,0.705,0.281,0.838s0.371,0.199,0.551,0.199
			c0.289,0,0.584-0.13,0.885-0.39s0.451-0.813,0.451-1.661v-2.842h1.336V168.522z"/>
		<path fill="#B3B3B3" d="M139.379,168.522h-1.336v-5.918h1.207v1.412c0.172-0.551,0.408-0.953,0.709-1.207s0.609-0.381,0.926-0.381
			c0.043,0,0.102,0.002,0.176,0.006v1.436c-0.68,0-1.13,0.217-1.351,0.65s-0.331,0.854-0.331,1.26V168.522z"/>
		<path fill="#B3B3B3" d="M146.92,168.522h-1.336v-3.697c0-0.391-0.09-0.685-0.27-0.882s-0.396-0.296-0.65-0.296
			c-0.348,0-0.652,0.152-0.914,0.457s-0.393,0.764-0.393,1.377v3.041h-1.336v-5.918h1.219v1.371
			c0.426-0.996,1.023-1.494,1.793-1.494c0.52,0,0.964,0.164,1.333,0.492s0.554,0.904,0.554,1.729V168.522z"/>
		<path fill="#B3B3B3" d="M152.281,166.635l1.207,0.164c-0.156,0.535-0.461,0.977-0.914,1.324s-1.021,0.521-1.705,0.521
			c-0.82,0-1.48-0.275-1.98-0.826s-0.75-1.297-0.75-2.238c0-0.895,0.252-1.635,0.756-2.221s1.188-0.879,2.051-0.879
			c0.844,0,1.496,0.289,1.957,0.867s0.691,1.32,0.691,2.227l-0.006,0.152h-4.061c0,0.402,0.038,0.725,0.114,0.967
			s0.228,0.453,0.454,0.633s0.51,0.27,0.85,0.27C151.605,167.596,152.051,167.276,152.281,166.635z M152.199,164.866
			c-0.004-0.426-0.132-0.773-0.384-1.043s-0.563-0.404-0.935-0.404c-0.367,0-0.674,0.126-0.92,0.378s-0.391,0.608-0.434,1.069
			H152.199z M152.316,159.809l0.387,0.879l-2.443,1.031l-0.246-0.627L152.316,159.809z"/>
		<path fill="#B3B3B3" d="M158.574,166.635l1.207,0.164c-0.156,0.535-0.461,0.977-0.914,1.324s-1.021,0.521-1.705,0.521
			c-0.82,0-1.48-0.275-1.98-0.826s-0.75-1.297-0.75-2.238c0-0.895,0.252-1.635,0.756-2.221s1.188-0.879,2.051-0.879
			c0.844,0,1.496,0.289,1.957,0.867s0.691,1.32,0.691,2.227l-0.006,0.152h-4.061c0,0.402,0.038,0.725,0.114,0.967
			s0.228,0.453,0.454,0.633s0.51,0.27,0.85,0.27C157.898,167.596,158.344,167.276,158.574,166.635z M158.492,164.866
			c-0.004-0.426-0.132-0.773-0.384-1.043s-0.563-0.404-0.935-0.404c-0.367,0-0.674,0.126-0.92,0.378s-0.391,0.608-0.434,1.069
			H158.492z"/>
		<path fill="#B3B3B3" d="M165.863,160.524l-0.592,5.572h-0.609l-0.563-5.572H165.863z M165.682,167.057v1.465h-1.459v-1.465
			H165.682z"/>
		<path fill="#B3B3B3" d="M171.781,162.997v1.459h-1.459v-1.459H171.781z M171.781,167.028v1.342l-0.943,1.863h-0.516l0.697-1.711
			h-0.697v-1.494H171.781z"/>
		<path fill="#B3B3B3" d="M172.818,160.524h0.791c1.352,1.477,2.027,3.178,2.027,5.104c0,1.059-0.228,2.043-0.683,2.953
			s-0.903,1.557-1.345,1.939h-0.791c0.641-0.891,1.082-1.726,1.324-2.505s0.363-1.616,0.363-2.511
			C174.506,163.711,173.943,162.051,172.818,160.524z"/>
	</g>
	<g>
		<circle fill="none" stroke="#333333" stroke-width="3" stroke-miterlimit="10" cx="318.093" cy="106.451" r="14.298"/>
		<g>
			<path fill="none" stroke="#333333" stroke-miterlimit="10" d="M313.735,103.417c-0.472,0.991-1.04,1.892-1.705,2.703h13.948
				v0.883H312.03c0.595,0.595,1.17,1.496,1.723,2.702h-0.673c-1.3-1.475-2.507-2.469-3.62-2.982v-0.394
				c1.026-0.414,2.229-1.384,3.611-2.912H313.735z"/>
		</g>
	</g>
	<g>
		<rect x="12.45" y="78" fill="none" width="293.793" height="43.498"/>
		<path fill="#1A1A1A" d="M21.126,100.968c0,0.756-0.684,1.008-1.297,1.008H15.15c-0.685,0-1.368-0.252-1.368-1.008
			s0.684-1.116,1.368-1.116h0.647c0.612,0,0.612,0,0.612-0.72V82.07l-1.116,1.116H13.53c-0.611,0-1.295-0.288-1.295-1.008
			c0-0.648,0.684-1.116,1.295-1.116h0.936l4.068-4.067v22.137c0,0.72,0.035,0.72,0.756,0.72h0.539
			C20.442,99.852,21.126,100.212,21.126,100.968z"/>
		<path fill="#1A1A1A" d="M74.631,100.968c0,0.576-0.504,1.008-1.008,1.008h-3.815v-7.811c0-3.6-2.88-6.551-6.623-6.551
			c-3.6,0-6.588,2.952-6.588,6.551v7.775H52.89c-0.648,0-1.08-0.432-1.08-1.008c0-0.648,0.432-1.152,1.08-1.152h1.08
			c0.324,0,0.504-0.18,0.504-0.432v-11.23c0-0.288-0.18-0.504-0.504-0.504h-1.08c-0.648,0-1.08-0.504-1.08-1.044
			c0-0.612,0.432-1.116,1.08-1.116h3.707v3.06c1.656-1.656,4.248-3.06,6.588-3.06c4.823,0,8.783,3.888,8.783,8.711v5.219
			c0,0.252,0.215,0.432,0.504,0.432h1.151C74.127,99.816,74.631,100.392,74.631,100.968z"/>
		<path fill="#1A1A1A" d="M93.423,93.697c0,5.111-4.175,9.287-9.357,9.287c-5.111,0-9.287-4.175-9.287-9.287
			c0-5.112,4.176-9.287,9.287-9.287C89.248,84.41,93.423,88.585,93.423,93.697z M91.264,93.697c0-3.959-3.239-7.163-7.198-7.163
			c-3.961,0-7.128,3.204-7.128,7.163s3.167,7.127,7.128,7.127C88.024,100.824,91.264,97.656,91.264,93.697z"/>
		<path fill="#1A1A1A" d="M115.958,86.461c0,0.504-0.504,1.08-1.15,1.08h-0.433c-0.433,0-0.792,0.072-0.937,0.36l-0.719,1.224
			c-1.873,3.563-6.336,11.807-6.336,11.807l-1.152,2.592l-1.151-2.592h0.036c-0.359-0.648-5.004-9.035-6.479-12.022h0.035
			c-0.107-0.18-0.252-0.288-0.324-0.396c-0.18-0.252-0.287-0.468-0.324-0.576c-0.143-0.216-0.432-0.324-0.936-0.324h-0.504
			c-0.576,0-1.08-0.504-1.08-1.116c0-0.54,0.504-1.044,1.08-1.044h2.736l0.756,1.584l3.563,6.479
			c0.899,1.656,1.691,3.096,2.591,4.715c2.053-3.815,4.141-7.487,6.191-11.338l0.648-1.512h2.736
			C115.454,85.382,115.958,85.886,115.958,86.461z"/>
		<path fill="#1A1A1A" d="M118.192,94.453c0.072,1.691,0.828,3.239,1.98,4.427c1.332,1.26,3.023,1.944,4.715,1.944
			c1.656,0,3.42-0.72,4.968-2.16l1.476,1.548c-1.871,1.872-4.211,2.771-6.443,2.771c-2.268,0-4.499-0.828-6.263-2.556
			c-1.548-1.584-2.592-3.779-2.592-6.263c0-4.859,3.96-8.747,8.892-8.747c4.859,0,8.746,4.032,8.746,9.035H118.192z M131.151,92.293
			c-0.828-2.736-3.24-4.716-6.227-4.716c-3.168,0-5.688,1.944-6.443,4.716H131.151z"/>
		<path fill="#1A1A1A" d="M166.717,100.932c0,0.576-0.504,1.008-1.008,1.008h-3.815V91.069c0-2.231-1.728-3.959-3.959-3.959
			c-3.313,0-6.048,2.736-6.048,6.047v8.711h-2.159V91.069c0-2.231-1.729-3.959-3.96-3.959c-3.384,0-6.083,2.736-6.083,6.047v8.783
			h-3.779c-0.576,0-1.008-0.432-1.008-1.08c0-0.576,0.432-1.08,1.008-1.08h1.151c0.288,0,0.433-0.18,0.433-0.432V88.261
			c0-0.36-0.145-0.576-0.433-0.576h-1.151c-0.576,0-1.008-0.504-1.008-1.08c0-0.504,0.432-1.08,1.008-1.08h3.779v2.16
			c1.512-1.656,3.672-2.736,6.083-2.736s4.499,1.44,5.472,3.456c1.547-2.088,3.924-3.456,6.695-3.456
			c3.383,0,6.119,2.808,6.119,6.119v8.279c0,0.252,0.215,0.432,0.504,0.432h1.151C166.213,99.78,166.717,100.284,166.717,100.932z"
			/>
		<path fill="#1A1A1A" d="M188.534,94.201c0,4.895-3.887,8.783-8.782,8.783c-2.735,0-5.075-1.152-6.695-3.132v2.124h-3.743
			c-0.576,0-1.152-0.432-1.152-1.008c0-0.648,0.576-1.152,1.152-1.152h1.008c0.359,0,0.576-0.18,0.576-0.432V80.666
			c0-0.288-0.217-0.468-0.576-0.468h-1.008c-0.576,0-1.152-0.468-1.152-1.044c0-0.648,0.576-1.152,1.152-1.152h3.743v10.655
			c1.62-1.872,4.031-3.167,6.695-3.167C184.647,85.49,188.534,89.377,188.534,94.201z M186.375,94.201
			c0-3.6-2.952-6.551-6.623-6.551c-3.6,0-6.552,2.952-6.552,6.551c0,3.671,2.952,6.623,6.552,6.623
			C183.423,100.824,186.375,97.872,186.375,94.201z"/>
		<path fill="#1A1A1A" d="M205.599,91.825h-2.088c0-2.375-1.799-4.248-3.959-4.248c-3.384,0-6.119,2.736-6.119,6.047v8.351h-3.708
			c-0.612,0-1.116-0.432-1.116-1.008c0-0.648,0.504-1.152,1.116-1.152h1.044c0.288,0,0.576-0.18,0.576-0.432V88.117
			c0-0.288-0.288-0.504-0.576-0.504h-1.044c-0.612,0-1.116-0.576-1.116-1.116s0.504-1.044,1.116-1.044h3.708v2.627
			c1.476-1.62,3.672-2.664,6.119-2.664C202.863,85.417,205.599,88.297,205.599,91.825z"/>
		<path fill="#1A1A1A" d="M208.841,94.453c0.072,1.691,0.828,3.239,1.979,4.427c1.331,1.26,3.023,1.944,4.716,1.944
			c1.655,0,3.419-0.72,4.967-2.16l1.477,1.548c-1.873,1.872-4.213,2.771-6.443,2.771c-2.268,0-4.5-0.828-6.264-2.556
			c-1.548-1.584-2.592-3.779-2.592-6.263c0-4.859,3.959-8.747,8.891-8.747c4.859,0,8.747,4.032,8.747,9.035H208.841z
			 M221.799,92.293c-0.828-2.736-3.239-4.716-6.228-4.716c-3.168,0-5.688,1.944-6.443,4.716H221.799z"/>
		<path fill="#1A1A1A" d="M255.565,98.412v3.563h-16.053l13.462-15.154c0.684-0.648,1.079-1.656,1.079-2.591
			c0-1.008-0.396-1.944-1.079-2.664c-1.476-1.512-3.312-2.268-5.04-2.268c-1.727,0-3.527,0.828-5.146,2.484l-1.512-1.512
			c2.016-2.016,4.355-2.987,6.658-2.987c2.268,0,4.572,0.936,6.48,2.771c1.15,1.152,1.619,2.628,1.619,4.176
			c0,1.404-0.54,2.951-1.619,4.103l-4.141,4.751c-1.979,2.304-3.887,4.428-5.867,6.767h8.243c0.396,0,0.792-0.324,0.792-0.72v-0.72
			c0-0.684,0.324-1.116,1.044-1.116C255.242,97.296,255.565,97.728,255.565,98.412z"/>
		<path fill="#1A1A1A" d="M274.357,86.534v7.847c0,4.824-4.319,8.603-8.639,8.603c-4.823,0-8.603-3.779-8.603-8.603v-7.847
			c0-4.788,3.779-8.639,8.603-8.639C270.038,77.895,274.357,81.746,274.357,86.534z M272.233,94.38v-7.847
			c0-3.492-3.023-6.479-6.515-6.479c-3.995,0-6.479,2.988-6.479,6.479v7.847c0,3.996,2.484,6.479,6.479,6.479
			C269.21,100.86,272.233,98.376,272.233,94.38z"/>
		<path fill="#1A1A1A" d="M284.259,100.968c0,0.756-0.684,1.008-1.297,1.008h-4.679c-0.685,0-1.368-0.252-1.368-1.008
			s0.684-1.116,1.368-1.116h0.647c0.612,0,0.612,0,0.612-0.72V82.07l-1.116,1.116h-1.764c-0.611,0-1.295-0.288-1.295-1.008
			c0-0.648,0.684-1.116,1.295-1.116h0.936l4.068-4.067v22.137c0,0.72,0.035,0.72,0.756,0.72h0.539
			C283.575,99.852,284.259,100.212,284.259,100.968z"/>
		<path fill="#1A1A1A" d="M294.771,87.505c2.412,1.224,3.887,3.779,3.887,6.335v1.08c0,4.284-3.779,8.063-8.063,8.063
			c-2.16,0-4.067-1.116-5.615-2.375l1.368-1.368c1.548,1.08,2.771,1.62,4.247,1.62c2.988,0,5.939-3.024,5.939-5.939v-1.08
			c0-2.952-2.592-4.931-5.184-4.931v-2.16c1.548,0,3.636-1.404,3.636-3.312c0-2.448-1.944-3.888-3.852-3.888
			c-1.476,0-3.132,0.18-4.283,1.332l-1.403-1.62c1.907-1.296,3.599-1.835,5.687-1.835c3.204,0,5.976,2.7,5.976,6.011
			C297.11,84.877,296.21,86.425,294.771,87.505z"/>
	</g>
	<g>
		<g>
			<path fill="#1A1A1A" d="M21.051,81.119c0.034,0.799,0.391,1.53,0.935,2.091c0.629,0.595,1.428,0.918,2.227,0.918
				c0.782,0,1.615-0.34,2.346-1.02l0.697,0.731c-0.884,0.884-1.988,1.309-3.043,1.309c-1.07,0-2.125-0.391-2.957-1.207
				c-0.731-0.748-1.225-1.785-1.225-2.958c0-2.295,1.87-4.13,4.199-4.13c2.295,0,4.131,1.903,4.131,4.266H21.051z M27.17,80.099
				c-0.392-1.292-1.53-2.227-2.94-2.227c-1.496,0-2.686,0.918-3.043,2.227H27.17z"/>
			<path fill="#1A1A1A" d="M36.894,79.878h-0.986c0-1.122-0.85-2.006-1.869-2.006c-1.598,0-2.89,1.292-2.89,2.856v3.943h-1.751
				c-0.289,0-0.527-0.204-0.527-0.476c0-0.306,0.238-0.544,0.527-0.544h0.493c0.136,0,0.271-0.085,0.271-0.204v-5.321
				c0-0.136-0.136-0.238-0.271-0.238h-0.493c-0.289,0-0.527-0.272-0.527-0.527s0.238-0.493,0.527-0.493h1.751v1.241
				c0.696-0.765,1.733-1.258,2.89-1.258C35.602,76.853,36.894,78.212,36.894,79.878z"/>
		</g>
	</g>
</g>
<g id="Calque_5">
</g>
</svg>
