<?xml version="1.0" encoding="utf-8"?>
<!-- Generator: Adobe Illustrator 16.0.0, SVG Export Plug-In . SVG Version: 6.00 Build 0)  -->
<!DOCTYPE svg PUBLIC "-//W3C//DTD SVG 1.1//EN" "http://www.w3.org/Graphics/SVG/1.1/DTD/svg11.dtd">
<svg version="1.1" xmlns="http://www.w3.org/2000/svg" xmlns:xlink="http://www.w3.org/1999/xlink" x="0px" y="0px" width="276px"
	 height="66px" viewBox="0 0 276 66" enable-background="new 0 0 276 66" xml:space="preserve">
<g id="Calque_1" display="none">
</g>
<g id="Calque_2" display="none">
</g>
<g id="Calque_3">
</g>
<g id="Calque_4">
</g>
<g id="Calque_5">
</g>
<g id="Calque_6">
	<g>
		<rect x="44.361" y="19.337" fill="none" width="234.834" height="58"/>
		<path fill="#85D825" stroke="#85D825" stroke-miterlimit="10" d="M67.254,43.169c0,0.611-0.504,1.115-1.079,1.115h-3.815v-1.979
			c-1.584,1.835-3.996,3.06-6.66,3.06c-4.822,0-8.782-3.959-8.782-8.855V21.787c0-0.323-0.252-0.54-0.54-0.54h-1.115
			c-0.541,0-1.045-0.504-1.045-1.115c0-0.504,0.504-1.008,1.045-1.008h3.779v17.385c0,3.708,2.951,6.66,6.658,6.66
			c3.708,0,6.66-2.952,6.66-6.66V19.124h3.815c0.575,0,1.079,0.504,1.079,1.008c0,0.611-0.504,1.115-1.079,1.115h-1.116
			c-0.252,0-0.468,0.217-0.468,0.54V41.62c0,0.289,0.216,0.541,0.468,0.541h1.116C66.75,42.161,67.254,42.628,67.254,43.169z"/>
		<path fill="#85D825" stroke="#85D825" stroke-miterlimit="10" d="M91.158,42.305c0,0.575-0.504,1.008-1.008,1.008h-3.815v-7.812
			c0-3.6-2.88-6.551-6.623-6.551c-3.6,0-6.587,2.951-6.587,6.551v7.775h-3.708c-0.647,0-1.079-0.432-1.079-1.008
			c0-0.648,0.432-1.152,1.079-1.152h1.08c0.323,0,0.504-0.18,0.504-0.432v-11.23c0-0.288-0.181-0.504-0.504-0.504h-1.08
			c-0.647,0-1.079-0.504-1.079-1.044c0-0.612,0.432-1.116,1.079-1.116h3.708v3.061c1.655-1.656,4.247-3.061,6.587-3.061
			c4.823,0,8.782,3.889,8.782,8.711v5.22c0,0.252,0.217,0.433,0.504,0.433h1.152C90.654,41.153,91.158,41.729,91.158,42.305z"/>
		<path fill="#85D825" stroke="#85D825" stroke-miterlimit="10" d="M99.836,42.305c0,0.575-0.467,1.008-1.043,1.008h-5.4
			c-0.504,0-1.008-0.433-1.008-1.008c0-0.647,0.504-1.151,1.008-1.151h1.152c0.288,0,0.504-0.181,0.504-0.433V29.526
			c0-0.36-0.216-0.576-0.576-0.576h-1.08c-0.575,0-1.079-0.504-1.079-1.044s0.504-1.116,1.079-1.116h3.816v13.931
			c0,0.252,0.216,0.433,0.432,0.433h1.152C99.369,41.153,99.836,41.657,99.836,42.305z M94.041,20.455
			c0-0.864,0.721-1.583,1.512-1.583c0.936,0,1.656,0.719,1.656,1.583c0,0.828-0.721,1.584-1.656,1.584
			C94.762,22.039,94.041,21.283,94.041,20.455z"/>
		<path fill="#85D825" stroke="#85D825" stroke-miterlimit="10" d="M119.959,27.798c0,0.504-0.504,1.08-1.152,1.08h-0.432
			c-0.432,0-0.792,0.072-0.936,0.36l-0.721,1.224c-1.871,3.563-6.335,11.807-6.335,11.807l-1.151,2.592l-1.152-2.592h0.036
			c-0.36-0.648-5.003-9.035-6.479-12.022h0.036c-0.108-0.181-0.252-0.288-0.323-0.396c-0.181-0.252-0.289-0.469-0.324-0.576
			c-0.145-0.217-0.432-0.324-0.936-0.324h-0.504c-0.576,0-1.08-0.504-1.08-1.115c0-0.541,0.504-1.045,1.08-1.045h2.734l0.756,1.584
			l3.564,6.479c0.9,1.655,1.691,3.096,2.592,4.716c2.051-3.816,4.139-7.487,6.191-11.339l0.647-1.512h2.735
			C119.455,26.719,119.959,27.223,119.959,27.798z"/>
		<path fill="#85D825" stroke="#85D825" stroke-miterlimit="10" d="M141.379,27.942c0,4.859-3.889,8.783-8.783,8.783
			c-2.557,0-5.004-1.188-6.66-3.023V44.32h-3.779c-0.611,0-1.043-0.504-1.043-1.116c0-0.539,0.432-1.043,1.043-1.043h1.116
			c0.288,0,0.504-0.217,0.504-0.504V21.823c0-0.324-0.216-0.54-0.504-0.54h-1.116c-0.611,0-1.043-0.504-1.043-1.116
			c0-0.504,0.432-1.008,1.043-1.008h3.779v3.023c1.656-1.764,4.141-3.023,6.66-3.023C137.49,19.159,141.379,23.047,141.379,27.942z
			 M139.254,27.942c0-3.707-2.951-6.659-6.658-6.659c-3.708,0-6.66,2.952-6.66,6.659s2.952,6.659,6.66,6.659
			C136.303,34.602,139.254,31.649,139.254,27.942z"/>
		<path fill="#85D825" stroke="#85D825" stroke-miterlimit="10" d="M149.803,42.305c0,0.575-0.504,1.008-1.079,1.008h-5.399
			c-0.504,0-1.008-0.433-1.008-1.008c0-0.576,0.504-1.151,1.008-1.151h1.08c0.359,0,0.576-0.181,0.576-0.433V22.003
			c0-0.287-0.217-0.468-0.576-0.468h-1.08c-0.504,0-1.008-0.54-1.008-1.116s0.504-1.08,1.008-1.08h3.815v21.382
			c0,0.252,0.216,0.433,0.468,0.433h1.116C149.299,41.153,149.803,41.729,149.803,42.305z"/>
		<path fill="#85D825" stroke="#85D825" stroke-miterlimit="10" d="M169.891,42.232c0,0.576-0.504,1.008-1.045,1.008h-3.779v-2.087
			c-1.619,1.835-4.139,3.167-6.767,3.167c-4.751,0-8.783-3.888-8.783-8.782c0-4.824,4.032-8.711,8.783-8.711
			c2.735,0,5.183,1.151,6.767,3.131v-3.203h3.779c0.541,0,1.045,0.504,1.045,1.115c0,0.54-0.504,1.044-1.045,1.044h-1.115
			c-0.288,0-0.504,0.216-0.504,0.504v11.231c0,0.252,0.216,0.432,0.504,0.432h1.115C169.387,41.081,169.891,41.585,169.891,42.232z
			 M164.923,35.538c0-3.6-2.88-6.552-6.623-6.552c-3.6,0-6.624,2.952-6.624,6.552c0,3.671,3.024,6.623,6.624,6.623
			C162.043,42.161,164.923,39.209,164.923,35.538z"/>
		<path fill="#85D825" stroke="#85D825" stroke-miterlimit="10" d="M193.938,42.305c0,0.575-0.504,1.008-1.008,1.008h-3.815v-7.812
			c0-3.6-2.88-6.551-6.623-6.551c-3.6,0-6.587,2.951-6.587,6.551v7.775h-3.708c-0.647,0-1.079-0.432-1.079-1.008
			c0-0.648,0.432-1.152,1.079-1.152h1.08c0.323,0,0.504-0.18,0.504-0.432v-11.23c0-0.288-0.181-0.504-0.504-0.504h-1.08
			c-0.647,0-1.079-0.504-1.079-1.044c0-0.612,0.432-1.116,1.079-1.116h3.708v3.061c1.655-1.656,4.247-3.061,6.587-3.061
			c4.823,0,8.782,3.889,8.782,8.711v5.22c0,0.252,0.217,0.433,0.504,0.433h1.152C193.434,41.153,193.938,41.729,193.938,42.305z"/>
		<path fill="#85D825" stroke="#85D825" stroke-miterlimit="10" d="M218.058,42.305c0,0.575-0.504,1.008-1.008,1.008h-3.815v-7.812
			c0-3.6-2.88-6.551-6.623-6.551c-3.6,0-6.588,2.951-6.588,6.551v7.775h-3.707c-0.648,0-1.08-0.432-1.08-1.008
			c0-0.648,0.432-1.152,1.08-1.152h1.08c0.324,0,0.504-0.18,0.504-0.432v-11.23c0-0.288-0.18-0.504-0.504-0.504h-1.08
			c-0.648,0-1.08-0.504-1.08-1.044c0-0.612,0.432-1.116,1.08-1.116h3.707v3.061c1.656-1.656,4.248-3.061,6.588-3.061
			c4.823,0,8.783,3.889,8.783,8.711v5.22c0,0.252,0.215,0.433,0.504,0.433h1.151C217.554,41.153,218.058,41.729,218.058,42.305z"/>
		<path fill="#85D825" stroke="#85D825" stroke-miterlimit="10" d="M226.736,42.305c0,0.575-0.469,1.008-1.045,1.008h-5.398
			c-0.504,0-1.008-0.433-1.008-1.008c0-0.647,0.504-1.151,1.008-1.151h1.151c0.288,0,0.504-0.181,0.504-0.433V29.526
			c0-0.36-0.216-0.576-0.575-0.576h-1.08c-0.576,0-1.08-0.504-1.08-1.044s0.504-1.116,1.08-1.116h3.814v13.931
			c0,0.252,0.217,0.433,0.433,0.433h1.151C226.268,41.153,226.736,41.657,226.736,42.305z M220.94,20.455
			c0-0.864,0.72-1.583,1.512-1.583c0.937,0,1.655,0.719,1.655,1.583c0,0.828-0.719,1.584-1.655,1.584
			C221.66,22.039,220.94,21.283,220.94,20.455z"/>
		<path fill="#85D825" stroke="#85D825" stroke-miterlimit="10" d="M250.457,42.305c0,0.575-0.504,1.008-1.008,1.008h-3.814v-7.812
			c0-3.6-2.881-6.551-6.623-6.551c-3.6,0-6.588,2.951-6.588,6.551v7.775h-3.707c-0.648,0-1.08-0.432-1.08-1.008
			c0-0.648,0.432-1.152,1.08-1.152h1.08c0.323,0,0.504-0.18,0.504-0.432v-11.23c0-0.288-0.181-0.504-0.504-0.504h-1.08
			c-0.648,0-1.08-0.504-1.08-1.044c0-0.612,0.432-1.116,1.08-1.116h3.707v3.061c1.656-1.656,4.248-3.061,6.588-3.061
			c4.822,0,8.782,3.889,8.782,8.711v5.22c0,0.252,0.216,0.433,0.504,0.433h1.151C249.953,41.153,250.457,41.729,250.457,42.305z"/>
		<path fill="#85D825" stroke="#85D825" stroke-miterlimit="10" d="M268.926,35.897l-0.575,4.68l-0.396,3.527
			c-0.289,2.016-0.937,2.879-1.729,3.887c-1.619,2.16-4.428,3.313-7.234,3.313V49.18c2.987,0,6.263-2.556,6.839-5.183l0.323-2.664
			c-1.547,1.367-3.527,2.123-5.867,2.123c-4.822,0-8.603-3.779-8.603-8.639c0-4.787,3.78-8.604,8.603-8.604
			c4.859,0,8.639,3.816,8.639,8.604V35.897z M266.803,34.817c0-3.455-3.023-6.479-6.516-6.479c-3.455,0-6.479,3.023-6.479,6.479
			c0,3.563,3.023,6.516,6.479,6.516C263.779,41.333,266.803,38.381,266.803,34.817z"/>
	</g>
	<g>
		
			<ellipse transform="matrix(0.9574 0.2887 -0.2887 0.9574 7.2765 -10.3175)" fill="none" stroke="#85D825" stroke-miterlimit="10" cx="38.611" cy="19.506" rx="1.75" ry="3.33"/>
		<polygon fill="none" stroke="#85D825" stroke-miterlimit="10" points="35.361,47.837 5.361,47.837 8.361,19.837 38.361,19.837 		
			"/>
		<g>
			<path fill="#85D825" d="M19.505,35.22c1.38,0.766,2.185,2.287,2.13,3.777l-0.023,0.629c-0.092,2.497-2.377,4.619-4.873,4.527
				c-1.26-0.047-2.348-0.738-3.223-1.506l0.826-0.769c0.88,0.663,1.582,1.004,2.441,1.036c1.742,0.064,3.527-1.635,3.59-3.335
				l0.023-0.628c0.063-1.721-1.404-2.932-2.915-2.987l1.046-1.222c0.902,0.033,2.149-0.74,2.19-1.852
				c0.053-1.428-1.05-2.309-2.161-2.35c-0.86-0.031-1.83,0.038-2.525,0.684l-0.783-0.974c1.139-0.715,2.137-0.993,3.354-0.948
				c1.868,0.069,3.426,1.703,3.354,3.633C21.924,33.776,20.367,34.622,19.505,35.22z"/>
			<path fill="#85D825" d="M27.211,42.988c-0.017,0.44-0.421,0.572-0.777,0.56l-2.728-0.102c-0.399-0.014-0.792-0.176-0.776-0.616
				c0.017-0.44,0.423-0.636,0.822-0.621l0.377,0.015c0.357,0.012,0.357,0.012,0.373-0.406l1.366-9.91l-0.675,0.627l-1.027-0.038
				c-0.357-0.013-0.75-0.195-0.734-0.614c0.015-0.379,0.423-0.637,0.779-0.623l0.545,0.02l2.459-2.283l-1.476,12.867
				c-0.015,0.42,0.006,0.42,0.425,0.436l0.314,0.012C26.836,42.323,27.227,42.547,27.211,42.988z"/>
		</g>
		
			<line fill="none" stroke="#85D825" stroke-linecap="round" stroke-miterlimit="10" x1="30.736" y1="47.837" x2="35.861" y2="43.171"/>
		<rect x="7.861" y="20.337" fill="#85D825" width="30" height="5"/>
		<polygon fill="#4D4D4D" stroke="#85D825" stroke-miterlimit="10" points="39.361,19.837 39.361,44.837 35.861,44.837 
			38.361,19.837 		"/>
		
			<ellipse transform="matrix(0.9574 0.2887 -0.2887 0.9574 6.9784 -8.2964)" fill="none" stroke="#85D825" stroke-miterlimit="10" cx="31.611" cy="19.506" rx="1.75" ry="3.33"/>
		
			<ellipse transform="matrix(0.9574 0.2887 -0.2887 0.9574 6.6802 -6.2753)" fill="none" stroke="#85D825" stroke-miterlimit="10" cx="24.611" cy="19.506" rx="1.75" ry="3.33"/>
		
			<ellipse transform="matrix(0.9574 0.2887 -0.2887 0.9574 6.3821 -4.2542)" fill="none" stroke="#85D825" stroke-miterlimit="10" cx="17.611" cy="19.506" rx="1.75" ry="3.33"/>
		
			<ellipse transform="matrix(0.9574 0.2887 -0.2887 0.9574 6.084 -2.233)" fill="none" stroke="#85D825" stroke-miterlimit="10" cx="10.611" cy="19.506" rx="1.75" ry="3.33"/>
	</g>
</g>
<g id="Calque_7">
</g>
</svg>
