<?xml version="1.0" encoding="utf-8"?>
<!-- Generator: Adobe Illustrator 16.0.0, SVG Export Plug-In . SVG Version: 6.00 Build 0)  -->
<!DOCTYPE svg PUBLIC "-//W3C//DTD SVG 1.1//EN" "http://www.w3.org/Graphics/SVG/1.1/DTD/svg11.dtd">
<svg version="1.1" xmlns="http://www.w3.org/2000/svg" xmlns:xlink="http://www.w3.org/1999/xlink" x="0px" y="0px" width="1280px"
	 height="730px" viewBox="0 0 1280 730" enable-background="new 0 0 1280 730" xml:space="preserve">
<g id="Calque_1" display="none">
</g>
<g id="Calque_2" display="none">
</g>
<g id="Calque_3">
</g>
<g id="Calque_4">
	<rect x="28.462" y="72" fill="#CCCCCC" width="413" height="392"/>
	<rect x="48.674" y="79.067" fill="none" width="289.448" height="51.34"/>
	<text transform="matrix(1 0 0 1 48.6738 108.5547)" fill="#1A1A1A" font-family="'Ripe-Bold'" font-size="42.4899">31 octobre 2013</text>
	<rect x="48.611" y="117.031" fill="none" width="229.761" height="18.098"/>
	<text transform="matrix(1 0 0 1 48.6123 127.2729)" fill="#1A1A1A" font-family="'FranklinGothic-Medium'" font-size="15.3436">Aujourd’hui</text>
	<rect x="53.462" y="148" fill="#C1272D" width="376" height="142"/>
	<rect x="53.462" y="306" fill="#006837" width="376" height="142"/>
	<rect x="63.822" y="313.255" fill="none" width="210.089" height="46.62"/>
	<text transform="matrix(1 0 0 1 63.8223 322.708)"><tspan x="0" y="0" fill="#FFFFFF" font-family="'FranklinGothic-Medium'" font-size="14.1633">Algorithmique - UE#</tspan><tspan x="0" y="16.996" fill="#FFFFFF" font-family="'FranklinGothic-Medium'" font-size="14.1633">M. Szoniecky</tspan><tspan x="0" y="33.992" fill="#FFFFFF" font-family="'FranklinGothic-Medium'" font-size="14.1633">14 → 17h - J203</tspan></text>
	<g>
		<rect x="65.149" y="389.841" fill="#FFFFFF" width="11.803" height="15.343"/>
		<line fill="#FFFFFF" stroke="#4D4D4D" stroke-miterlimit="10" x1="66.462" y1="393.5" x2="74.462" y2="393.5"/>
		<line fill="#FFFFFF" stroke="#4D4D4D" stroke-miterlimit="10" x1="66.462" y1="397.5" x2="74.462" y2="397.5"/>
		<line fill="#FFFFFF" stroke="#4D4D4D" stroke-miterlimit="10" x1="66.462" y1="401.5" x2="72.462" y2="401.5"/>
	</g>
	<g>
		<rect x="86.198" y="380.693" fill="none" width="229.059" height="31.277"/>
		<text transform="matrix(1 0 0 1 86.1982 388.5713)"><tspan x="0" y="0" fill="#FFFFFF" font-family="'FranklinGothic-Medium'" font-size="11.8027">Faire des issues sur Github</tspan><tspan x="0" y="14.164" fill="#FFFFFF" font-family="'FranklinGothic-Medium'" font-size="11.8027">Faire une proposition graphique (.svg)</tspan></text>
	</g>
	<polyline fill="none" stroke="#FFFFFF" stroke-miterlimit="10" points="88.462,377.5 82.962,377.5 82.962,387.479 78.684,392.496 
		82.962,395.151 82.962,409 	"/>
	<polyline fill="none" stroke="#FFFFFF" stroke-miterlimit="10" points="88.462,414.5 82.962,414.5 82.962,424.068 78.684,429.085 
		82.962,431.74 82.962,438 	"/>
	<g>
		<g>
			<path fill="#FFFFFF" d="M74.841,429.326v1.431h-3.078v3.185h-1.425v-3.185H67.26v-1.431h3.078v-3.192h1.425v3.192H74.841z"/>
		</g>
	</g>
	<rect x="87.574" y="418.167" fill="#FFFFFF" width="179.401" height="20.064"/>
	<g>
		<rect x="62.788" y="232.864" fill="#FFFFFF" width="11.803" height="15.344"/>
		<line fill="#FFFFFF" stroke="#4D4D4D" stroke-miterlimit="10" x1="64.462" y1="236.5" x2="72.462" y2="236.5"/>
		<line fill="#FFFFFF" stroke="#4D4D4D" stroke-miterlimit="10" x1="64.462" y1="240.5" x2="72.462" y2="240.5"/>
		<line fill="#FFFFFF" stroke="#4D4D4D" stroke-miterlimit="10" x1="64.462" y1="244.5" x2="69.462" y2="244.5"/>
	</g>
	<rect x="83.838" y="223.717" fill="none" width="229.058" height="31.277"/>
	<text transform="matrix(1 0 0 1 83.8379 231.5952)"><tspan x="0" y="0" fill="#FFFFFF" font-family="'FranklinGothic-Medium'" font-size="11.8027">Faire des issues sur Github</tspan><tspan x="0" y="14.163" fill="#FFFFFF" font-family="'FranklinGothic-Medium'" font-size="11.8027">Faire une proposition graphique (.svg)</tspan></text>
	<polyline fill="none" stroke="#FFFFFF" stroke-miterlimit="10" points="86.462,220.5 80.962,220.5 80.962,230.503 76.684,235.52 
		80.962,238.175 80.962,252 	"/>
	<polyline fill="none" stroke="#FFFFFF" stroke-miterlimit="10" points="86.462,257.5 80.962,257.5 80.962,267.092 76.684,272.108 
		80.962,274.764 80.962,281 	"/>
	<g>
		<g>
			<path fill="#FFFFFF" d="M72.481,272.35v1.431h-3.079v3.185h-1.425v-3.185h-3.078v-1.431h3.078v-3.193h1.425v3.193H72.481z"/>
		</g>
	</g>
	<rect x="85.214" y="261.19" fill="#FFFFFF" width="179.401" height="20.065"/>
	<rect x="63.822" y="157.458" fill="none" width="210.089" height="46.621"/>
	<text transform="matrix(1 0 0 1 63.8223 166.9121)"><tspan x="0" y="0" fill="#FFFFFF" font-family="'FranklinGothic-Medium'" font-size="14.1633">Ergonomie - UE#</tspan><tspan x="0" y="16.996" fill="#FFFFFF" font-family="'FranklinGothic-Medium'" font-size="14.1633">Mme Cohen</tspan><tspan x="0" y="33.992" fill="#FFFFFF" font-family="'FranklinGothic-Medium'" font-size="14.1633">10 → 14h - J203</tspan></text>
	<rect x="89.485" y="13.466" fill="none" width="572.928" height="51.34"/>
	<text id="dateSemaine" transform="matrix(1 0 0 1 89.4854 42.9531)" fill="#1A1A1A" font-family="'Ripe-Bold'" font-size="42.4899">Semaine 5</text>
	<g onclick="suivSemaine()" >
		<circle fill="none" stroke="#333333" stroke-width="3" stroke-miterlimit="10" cx="655.102" cy="30.389" r="16.875"/>
		<g>
			<path fill="#FFFFFF" stroke="#333333" stroke-miterlimit="10" d="M660.148,26.808c1.631,1.803,3.051,2.948,4.263,3.437v0.465
				c-1.314,0.605-2.739,1.778-4.273,3.52h-0.794c0.652-1.424,1.331-2.488,2.033-3.189h-16.463v-1.042h16.463
				c-0.785-0.957-1.456-2.02-2.013-3.19H660.148z"/>
		</g>
	</g>
	<g onclick="precSemaine()">
		<circle fill="#FFFFFF" stroke="#333333" stroke-width="3" stroke-miterlimit="10" cx="53.546" cy="30.028" r="16.875"/>
		<g>
			<path fill="none" stroke="#333333" stroke-miterlimit="10" d="M48.403,26.448c-0.557,1.17-1.229,2.233-2.013,3.19h16.462v1.042
				H46.391c0.702,0.702,1.381,1.765,2.033,3.189H47.63c-1.535-1.741-2.959-2.914-4.273-3.52v-0.464
				c1.212-0.489,2.632-1.634,4.263-3.437H48.403z"/>
		</g>
	</g>
	<rect x="453.462" y="479" fill="#999999" width="252" height="224"/>
	<polyline fill="none" stroke="#666666" stroke-width="2" stroke-miterlimit="10" points="521.462,67 513.462,67 513.462,78.717 
		506.906,85.035 513.462,88.38 513.462,464 	"/>
	<rect x="28.462" y="476" fill="#CCCCCC" width="413" height="225"/>
	<rect x="44.611" y="522.226" fill="none" width="229.761" height="18.098"/>
	<text transform="matrix(1 0 0 1 44.6123 532.4678)" fill="#1A1A1A" font-family="'FranklinGothic-Medium'" font-size="15.3436">Demain</text>
	<rect x="49.462" y="555" fill="#FFFFFF" width="376" height="129"/>
	<g>
		<rect x="61.149" y="622.354" width="11.803" height="15.344"/>
		<line fill="none" stroke="#FFFFFF" stroke-miterlimit="10" x1="62.462" y1="626.5" x2="70.462" y2="626.5"/>
		<line fill="none" stroke="#FFFFFF" stroke-miterlimit="10" x1="62.462" y1="630.5" x2="70.462" y2="630.5"/>
		<line fill="none" stroke="#FFFFFF" stroke-miterlimit="10" x1="62.462" y1="633.5" x2="68.462" y2="633.5"/>
	</g>
	<polyline fill="none" stroke="#000000" stroke-miterlimit="10" points="84.462,609.5 78.962,609.5 78.962,619.994 74.684,625.01 
		78.962,627.666 78.962,641 	"/>
	<polyline fill="none" stroke="#000000" stroke-miterlimit="10" points="84.462,646.5 78.962,646.5 78.962,656.582 74.684,661.599 
		78.962,664.254 78.962,671 	"/>
	<g>
		<g>
			<path d="M70.841,661.841v1.431h-3.078v3.185h-1.425v-3.185H63.26v-1.431h3.078v-3.193h1.425v3.193H70.841z"/>
		</g>
	</g>
	<rect x="83.574" y="650.681" fill="#4D4D4D" width="179.401" height="20.065"/>
	<rect x="59.822" y="564.652" fill="none" width="210.089" height="46.621"/>
	<text transform="matrix(1 0 0 1 59.8223 574.1064)"><tspan x="0" y="0" font-family="'FranklinGothic-Medium'" font-size="14.1633">Toussaint - Jour férié</tspan><tspan x="0" y="16.996" font-family="'FranklinGothic-Medium'" font-size="14.1633">Passez une bonne journée ! ;)</tspan></text>
	<rect x="44.611" y="484.263" fill="none" width="346.756" height="51.339"/>
	<text transform="matrix(1 0 0 1 44.6113 513.749)"><tspan x="0" y="0" fill="#1A1A1A" font-family="'Ripe-Bold'" font-size="42.4899">1</tspan><tspan x="11.43" y="0" fill="#1A1A1A" font-family="'Ripe-Bold'" font-size="22.4252">  </tspan><tspan x="29.459" y="0" fill="#1A1A1A" font-family="'Ripe-Bold'" font-size="42.4899"> novembre 2013</tspan></text>
	<g>
		<g>
			<path fill="#1A1A1A" d="M54.763,487.943c0.04,0.943,0.461,1.806,1.103,2.467c0.743,0.703,1.686,1.084,2.628,1.084
				c0.924,0,1.906-0.401,2.769-1.203l0.823,0.861c-1.043,1.045-2.347,1.546-3.592,1.546c-1.263,0-2.508-0.462-3.49-1.425
				c-0.863-0.882-1.445-2.105-1.445-3.491c0-2.708,2.208-4.874,4.957-4.874c2.708,0,4.875,2.246,4.875,5.035H54.763z M61.985,486.74
				c-0.463-1.525-1.807-2.629-3.471-2.629c-1.766,0-3.17,1.084-3.592,2.629H61.985z"/>
			<path fill="#1A1A1A" d="M73.462,486.479h-1.165c0-1.324-1.003-2.367-2.206-2.367c-1.886,0-3.41,1.525-3.41,3.371v4.654h-2.066
				c-0.342,0-0.623-0.24-0.623-0.563c0-0.36,0.281-0.642,0.623-0.642h0.582c0.16,0,0.32-0.101,0.32-0.241v-6.279
				c0-0.16-0.16-0.281-0.32-0.281h-0.582c-0.342,0-0.623-0.32-0.623-0.621s0.281-0.582,0.623-0.582h2.066v1.465
				c0.821-0.902,2.046-1.484,3.41-1.484C71.937,482.908,73.462,484.513,73.462,486.479z"/>
		</g>
	</g>
	<rect x="984.462" y="479" fill="#CCCCCC" width="253" height="224"/>
	<rect x="718.462" y="479" fill="#938786" width="253" height="224"/>
	<rect x="467.027" y="486.908" fill="none" width="112.435" height="51.34"/>
	<text transform="matrix(1 0 0 1 467.0273 503.5635)" font-family="'Ripe-Bold'" font-size="24">Important</text>
	<rect x="729.965" y="486.908" fill="none" width="149.524" height="51.34"/>
	<text transform="matrix(1 0 0 1 729.9658 503.5635)" font-family="'Ripe-Bold'" font-size="24">Rendus</text>
	<rect x="998.707" y="486.908" fill="none" width="224.472" height="51.34"/>
	<text transform="matrix(1 0 0 1 998.708 503.5635)" font-family="'Ripe-Bold'" font-size="24">Actualités</text>
	<polyline fill="none" stroke="#666666" stroke-width="2" stroke-miterlimit="10" points="636.462,67 627.462,67 627.462,78.717 
		620.906,85.035 627.462,88.38 627.462,464 	"/>
	<polyline fill="none" stroke="#666666" stroke-width="2" stroke-miterlimit="10" points="750.462,67 741.462,67 741.462,78.717 
		734.906,85.035 741.462,88.38 741.462,464 	"/>
	<polyline fill="none" stroke="#666666" stroke-width="2" stroke-miterlimit="10" points="864.462,67 856.462,67 856.462,78.717 
		849.907,85.035 856.462,88.38 856.462,464 	"/>
	<polyline fill="none" stroke="#666666" stroke-width="2" stroke-miterlimit="10" points="979.462,67 970.462,67 970.462,78.717 
		963.907,85.035 970.462,88.38 970.462,464 	"/>
	<polyline fill="none" stroke="#666666" stroke-width="2" stroke-miterlimit="10" points="1093.462,67 1084.462,67 1084.462,78.717 
		1077.906,85.035 1084.462,88.38 1084.462,464 	"/>
	<line fill="none" stroke="#666666" stroke-width="2" stroke-miterlimit="10" x1="458.462" y1="99" x2="1238.462" y2="99"/>
	<line fill="none" stroke="#666666" stroke-width="2" stroke-miterlimit="10" x1="462.462" y1="238" x2="1239.462" y2="238"/>
	<rect x="465.129" y="225.666" fill="none" width="40.667" height="14.667"/>
	<text transform="matrix(1 0 0 1 471.1436 233.6753)" fill="#85D825" font-family="'FranklinGothic-Medium'" font-size="12">12h00</text>
	<rect x="522.212" y="78.333" fill="none" width="72.667" height="14.667"/>
	<text transform="matrix(1 0 0 1 522.2119 87.6777)" fill="#85D825" font-family="'FranklinGothic-Medium'" font-size="14">LUNDI</text>
	<rect x="636.462" y="78.333" fill="none" width="72.667" height="14.667"/>
	<text transform="matrix(1 0 0 1 636.4619 87.6777)" fill="#85D825" font-family="'FranklinGothic-Medium'" font-size="14">MARDI</text>
	<rect x="751.908" y="78.333" fill="none" width="72.667" height="14.667"/>
	<text transform="matrix(1 0 0 1 751.9082 87.6777)" fill="#85D825" font-family="'FranklinGothic-Medium'" font-size="14">MERCREDI</text>
	<rect x="864.462" y="78.333" fill="none" width="72.667" height="14.667"/>
	<text transform="matrix(1 0 0 1 864.4619 87.6777)" fill="#85D825" font-family="'FranklinGothic-Medium'" font-size="14">JEUDI</text>
	<rect x="979.462" y="78.333" fill="none" width="72.667" height="14.667"/>
	<text transform="matrix(1 0 0 1 979.4619 87.6777)" fill="#85D825" font-family="'FranklinGothic-Medium'" font-size="14">VENDREDI</text>
	<rect x="1093.962" y="78.333" fill="none" width="72.667" height="14.667"/>
	<text transform="matrix(1 0 0 1 1093.9619 87.6777)" fill="#85D825" font-family="'FranklinGothic-Medium'" font-size="14">SAMEDI</text>
	<rect x="857.462" y="167" fill="#C1272D" width="114" height="102"/>
	<rect x="857.462" y="300" fill="#006837" width="114" height="102"/>
	<rect x="862.938" y="188.769" fill="none" width="103.047" height="46.621"/>
	<text transform="matrix(1 0 0 1 862.9385 196.7783)"><tspan x="0" y="0" fill="#FFFFFF" font-family="'FranklinGothic-Medium'" font-size="12">Ergonomie - UE#</tspan><tspan x="0" y="14.4" fill="#FFFFFF" font-family="'FranklinGothic-Medium'" font-size="12">Mme Cohen</tspan><tspan x="0" y="28.8" fill="#FFFFFF" font-family="'FranklinGothic-Medium'" font-size="12">10 → 14h - J203</tspan></text>
	<rect x="864.366" y="326.565" fill="none" width="105.045" height="46.621"/>
	<text transform="matrix(1 0 0 1 864.3662 334.5752)"><tspan x="0" y="0" fill="#FFFFFF" font-family="'FranklinGothic-Medium'" font-size="12">Algorithmique - UE#</tspan><tspan x="0" y="14.4" fill="#FFFFFF" font-family="'FranklinGothic-Medium'" font-size="12">M. Szoniecky</tspan><tspan x="0" y="28.8" fill="#FFFFFF" font-family="'FranklinGothic-Medium'" font-size="12">14 → 17h - J203</tspan></text>
	<rect x="971.462" y="100" fill="#FFFFFF" width="112" height="364"/>
	<rect x="977.866" y="217.787" fill="none" width="96.191" height="95.427"/>
	<text transform="matrix(1 0 0 1 993.3896 227.2407)"><tspan x="0" y="0" font-family="'FranklinGothic-Medium'" font-size="14.1633">Toussaint - </tspan><tspan x="4.512" y="16.996" font-family="'FranklinGothic-Medium'" font-size="14.1633">Jour férié</tspan><tspan x="-1.747" y="33.992" font-family="'FranklinGothic-Medium'" font-size="14.1633">Passez une </tspan><tspan x="-14.769" y="50.987" font-family="'FranklinGothic-Medium'" font-size="14.1633">bonne journée ! </tspan><tspan x="28.789" y="67.983" font-family="'FranklinGothic-Medium'" font-size="14.1633">;)</tspan></text>
	<rect x="1197.795" y="225.53" fill="none" width="40.667" height="14.667"/>
	<text transform="matrix(1 0 0 1 1203.8096 233.54)" fill="#85D825" font-family="'FranklinGothic-Medium'" font-size="12">12h00</text>
	<rect x="1085.462" y="100" fill="#FFFFFF" width="112" height="364"/>
	<line fill="none" stroke="#666666" stroke-width="2" stroke-miterlimit="10" x1="1197.462" y1="100" x2="1197.462" y2="464"/>
	<rect x="1093.366" y="233.396" fill="none" width="96.191" height="37.208"/>
	<text transform="matrix(1 0 0 1 1107.2227 242.8501)"><tspan x="0" y="0" font-family="'FranklinGothic-Medium'" font-size="14.1633">Week-end !</tspan><tspan x="12.444" y="16.996" font-family="'FranklinGothic-Medium'" font-size="14.1633">Enjoy ;)</tspan></text>
	<rect x="468.962" y="102.737" fill="none" width="40.667" height="14.667"/>
	<text transform="matrix(1 0 0 1 474.9766 110.7471)" fill="#85D825" font-family="'FranklinGothic-Medium'" font-size="12">08h00</text>
	<rect x="1197.795" y="102.737" fill="none" width="40.667" height="14.667"/>
	<text transform="matrix(1 0 0 1 1203.8096 110.7471)" fill="#85D825" font-family="'FranklinGothic-Medium'" font-size="12">08h00</text>
	<rect x="468.962" y="448" fill="none" width="40.667" height="14.668"/>
	<text transform="matrix(1 0 0 1 474.9766 456.0098)" fill="#85D825" font-family="'FranklinGothic-Medium'" font-size="12">19h00</text>
	<rect x="1197.795" y="455.334" fill="none" width="40.667" height="14.668"/>
	<text transform="matrix(1 0 0 1 1203.8096 463.3438)" fill="#85D825" font-family="'FranklinGothic-Medium'" font-size="12">19h00</text>
</g>
<g id="Calque_5">
</g>
<g id="Calque_6">
	<rect x="50.962" y="-52" fill="none" width="234.834" height="58"/>
	
		<text transform="matrix(1 0 0 1 50.9619 -27.0166)" fill="#85D825" stroke="#85D825" stroke-miterlimit="10" font-family="'Ripe-Bold'" font-size="36">UnivPlannin9</text>
</g>
<g id="Calque_7">
</g>
</svg>
